<svg width="1769" height="887" viewBox="0 0 1769 887" fill="none" xmlns="http://www.w3.org/2000/svg">
<g clip-path="url(#clip0)">
<path fill-rule="evenodd" clip-rule="evenodd" d="M-19 304C-19 304 156.5 129.5 346 198.5C535.5 267.5 661.5 149 884 133.5C1106.5 118 1271 250 1546.5 250C1822 250 1904.5 771 1656.5 748.5C1408.5 726 1284.5 850 1127 800C969.5 750 845 591.5 719 654.5C593 717.5 474.295 783.354 296 800C117.705 816.646 137 706.5 59 748.5C-19 790.5 -19 304 -19 304Z" fill="#573FD2" fill-opacity="0.2"/>
<path fill-rule="evenodd" clip-rule="evenodd" d="M-60 276.888C-60 276.888 33.5 32.5001 223 101.5C412.5 170.5 608 263.5 859.5 241.5C1111 219.5 1177.5 209.5 1451 179.5C1724.5 149.5 1856.5 908.5 1608.5 886C1534.2 879.259 1472.64 864.215 1418.63 845.103C1292.36 800.425 1207.31 733.52 1097 698.5C939.5 648.5 813.5 675.5 687.5 738.5C561.5 801.5 433.295 756.243 255 772.888C76.7049 789.534 96 679.388 18 721.388C-60 763.388 -60 276.888 -60 276.888Z" fill="#FF3D4F" fill-opacity="0.2"/>
</g>
<defs>
<clipPath id="clip0">
<rect width="1769" height="887" fill="white"/>
</clipPath>
</defs>
</svg>
