<?xml version="1.0" standalone="no"?>
<svg
  width="600"
  height="600"
  viewBox="0 0 600 600"
  xmlns="http://www.w3.org/2000/svg"
>
  <g transform="translate(300,300)">
    <path d="M56.3,-125.2C67.2,-80.6,66.4,-55.3,74.6,-34.8C82.9,-14.3,100.4,1.3,110.2,24.3C120.1,47.3,122.4,77.7,107.8,92C93.2,106.3,61.7,104.5,27.5,131.9C-6.6,159.3,-43.3,215.9,-75.9,222.7C-108.5,229.5,-137,186.4,-135.9,142.8C-134.8,99.1,-104,54.8,-119.3,11.3C-134.6,-32.2,-196,-74.9,-209.8,-117C-223.5,-159.1,-189.6,-200.7,-146.7,-230.6C-103.8,-260.5,-51.9,-278.8,-14.6,-256C22.7,-233.3,45.4,-169.7,56.3,-125.2Z" fill="#573fd2" />
  </g>
</svg>
  