<svg width="711" height="259" viewBox="0 0 711 259" fill="none" xmlns="http://www.w3.org/2000/svg">
<path d="M224.5 204.5C221.573 204.5 219.2 206.873 219.2 209.8C219.2 212.728 221.573 215.1 224.5 215.1C227.427 215.1 229.8 212.728 229.8 209.8C229.8 206.873 227.427 204.5 224.5 204.5Z" stroke="#573FD2" stroke-opacity="0.15" stroke-width="2" stroke-miterlimit="10" stroke-linecap="round" stroke-linejoin="round"/>
<path d="M62.3 114.7C62.3 111.8 64.7 109.4 67.6 109.4C70.5 109.4 72.9 111.8 72.9 114.7C72.9 117.6 70.5 120 67.6 120C64.7 120 62.3 117.6 62.3 114.7Z" stroke="#133072" stroke-opacity="0.05" stroke-width="2" stroke-miterlimit="10" stroke-linecap="round" stroke-linejoin="round"/>
<path d="M249.4 13.3C245.8 13.3 245.8 8.00006 242.2 8.00006C238.6 8.00006 238.6 13.3 235 13.3C231.4 13.3 231.4 8.00006 227.8 8.00006C224.2 8.00006 224.2 13.3 220.6 13.3C217 13.3 217 8.00006 213.4 8.00006C209.8 8.00006 209.8 13.3 206.2 13.3C202.6 13.3 202.6 8.00006 199 8.00006" stroke="#FF3D4F" stroke-opacity="0.15" stroke-width="2" stroke-miterlimit="10" stroke-linecap="round" stroke-linejoin="round"/>
<path d="M277.6 250.6L270.7 243.8" stroke="#E8F1F2" stroke-width="2" stroke-miterlimit="10" stroke-linecap="round" stroke-linejoin="round"/>
<path d="M277.6 243.8L270.7 250.6" stroke="#E8F1F2" stroke-width="2" stroke-miterlimit="10" stroke-linecap="round" stroke-linejoin="round"/>
<path d="M336.599 62.8004L329.699 56.0004" stroke="#E8F1F2" stroke-width="2" stroke-miterlimit="10" stroke-linecap="round" stroke-linejoin="round"/>
<path d="M336.599 56.0004L329.699 62.8004" stroke="#E8F1F2" stroke-width="2" stroke-miterlimit="10" stroke-linecap="round" stroke-linejoin="round"/>
<path d="M75.8 45.1004C75.8 44.1004 76.6 43.2004 77.7 43.2004C78.7 43.2004 79.6 44.0004 79.6 45.1004C79.6 46.1004 78.8 47.0004 77.7 47.0004C76.6 47.0004 75.8 46.2004 75.8 45.1004Z" fill="#FF3D4F" fill-opacity="0.15"/>
<path d="M65 45.1004C65 44.1004 65.8 43.2004 66.9 43.2004C68 43.2004 68.8 44.0004 68.8 45.1004C68.8 46.1004 68 47.0004 66.9 47.0004C65.8 47.0004 65 46.2004 65 45.1004Z" fill="#FF3D4F" fill-opacity="0.15"/>
<path d="M54.2 45.1004C54.2 44.1004 55 43.2004 56.1 43.2004C57.2 43.2004 58 44.0004 58 45.1004C58 46.1004 57.2 47.0004 56.1 47.0004C55 47.0004 54.2 46.2004 54.2 45.1004Z" fill="#FF3D4F" fill-opacity="0.15"/>
<path d="M43.3 45.1004C43.3 44.1004 44.1 43.2004 45.2 43.2004C46.2 43.2004 47.1 44.0004 47.1 45.1004C47.1 46.1004 46.3 47.0004 45.2 47.0004C44.2 47.0004 43.3 46.2004 43.3 45.1004Z" fill="#FF3D4F" fill-opacity="0.15"/>
<path d="M32.5 45.1004C32.5 44.1004 33.3 43.2004 34.4 43.2004C35.4 43.2004 36.3 44.0004 36.3 45.1004C36.3 46.1004 35.5 47.0004 34.4 47.0004C33.3 47.0004 32.5 46.2004 32.5 45.1004Z" fill="#FF3D4F" fill-opacity="0.15"/>
<path d="M21.7 45.1004C21.7 44.1004 22.5 43.2004 23.6 43.2004C24.6 43.2004 25.5 44.0004 25.5 45.1004C25.5 46.1004 24.7 47.0004 23.6 47.0004C22.5 47.0004 21.7 46.2004 21.7 45.1004Z" fill="#FF3D4F" fill-opacity="0.15"/>
<path d="M10.8999 45.1004C10.8999 44.1004 11.7 43.2004 12.8 43.2004C13.8 43.2004 14.7 44.0004 14.7 45.1004C14.7 46.1004 13.9 47.0004 12.8 47.0004C11.7 47.0004 10.8999 46.2004 10.8999 45.1004Z" fill="#FF3D4F" fill-opacity="0.15"/>
<path d="M3.05176e-05 45.1004C3.05176e-05 44.1004 0.800024 43.2004 1.90002 43.2004C2.90002 43.2004 3.80005 44.0004 3.80005 45.1004C3.80005 46.1004 3.00002 47.0004 1.90002 47.0004C0.900024 47.0004 3.05176e-05 46.2004 3.05176e-05 45.1004Z" fill="#FF3D4F" fill-opacity="0.15"/>
<path d="M75.8 34.3004C75.8 33.3004 76.6 32.4004 77.7 32.4004C78.7 32.4004 79.6 33.2004 79.6 34.3004C79.6 35.4004 78.8 36.2004 77.7 36.2004C76.6 36.2004 75.8 35.3004 75.8 34.3004Z" fill="#FF3D4F" fill-opacity="0.15"/>
<path d="M65 34.3004C65 33.3004 65.8 32.4004 66.9 32.4004C68 32.4004 68.8 33.2004 68.8 34.3004C68.8 35.4004 68 36.2004 66.9 36.2004C65.8 36.2004 65 35.3004 65 34.3004Z" fill="#FF3D4F" fill-opacity="0.15"/>
<path d="M54.2 34.3004C54.2 33.3004 55 32.4004 56.1 32.4004C57.2 32.4004 58 33.2004 58 34.3004C58 35.4004 57.2 36.2004 56.1 36.2004C55 36.2004 54.2 35.3004 54.2 34.3004Z" fill="#FF3D4F" fill-opacity="0.15"/>
<path d="M43.3 34.3004C43.3 33.3004 44.1 32.4004 45.2 32.4004C46.2 32.4004 47.1 33.2004 47.1 34.3004C47.1 35.4004 46.3 36.2004 45.2 36.2004C44.2 36.2004 43.3 35.3004 43.3 34.3004Z" fill="#FF3D4F" fill-opacity="0.15"/>
<path d="M32.5 34.3004C32.5 33.3004 33.3 32.4004 34.4 32.4004C35.4 32.4004 36.3 33.2004 36.3 34.3004C36.3 35.4004 35.5 36.2004 34.4 36.2004C33.3 36.2004 32.5 35.3004 32.5 34.3004Z" fill="#FF3D4F" fill-opacity="0.15"/>
<path d="M21.7 34.3004C21.7 33.3004 22.5 32.4004 23.6 32.4004C24.6 32.4004 25.5 33.2004 25.5 34.3004C25.5 35.4004 24.7 36.2004 23.6 36.2004C22.5 36.2004 21.7 35.3004 21.7 34.3004Z" fill="#FF3D4F" fill-opacity="0.15"/>
<path d="M10.8999 34.3004C10.8999 33.3004 11.7 32.4004 12.8 32.4004C13.8 32.4004 14.7 33.2004 14.7 34.3004C14.7 35.4004 13.9 36.2004 12.8 36.2004C11.7 36.2004 10.8999 35.3004 10.8999 34.3004Z" fill="#FF3D4F" fill-opacity="0.15"/>
<path d="M3.05176e-05 34.3004C3.05176e-05 33.3004 0.800024 32.4004 1.90002 32.4004C2.90002 32.4004 3.80005 33.2004 3.80005 34.3004C3.80005 35.4004 3.00002 36.2004 1.90002 36.2004C0.900024 36.2004 3.05176e-05 35.3004 3.05176e-05 34.3004Z" fill="#FF3D4F" fill-opacity="0.15"/>
<path d="M75.8 23.5004C75.8 22.5004 76.6 21.6004 77.7 21.6004C78.7 21.6004 79.6 22.4004 79.6 23.5004C79.6 24.5004 78.8 25.4004 77.7 25.4004C76.6 25.4004 75.8 24.5004 75.8 23.5004Z" fill="#FF3D4F" fill-opacity="0.15"/>
<path d="M65 23.5004C65 22.5004 65.8 21.6004 66.9 21.6004C68 21.6004 68.8 22.4004 68.8 23.5004C68.8 24.5004 68 25.4004 66.9 25.4004C65.8 25.4004 65 24.5004 65 23.5004Z" fill="#FF3D4F" fill-opacity="0.15"/>
<path d="M54.2 23.5004C54.2 22.5004 55 21.6004 56.1 21.6004C57.2 21.6004 58 22.4004 58 23.5004C58 24.5004 57.2 25.4004 56.1 25.4004C55 25.4004 54.2 24.5004 54.2 23.5004Z" fill="#FF3D4F" fill-opacity="0.15"/>
<path d="M43.3 23.5004C43.3 22.5004 44.1 21.6004 45.2 21.6004C46.2 21.6004 47.1 22.4004 47.1 23.5004C47.1 24.5004 46.3 25.4004 45.2 25.4004C44.2 25.4004 43.3 24.5004 43.3 23.5004Z" fill="#FF3D4F" fill-opacity="0.15"/>
<path d="M32.5 23.5004C32.5 22.5004 33.3 21.6004 34.4 21.6004C35.4 21.6004 36.3 22.4004 36.3 23.5004C36.3 24.5004 35.5 25.4004 34.4 25.4004C33.3 25.4004 32.5 24.5004 32.5 23.5004Z" fill="#FF3D4F" fill-opacity="0.15"/>
<path d="M21.7 23.5004C21.7 22.5004 22.5 21.6004 23.6 21.6004C24.6 21.6004 25.5 22.4004 25.5 23.5004C25.5 24.5004 24.7 25.4004 23.6 25.4004C22.5 25.4004 21.7 24.5004 21.7 23.5004Z" fill="#FF3D4F" fill-opacity="0.15"/>
<path d="M10.8999 23.5004C10.8999 22.5004 11.7 21.6004 12.8 21.6004C13.8 21.6004 14.7 22.4004 14.7 23.5004C14.7 24.5004 13.9 25.4004 12.8 25.4004C11.7 25.4004 10.8999 24.5004 10.8999 23.5004Z" fill="#FF3D4F" fill-opacity="0.15"/>
<path d="M3.05176e-05 23.5004C3.05176e-05 22.5004 0.800024 21.6004 1.90002 21.6004C2.90002 21.6004 3.80005 22.4004 3.80005 23.5004C3.80005 24.5004 3.00002 25.4004 1.90002 25.4004C0.900024 25.4004 3.05176e-05 24.5004 3.05176e-05 23.5004Z" fill="#FF3D4F" fill-opacity="0.15"/>
<path d="M75.8 12.7003C75.8 11.7003 76.6 10.8003 77.7 10.8003C78.7 10.8003 79.6 11.6003 79.6 12.7003C79.6 13.7003 78.8 14.6003 77.7 14.6003C76.6 14.5003 75.8 13.7003 75.8 12.7003Z" fill="#FF3D4F" fill-opacity="0.15"/>
<path d="M65 12.7003C65 11.7003 65.8 10.8003 66.9 10.8003C68 10.8003 68.8 11.6003 68.8 12.7003C68.8 13.7003 68 14.6003 66.9 14.6003C65.8 14.6003 65 13.7003 65 12.7003Z" fill="#FF3D4F" fill-opacity="0.15"/>
<path d="M54.2 12.7003C54.2 11.7003 55 10.8003 56.1 10.8003C57.2 10.8003 58 11.6003 58 12.7003C58 13.7003 57.2 14.6003 56.1 14.6003C55 14.6003 54.2 13.7003 54.2 12.7003Z" fill="#FF3D4F" fill-opacity="0.15"/>
<path d="M43.3 12.7003C43.3 11.7003 44.1 10.8003 45.2 10.8003C46.2 10.8003 47.1 11.6003 47.1 12.7003C47.1 13.7003 46.3 14.6003 45.2 14.6003C44.2 14.5003 43.3 13.7003 43.3 12.7003Z" fill="#FF3D4F" fill-opacity="0.15"/>
<path d="M32.5 12.7003C32.5 11.7003 33.3 10.8003 34.4 10.8003C35.4 10.8003 36.3 11.6003 36.3 12.7003C36.3 13.7003 35.5 14.6003 34.4 14.6003C33.3 14.5003 32.5 13.7003 32.5 12.7003Z" fill="#FF3D4F" fill-opacity="0.15"/>
<path d="M21.7 12.7003C21.7 11.7003 22.5 10.8003 23.6 10.8003C24.6 10.8003 25.5 11.6003 25.5 12.7003C25.5 13.7003 24.7 14.6003 23.6 14.6003C22.5 14.5003 21.7 13.7003 21.7 12.7003Z" fill="#FF3D4F" fill-opacity="0.15"/>
<path d="M10.8999 12.7003C10.8999 11.7003 11.7 10.8003 12.8 10.8003C13.8 10.8003 14.7 11.6003 14.7 12.7003C14.7 13.7003 13.9 14.6003 12.8 14.6003C11.7 14.5003 10.8999 13.7003 10.8999 12.7003Z" fill="#FF3D4F" fill-opacity="0.15"/>
<path d="M3.05176e-05 12.7003C3.05176e-05 11.7003 0.800024 10.8003 1.90002 10.8003C2.90002 10.8003 3.80005 11.6003 3.80005 12.7003C3.80005 13.7003 3.00002 14.6003 1.90002 14.6003C0.900024 14.5003 3.05176e-05 13.7003 3.05176e-05 12.7003Z" fill="#FF3D4F" fill-opacity="0.15"/>
<path d="M75.8 1.9003C75.8 0.900299 76.6 0.000305176 77.7 0.000305176C78.7 0.000305176 79.6 0.800299 79.6 1.9003C79.6 3.0003 78.8 3.80029 77.7 3.80029C76.6 3.70029 75.8 2.9003 75.8 1.9003Z" fill="#FF3D4F" fill-opacity="0.15"/>
<path d="M65 1.9003C65 0.900299 65.8 0.000305176 66.9 0.000305176C68 0.000305176 68.8 0.800299 68.8 1.9003C68.8 3.0003 68 3.80029 66.9 3.80029C65.8 3.80029 65 2.9003 65 1.9003Z" fill="#FF3D4F" fill-opacity="0.15"/>
<path d="M54.2 1.9003C54.2 0.900299 55 0.000305176 56.1 0.000305176C57.2 0.000305176 58 0.800299 58 1.9003C58 3.0003 57.2 3.80029 56.1 3.80029C55 3.80029 54.2 2.9003 54.2 1.9003Z" fill="#FF3D4F" fill-opacity="0.15"/>
<path d="M43.3 1.9003C43.3 0.900299 44.1 0.000305176 45.2 0.000305176C46.2 0.000305176 47.1 0.800299 47.1 1.9003C47.1 3.0003 46.3 3.80029 45.2 3.80029C44.2 3.70029 43.3 2.9003 43.3 1.9003Z" fill="#FF3D4F" fill-opacity="0.15"/>
<path d="M32.5 1.9003C32.5 0.900299 33.3 0.000305176 34.4 0.000305176C35.4 0.000305176 36.3 0.800299 36.3 1.9003C36.3 3.0003 35.5 3.80029 34.4 3.80029C33.3 3.70029 32.5 2.9003 32.5 1.9003Z" fill="#FF3D4F" fill-opacity="0.15"/>
<path d="M21.7 1.9003C21.7 0.900299 22.5 0.000305176 23.6 0.000305176C24.6 0.000305176 25.5 0.800299 25.5 1.9003C25.5 3.0003 24.7 3.80029 23.6 3.80029C22.5 3.70029 21.7 2.9003 21.7 1.9003Z" fill="#FF3D4F" fill-opacity="0.15"/>
<path d="M10.8999 1.9003C10.8999 0.900299 11.7 0.000305176 12.8 0.000305176C13.8 0.000305176 14.7 0.800299 14.7 1.9003C14.7 3.0003 13.9 3.80029 12.8 3.80029C11.7 3.70029 10.8999 2.9003 10.8999 1.9003Z" fill="#FF3D4F" fill-opacity="0.15"/>
<path d="M3.05176e-05 1.9003C3.05176e-05 0.900299 0.800024 0.000305176 1.90002 0.000305176C2.90002 0.000305176 3.80005 0.800299 3.80005 1.9003C3.80005 3.0003 3.00002 3.80029 1.90002 3.80029C0.900024 3.70029 3.05176e-05 2.9003 3.05176e-05 1.9003Z" fill="#FF3D4F" fill-opacity="0.15"/>
<path d="M401.098 255.2C401.098 254.2 401.898 253.3 402.998 253.3C403.998 253.3 404.898 254.1 404.898 255.2C404.898 256.2 404.098 257.1 402.998 257.1C401.898 257.1 401.098 256.3 401.098 255.2Z" fill="#FF3D4F" fill-opacity="0.15"/>
<path d="M390.198 255.2C390.198 254.2 390.998 253.3 392.098 253.3C393.098 253.3 393.998 254.1 393.998 255.2C393.998 256.2 393.198 257.1 392.098 257.1C391.098 257.1 390.198 256.3 390.198 255.2Z" fill="#FF3D4F" fill-opacity="0.15"/>
<path d="M379.398 255.2C379.398 254.2 380.198 253.3 381.298 253.3C382.298 253.3 383.198 254.1 383.198 255.2C383.198 256.2 382.398 257.1 381.298 257.1C380.298 257.1 379.398 256.3 379.398 255.2Z" fill="#FF3D4F" fill-opacity="0.15"/>
<path d="M368.598 255.2C368.598 254.2 369.398 253.3 370.498 253.3C371.598 253.3 372.398 254.1 372.398 255.2C372.398 256.2 371.598 257.1 370.498 257.1C369.398 257.1 368.598 256.3 368.598 255.2Z" fill="#FF3D4F" fill-opacity="0.15"/>
<path d="M357.798 255.2C357.798 254.2 358.598 253.3 359.698 253.3C360.798 253.3 361.598 254.1 361.598 255.2C361.598 256.2 360.798 257.1 359.698 257.1C358.598 257.1 357.798 256.3 357.798 255.2Z" fill="#FF3D4F" fill-opacity="0.15"/>
<path d="M346.998 255.2C346.998 254.2 347.798 253.3 348.898 253.3C349.898 253.3 350.798 254.1 350.798 255.2C350.798 256.2 349.998 257.1 348.898 257.1C347.798 257.1 346.998 256.3 346.998 255.2Z" fill="#FF3D4F" fill-opacity="0.15"/>
<path d="M401.098 244.4C401.098 243.4 401.898 242.5 402.998 242.5C403.998 242.5 404.898 243.3 404.898 244.4C404.898 245.5 404.098 246.3 402.998 246.3C401.898 246.3 401.098 245.4 401.098 244.4Z" fill="#FF3D4F" fill-opacity="0.15"/>
<path d="M390.198 244.4C390.198 243.4 390.998 242.5 392.098 242.5C393.098 242.5 393.998 243.3 393.998 244.4C393.998 245.5 393.198 246.3 392.098 246.3C391.098 246.3 390.198 245.4 390.198 244.4Z" fill="#FF3D4F" fill-opacity="0.15"/>
<path d="M379.398 244.4C379.398 243.4 380.198 242.5 381.298 242.5C382.298 242.5 383.198 243.3 383.198 244.4C383.198 245.5 382.398 246.3 381.298 246.3C380.298 246.3 379.398 245.4 379.398 244.4Z" fill="#FF3D4F" fill-opacity="0.15"/>
<path d="M368.598 244.4C368.598 243.4 369.398 242.5 370.498 242.5C371.598 242.5 372.398 243.3 372.398 244.4C372.398 245.5 371.598 246.3 370.498 246.3C369.398 246.3 368.598 245.4 368.598 244.4Z" fill="#FF3D4F" fill-opacity="0.15"/>
<path d="M357.798 244.4C357.798 243.4 358.598 242.5 359.698 242.5C360.798 242.5 361.598 243.3 361.598 244.4C361.598 245.5 360.798 246.3 359.698 246.3C358.598 246.3 357.798 245.4 357.798 244.4Z" fill="#FF3D4F" fill-opacity="0.15"/>
<path d="M346.998 244.4C346.998 243.4 347.798 242.5 348.898 242.5C349.898 242.5 350.798 243.3 350.798 244.4C350.798 245.5 349.998 246.3 348.898 246.3C347.798 246.3 346.998 245.4 346.998 244.4Z" fill="#FF3D4F" fill-opacity="0.15"/>
<path d="M401.098 233.6C401.098 232.6 401.898 231.7 402.998 231.7C403.998 231.7 404.898 232.5 404.898 233.6C404.898 234.6 404.098 235.5 402.998 235.5C401.898 235.4 401.098 234.6 401.098 233.6Z" fill="#FF3D4F" fill-opacity="0.15"/>
<path d="M390.198 233.6C390.198 232.6 390.998 231.7 392.098 231.7C393.098 231.7 393.998 232.5 393.998 233.6C393.998 234.6 393.198 235.5 392.098 235.5C391.098 235.4 390.198 234.6 390.198 233.6Z" fill="#FF3D4F" fill-opacity="0.15"/>
<path d="M379.398 233.6C379.398 232.6 380.198 231.7 381.298 231.7C382.298 231.7 383.198 232.5 383.198 233.6C383.198 234.6 382.398 235.5 381.298 235.5C380.298 235.4 379.398 234.6 379.398 233.6Z" fill="#FF3D4F" fill-opacity="0.15"/>
<path d="M368.598 233.6C368.598 232.6 369.398 231.7 370.498 231.7C371.598 231.7 372.398 232.5 372.398 233.6C372.398 234.6 371.598 235.5 370.498 235.5C369.398 235.5 368.598 234.6 368.598 233.6Z" fill="#FF3D4F" fill-opacity="0.15"/>
<path d="M357.798 233.6C357.798 232.6 358.598 231.7 359.698 231.7C360.798 231.7 361.598 232.5 361.598 233.6C361.598 234.6 360.798 235.5 359.698 235.5C358.598 235.5 357.798 234.6 357.798 233.6Z" fill="#FF3D4F" fill-opacity="0.15"/>
<path d="M346.998 233.6C346.998 232.6 347.798 231.7 348.898 231.7C349.898 231.7 350.798 232.5 350.798 233.6C350.798 234.6 349.998 235.5 348.898 235.5C347.798 235.4 346.998 234.6 346.998 233.6Z" fill="#FF3D4F" fill-opacity="0.15"/>
<path d="M401.098 222.8C401.098 221.8 401.898 220.9 402.998 220.9C403.998 220.9 404.898 221.7 404.898 222.8C404.898 223.8 404.098 224.7 402.998 224.7C401.898 224.6 401.098 223.8 401.098 222.8Z" fill="#FF3D4F" fill-opacity="0.15"/>
<path d="M390.198 222.8C390.198 221.8 390.998 220.9 392.098 220.9C393.098 220.9 393.998 221.7 393.998 222.8C393.998 223.8 393.198 224.7 392.098 224.7C391.098 224.6 390.198 223.8 390.198 222.8Z" fill="#FF3D4F" fill-opacity="0.15"/>
<path d="M379.398 222.8C379.398 221.8 380.198 220.9 381.298 220.9C382.298 220.9 383.198 221.7 383.198 222.8C383.198 223.8 382.398 224.7 381.298 224.7C380.298 224.6 379.398 223.8 379.398 222.8Z" fill="#FF3D4F" fill-opacity="0.15"/>
<path d="M368.598 222.8C368.598 221.8 369.398 220.9 370.498 220.9C371.598 220.9 372.398 221.7 372.398 222.8C372.398 223.8 371.598 224.7 370.498 224.7C369.398 224.7 368.598 223.8 368.598 222.8Z" fill="#FF3D4F" fill-opacity="0.15"/>
<path d="M357.798 222.8C357.798 221.8 358.598 220.9 359.698 220.9C360.798 220.9 361.598 221.7 361.598 222.8C361.598 223.8 360.798 224.7 359.698 224.7C358.598 224.7 357.798 223.8 357.798 222.8Z" fill="#FF3D4F" fill-opacity="0.15"/>
<path d="M346.998 222.8C346.998 221.8 347.798 220.9 348.898 220.9C349.898 220.9 350.798 221.7 350.798 222.8C350.798 223.8 349.998 224.7 348.898 224.7C347.798 224.6 346.998 223.8 346.998 222.8Z" fill="#FF3D4F" fill-opacity="0.15"/>
<path d="M401.098 211.9C401.098 210.9 401.898 210 402.998 210C403.998 210 404.898 210.8 404.898 211.9C404.898 212.9 404.098 213.8 402.998 213.8C401.898 213.8 401.098 213 401.098 211.9Z" fill="#FF3D4F" fill-opacity="0.15"/>
<path d="M390.198 211.9C390.198 210.9 390.998 210 392.098 210C393.098 210 393.998 210.8 393.998 211.9C393.998 212.9 393.198 213.8 392.098 213.8C391.098 213.8 390.198 213 390.198 211.9Z" fill="#FF3D4F" fill-opacity="0.15"/>
<path d="M379.398 211.9C379.398 210.9 380.198 210 381.298 210C382.298 210 383.198 210.8 383.198 211.9C383.198 212.9 382.398 213.8 381.298 213.8C380.298 213.8 379.398 213 379.398 211.9Z" fill="#FF3D4F" fill-opacity="0.15"/>
<path d="M368.598 211.9C368.598 210.9 369.398 210 370.498 210C371.598 210 372.398 210.8 372.398 211.9C372.398 212.9 371.598 213.8 370.498 213.8C369.398 213.8 368.598 213 368.598 211.9Z" fill="#FF3D4F" fill-opacity="0.15"/>
<path d="M357.798 211.9C357.798 210.9 358.598 210 359.698 210C360.798 210 361.598 210.8 361.598 211.9C361.598 212.9 360.798 213.8 359.698 213.8C358.598 213.8 357.798 213 357.798 211.9Z" fill="#FF3D4F" fill-opacity="0.15"/>
<path d="M346.998 211.9C346.998 210.9 347.798 210 348.898 210C349.898 210 350.798 210.8 350.798 211.9C350.798 212.9 349.998 213.8 348.898 213.8C347.798 213.8 346.998 213 346.998 211.9Z" fill="#FF3D4F" fill-opacity="0.15"/>
<path d="M25 246.4L31.8 257.3L37.9 246L25 246.4Z" stroke="#573FD2" stroke-opacity="0.15" stroke-width="2" stroke-miterlimit="10" stroke-linecap="round" stroke-linejoin="round"/>
<path d="M213 30.5004L219.9 41.4004L225.9 30.0004L213 30.5004Z" stroke="#573FD2" stroke-opacity="0.15" stroke-width="2" stroke-miterlimit="10" stroke-linecap="round" stroke-linejoin="round"/>
<path d="M709.1 113.8C708.1 113.8 707.2 113 707.2 111.9C707.2 110.9 708 110 709.1 110C710.2 110 711 110.8 711 111.9C711 112.9 710.2 113.8 709.1 113.8Z" fill="#573FD2" fill-opacity="0.15"/>
<path d="M709.1 124.6C708.1 124.6 707.2 123.8 707.2 122.7C707.2 121.7 708 120.8 709.1 120.8C710.2 120.8 711 121.6 711 122.7C711 123.7 710.2 124.6 709.1 124.6Z" fill="#573FD2" fill-opacity="0.15"/>
<path d="M709.1 135.4C708.1 135.4 707.2 134.6 707.2 133.5C707.2 132.5 708 131.6 709.1 131.6C710.2 131.6 711 132.4 711 133.5C711 134.6 710.2 135.4 709.1 135.4Z" fill="#573FD2" fill-opacity="0.15"/>
<path d="M709.1 146.2C708.1 146.2 707.2 145.4 707.2 144.3C707.2 143.3 708 142.4 709.1 142.4C710.2 142.4 711 143.2 711 144.3C711 145.4 710.2 146.2 709.1 146.2Z" fill="#573FD2" fill-opacity="0.15"/>
<path d="M709.1 157C708.1 157 707.2 156.2 707.2 155.1C707.2 154.1 708 153.2 709.1 153.2C710.2 153.2 711 154 711 155.1C711 156.2 710.2 157 709.1 157Z" fill="#573FD2" fill-opacity="0.15"/>
<path d="M709.1 167.9C708.1 167.9 707.2 167.1 707.2 166C707.2 165 708 164.1 709.1 164.1C710.2 164.1 711 164.9 711 166C711 167 710.2 167.9 709.1 167.9Z" fill="#573FD2" fill-opacity="0.15"/>
<path d="M709.1 178.7C708.1 178.7 707.2 177.9 707.2 176.8C707.2 175.8 708 174.9 709.1 174.9C710.2 174.9 711 175.7 711 176.8C711 177.9 710.2 178.7 709.1 178.7Z" fill="#573FD2" fill-opacity="0.15"/>
<path d="M709.1 189.5C708.1 189.5 707.2 188.7 707.2 187.6C707.2 186.6 708 185.7 709.1 185.7C710.2 185.7 711 186.5 711 187.6C711 188.7 710.2 189.5 709.1 189.5Z" fill="#573FD2" fill-opacity="0.15"/>
<path d="M698.3 113.8C697.3 113.8 696.4 113 696.4 111.9C696.4 110.9 697.2 110 698.3 110C699.3 110 700.2 110.8 700.2 111.9C700.2 112.9 699.3 113.8 698.3 113.8Z" fill="#573FD2" fill-opacity="0.15"/>
<path d="M698.3 124.6C697.3 124.6 696.4 123.8 696.4 122.7C696.4 121.7 697.2 120.8 698.3 120.8C699.3 120.8 700.2 121.6 700.2 122.7C700.2 123.7 699.3 124.6 698.3 124.6Z" fill="#573FD2" fill-opacity="0.15"/>
<path d="M698.3 135.4C697.3 135.4 696.4 134.6 696.4 133.5C696.4 132.5 697.2 131.6 698.3 131.6C699.3 131.6 700.2 132.4 700.2 133.5C700.2 134.6 699.3 135.4 698.3 135.4Z" fill="#573FD2" fill-opacity="0.15"/>
<path d="M698.3 146.2C697.3 146.2 696.4 145.4 696.4 144.3C696.4 143.3 697.2 142.4 698.3 142.4C699.3 142.4 700.2 143.2 700.2 144.3C700.2 145.4 699.3 146.2 698.3 146.2Z" fill="#573FD2" fill-opacity="0.15"/>
<path d="M698.3 157C697.3 157 696.4 156.2 696.4 155.1C696.4 154.1 697.2 153.2 698.3 153.2C699.3 153.2 700.2 154 700.2 155.1C700.2 156.2 699.3 157 698.3 157Z" fill="#573FD2" fill-opacity="0.15"/>
<path d="M698.3 167.9C697.3 167.9 696.4 167.1 696.4 166C696.4 165 697.2 164.1 698.3 164.1C699.3 164.1 700.2 164.9 700.2 166C700.2 167 699.3 167.9 698.3 167.9Z" fill="#573FD2" fill-opacity="0.15"/>
<path d="M698.3 178.7C697.3 178.7 696.4 177.9 696.4 176.8C696.4 175.8 697.2 174.9 698.3 174.9C699.3 174.9 700.2 175.7 700.2 176.8C700.2 177.9 699.3 178.7 698.3 178.7Z" fill="#573FD2" fill-opacity="0.15"/>
<path d="M698.3 189.5C697.3 189.5 696.4 188.7 696.4 187.6C696.4 186.6 697.2 185.7 698.3 185.7C699.3 185.7 700.2 186.5 700.2 187.6C700.2 188.7 699.3 189.5 698.3 189.5Z" fill="#573FD2" fill-opacity="0.15"/>
<path d="M687.5 113.8C686.5 113.8 685.6 113 685.6 111.9C685.6 110.9 686.4 110 687.5 110C688.5 110 689.4 110.8 689.4 111.9C689.4 112.9 688.5 113.8 687.5 113.8Z" fill="#573FD2" fill-opacity="0.15"/>
<path d="M687.5 124.6C686.5 124.6 685.6 123.8 685.6 122.7C685.6 121.7 686.4 120.8 687.5 120.8C688.5 120.8 689.4 121.6 689.4 122.7C689.4 123.7 688.5 124.6 687.5 124.6Z" fill="#573FD2" fill-opacity="0.15"/>
<path d="M687.5 135.4C686.5 135.4 685.6 134.6 685.6 133.5C685.6 132.5 686.4 131.6 687.5 131.6C688.5 131.6 689.4 132.4 689.4 133.5C689.4 134.6 688.5 135.4 687.5 135.4Z" fill="#573FD2" fill-opacity="0.15"/>
<path d="M687.5 146.2C686.5 146.2 685.6 145.4 685.6 144.3C685.6 143.3 686.4 142.4 687.5 142.4C688.5 142.4 689.4 143.2 689.4 144.3C689.4 145.4 688.5 146.2 687.5 146.2Z" fill="#573FD2" fill-opacity="0.15"/>
<path d="M687.5 157C686.5 157 685.6 156.2 685.6 155.1C685.6 154.1 686.4 153.2 687.5 153.2C688.5 153.2 689.4 154 689.4 155.1C689.4 156.2 688.5 157 687.5 157Z" fill="#573FD2" fill-opacity="0.15"/>
<path d="M687.5 167.9C686.5 167.9 685.6 167.1 685.6 166C685.6 165 686.4 164.1 687.5 164.1C688.5 164.1 689.4 164.9 689.4 166C689.4 167 688.5 167.9 687.5 167.9Z" fill="#573FD2" fill-opacity="0.15"/>
<path d="M687.5 178.7C686.5 178.7 685.6 177.9 685.6 176.8C685.6 175.8 686.4 174.9 687.5 174.9C688.5 174.9 689.4 175.7 689.4 176.8C689.4 177.9 688.5 178.7 687.5 178.7Z" fill="#573FD2" fill-opacity="0.15"/>
<path d="M687.5 189.5C686.5 189.5 685.6 188.7 685.6 187.6C685.6 186.6 686.4 185.7 687.5 185.7C688.5 185.7 689.4 186.5 689.4 187.6C689.4 188.7 688.5 189.5 687.5 189.5Z" fill="#573FD2" fill-opacity="0.15"/>
<path d="M676.7 113.8C675.7 113.8 674.8 113 674.8 111.9C674.8 110.9 675.6 110 676.7 110C677.8 110 678.6 110.8 678.6 111.9C678.5 112.9 677.7 113.8 676.7 113.8Z" fill="#573FD2" fill-opacity="0.15"/>
<path d="M676.7 124.6C675.7 124.6 674.8 123.8 674.8 122.7C674.8 121.7 675.6 120.8 676.7 120.8C677.8 120.8 678.6 121.6 678.6 122.7C678.5 123.7 677.7 124.6 676.7 124.6Z" fill="#573FD2" fill-opacity="0.15"/>
<path d="M676.7 135.4C675.7 135.4 674.8 134.6 674.8 133.5C674.8 132.5 675.6 131.6 676.7 131.6C677.8 131.6 678.6 132.4 678.6 133.5C678.5 134.6 677.7 135.4 676.7 135.4Z" fill="#573FD2" fill-opacity="0.15"/>
<path d="M676.7 146.2C675.7 146.2 674.8 145.4 674.8 144.3C674.8 143.3 675.6 142.4 676.7 142.4C677.8 142.4 678.6 143.2 678.6 144.3C678.5 145.4 677.7 146.2 676.7 146.2Z" fill="#573FD2" fill-opacity="0.15"/>
<path d="M676.7 157C675.7 157 674.8 156.2 674.8 155.1C674.8 154.1 675.6 153.2 676.7 153.2C677.8 153.2 678.6 154 678.6 155.1C678.5 156.2 677.7 157 676.7 157Z" fill="#573FD2" fill-opacity="0.15"/>
<path d="M676.7 167.9C675.7 167.9 674.8 167.1 674.8 166C674.8 165 675.6 164.1 676.7 164.1C677.8 164.1 678.6 164.9 678.6 166C678.5 167 677.7 167.9 676.7 167.9Z" fill="#573FD2" fill-opacity="0.15"/>
<path d="M676.7 178.7C675.7 178.7 674.8 177.9 674.8 176.8C674.8 175.8 675.6 174.9 676.7 174.9C677.8 174.9 678.6 175.7 678.6 176.8C678.5 177.9 677.7 178.7 676.7 178.7Z" fill="#573FD2" fill-opacity="0.15"/>
<path d="M676.7 189.5C675.7 189.5 674.8 188.7 674.8 187.6C674.8 186.6 675.6 185.7 676.7 185.7C677.8 185.7 678.6 186.5 678.6 187.6C678.5 188.7 677.7 189.5 676.7 189.5Z" fill="#573FD2" fill-opacity="0.15"/>
<path d="M665.9 113.8C664.9 113.8 664 113 664 111.9C664 110.9 664.8 110 665.9 110C666.9 110 667.8 110.8 667.8 111.9C667.7 112.9 666.9 113.8 665.9 113.8Z" fill="#573FD2" fill-opacity="0.15"/>
<path d="M665.9 124.6C664.9 124.6 664 123.8 664 122.7C664 121.7 664.8 120.8 665.9 120.8C666.9 120.8 667.8 121.6 667.8 122.7C667.7 123.7 666.9 124.6 665.9 124.6Z" fill="#573FD2" fill-opacity="0.15"/>
<path d="M665.9 135.4C664.9 135.4 664 134.6 664 133.5C664 132.5 664.8 131.6 665.9 131.6C666.9 131.6 667.8 132.4 667.8 133.5C667.7 134.6 666.9 135.4 665.9 135.4Z" fill="#573FD2" fill-opacity="0.15"/>
<path d="M665.9 146.2C664.9 146.2 664 145.4 664 144.3C664 143.3 664.8 142.4 665.9 142.4C666.9 142.4 667.8 143.2 667.8 144.3C667.7 145.4 666.9 146.2 665.9 146.2Z" fill="#573FD2" fill-opacity="0.15"/>
<path d="M665.9 157C664.9 157 664 156.2 664 155.1C664 154.1 664.8 153.2 665.9 153.2C666.9 153.2 667.8 154 667.8 155.1C667.7 156.2 666.9 157 665.9 157Z" fill="#573FD2" fill-opacity="0.15"/>
<path d="M665.9 167.9C664.9 167.9 664 167.1 664 166C664 165 664.8 164.1 665.9 164.1C666.9 164.1 667.8 164.9 667.8 166C667.7 167 666.9 167.9 665.9 167.9Z" fill="#573FD2" fill-opacity="0.15"/>
<path d="M665.9 178.7C664.9 178.7 664 177.9 664 176.8C664 175.8 664.8 174.9 665.9 174.9C666.9 174.9 667.8 175.7 667.8 176.8C667.7 177.9 666.9 178.7 665.9 178.7Z" fill="#573FD2" fill-opacity="0.15"/>
<path d="M665.9 189.5C664.9 189.5 664 188.7 664 187.6C664 186.6 664.8 185.7 665.9 185.7C666.9 185.7 667.8 186.5 667.8 187.6C667.7 188.7 666.9 189.5 665.9 189.5Z" fill="#573FD2" fill-opacity="0.15"/>
</svg>
