<svg width="479" height="364" viewBox="0 0 479 364" fill="none" xmlns="http://www.w3.org/2000/svg">
<path d="M245 134.5C247.927 134.5 250.3 132.127 250.3 129.2C250.3 126.273 247.927 123.9 245 123.9C242.073 123.9 239.7 126.273 239.7 129.2C239.7 132.127 242.073 134.5 245 134.5Z" stroke="#FF3D4F" stroke-opacity="0.15" stroke-width="2" stroke-miterlimit="10" stroke-linecap="round" stroke-linejoin="round"/>
<path d="M406.3 138.1C406.3 140.6 404.3 142.6 401.8 142.6C399.3 142.6 397.3 140.6 397.3 138.1C397.3 135.6 399.3 133.6 401.8 133.6C404.3 133.6 406.3 135.7 406.3 138.1Z" stroke="#FF3D4F" stroke-opacity="0.15" stroke-width="2" stroke-miterlimit="10" stroke-linecap="round" stroke-linejoin="round"/>
<path d="M407.2 224.3C407.2 227.2 404.8 229.6 401.9 229.6C399 229.6 396.6 227.2 396.6 224.3C396.6 221.4 399 219 401.9 219C404.8 219 407.2 221.4 407.2 224.3Z" stroke="#FF3D4F" stroke-opacity="0.15" stroke-width="2" stroke-miterlimit="10" stroke-linecap="round" stroke-linejoin="round"/>
<path d="M11.6 347.7C11.6 350.6 9.19999 353 6.29999 353C3.39999 353 1 350.6 1 347.7C1 344.8 3.39999 342.4 6.29999 342.4C9.19999 342.3 11.6 344.7 11.6 347.7Z" stroke="#FF3D4F" stroke-opacity="0.15" stroke-width="2" stroke-miterlimit="10" stroke-linecap="round" stroke-linejoin="round"/>
<path d="M308.9 353C311.827 353 314.2 350.627 314.2 347.7C314.2 344.773 311.827 342.4 308.9 342.4C305.973 342.4 303.6 344.773 303.6 347.7C303.6 350.627 305.973 353 308.9 353Z" stroke="#FF3D4F" stroke-opacity="0.15" stroke-width="2" stroke-miterlimit="10" stroke-linecap="round" stroke-linejoin="round"/>
<path d="M278.3 98.2C281.9 98.2 281.9 103.5 285.5 103.5C289.1 103.5 289.1 98.2 292.7 98.2C296.3 98.2 296.3 103.5 299.9 103.5C303.5 103.5 303.5 98.2 307.1 98.2C310.7 98.2 310.7 103.5 314.3 103.5C317.9 103.5 317.9 98.2 321.5 98.2C325.1 98.2 325.1 103.5 328.7 103.5" stroke="#FF3D4F" stroke-opacity="0.15" stroke-width="2" stroke-miterlimit="10" stroke-linecap="round" stroke-linejoin="round"/>
<path d="M410.6 276.8C414.2 276.8 414.2 282.1 417.8 282.1C421.4 282.1 421.4 276.8 425 276.8C428.6 276.8 428.6 282.1 432.2 282.1C435.8 282.1 435.8 276.8 439.4 276.8C443 276.8 443 282.1 446.6 282.1C450.2 282.1 450.2 276.8 453.8 276.8C457.4 276.8 457.4 282.1 461 282.1" stroke="#FF3D4F" stroke-opacity="0.15" stroke-width="2" stroke-miterlimit="10" stroke-linecap="round" stroke-linejoin="round"/>
<path d="M72.3 357.6C75.9 357.6 75.9 362.9 79.5 362.9C83.1 362.9 83.1 357.6 86.7 357.6C90.3 357.6 90.3 362.9 93.9 362.9C97.5 362.9 97.5 357.6 101.1 357.6C104.7 357.6 104.7 362.9 108.3 362.9C111.9 362.9 111.9 357.6 115.5 357.6C119.1 357.6 119.1 362.9 122.7 362.9" stroke="#FF3D4F" stroke-opacity="0.15" stroke-width="2" stroke-miterlimit="10" stroke-linecap="round" stroke-linejoin="round"/>
<path d="M328.1 169L334.9 175.8" stroke="#FF3D4F" stroke-opacity="0.15" stroke-width="2" stroke-miterlimit="10" stroke-linecap="round" stroke-linejoin="round"/>
<path d="M328.1 175.8L334.9 169" stroke="#FF3D4F" stroke-opacity="0.15" stroke-width="2" stroke-miterlimit="10" stroke-linecap="round" stroke-linejoin="round"/>
<path d="M191.9 88.4L198.8 95.2" stroke="#FF3D4F" stroke-opacity="0.15" stroke-width="2" stroke-miterlimit="10" stroke-linecap="round" stroke-linejoin="round"/>
<path d="M191.9 95.2L198.8 88.4" stroke="#FF3D4F" stroke-opacity="0.15" stroke-width="2" stroke-miterlimit="10" stroke-linecap="round" stroke-linejoin="round"/>
<path d="M132.9 321.2L139.8 328" stroke="#FF3D4F" stroke-opacity="0.15" stroke-width="2" stroke-miterlimit="10" stroke-linecap="round" stroke-linejoin="round"/>
<path d="M132.9 328L139.8 321.2" stroke="#FF3D4F" stroke-opacity="0.15" stroke-width="2" stroke-miterlimit="10" stroke-linecap="round" stroke-linejoin="round"/>
<path d="M173.7 318.9C173.7 319.9 172.9 320.8 171.8 320.8C170.8 320.8 169.9 320 169.9 318.9C169.9 317.9 170.7 317 171.8 317C172.9 317 173.7 317.8 173.7 318.9Z" fill="#FF3D4F" fill-opacity="0.15"/>
<path d="M184.5 318.9C184.5 319.9 183.7 320.8 182.6 320.8C181.5 320.8 180.7 320 180.7 318.9C180.7 317.9 181.5 317 182.6 317C183.7 317 184.5 317.8 184.5 318.9Z" fill="#FF3D4F" fill-opacity="0.15"/>
<path d="M195.3 318.9C195.3 319.9 194.5 320.8 193.4 320.8C192.3 320.8 191.5 320 191.5 318.9C191.5 317.9 192.3 317 193.4 317C194.5 317 195.3 317.8 195.3 318.9Z" fill="#FF3D4F" fill-opacity="0.15"/>
<path d="M206.2 318.9C206.2 319.9 205.4 320.8 204.3 320.8C203.3 320.8 202.4 320 202.4 318.9C202.4 317.9 203.2 317 204.3 317C205.3 317 206.2 317.8 206.2 318.9Z" fill="#FF3D4F" fill-opacity="0.15"/>
<path d="M217 318.9C217 319.9 216.2 320.8 215.1 320.8C214.1 320.8 213.2 320 213.2 318.9C213.2 317.9 214 317 215.1 317C216.2 317 217 317.8 217 318.9Z" fill="#FF3D4F" fill-opacity="0.15"/>
<path d="M227.8 318.9C227.8 319.9 227 320.8 225.9 320.8C224.9 320.8 224 320 224 318.9C224 317.9 224.8 317 225.9 317C227 317 227.8 317.8 227.8 318.9Z" fill="#FF3D4F" fill-opacity="0.15"/>
<path d="M238.6 318.9C238.6 319.9 237.8 320.8 236.7 320.8C235.7 320.8 234.8 320 234.8 318.9C234.8 317.9 235.6 317 236.7 317C237.8 317 238.6 317.8 238.6 318.9Z" fill="#FF3D4F" fill-opacity="0.15"/>
<path d="M249.5 318.9C249.5 319.9 248.7 320.8 247.6 320.8C246.6 320.8 245.7 320 245.7 318.9C245.7 317.9 246.5 317 247.6 317C248.6 317 249.5 317.8 249.5 318.9Z" fill="#FF3D4F" fill-opacity="0.15"/>
<path d="M173.7 329.7C173.7 330.7 172.9 331.6 171.8 331.6C170.8 331.6 169.9 330.8 169.9 329.7C169.9 328.6 170.7 327.8 171.8 327.8C172.9 327.8 173.7 328.7 173.7 329.7Z" fill="#FF3D4F" fill-opacity="0.15"/>
<path d="M184.5 329.7C184.5 330.7 183.7 331.6 182.6 331.6C181.5 331.6 180.7 330.8 180.7 329.7C180.7 328.6 181.5 327.8 182.6 327.8C183.7 327.8 184.5 328.7 184.5 329.7Z" fill="#FF3D4F" fill-opacity="0.15"/>
<path d="M195.3 329.7C195.3 330.7 194.5 331.6 193.4 331.6C192.3 331.6 191.5 330.8 191.5 329.7C191.5 328.6 192.3 327.8 193.4 327.8C194.5 327.8 195.3 328.7 195.3 329.7Z" fill="#FF3D4F" fill-opacity="0.15"/>
<path d="M206.2 329.7C206.2 330.7 205.4 331.6 204.3 331.6C203.3 331.6 202.4 330.8 202.4 329.7C202.4 328.6 203.2 327.8 204.3 327.8C205.3 327.8 206.2 328.7 206.2 329.7Z" fill="#FF3D4F" fill-opacity="0.15"/>
<path d="M217 329.7C217 330.7 216.2 331.6 215.1 331.6C214.1 331.6 213.2 330.8 213.2 329.7C213.2 328.6 214 327.8 215.1 327.8C216.2 327.8 217 328.7 217 329.7Z" fill="#FF3D4F" fill-opacity="0.15"/>
<path d="M227.8 329.7C227.8 330.7 227 331.6 225.9 331.6C224.9 331.6 224 330.8 224 329.7C224 328.6 224.8 327.8 225.9 327.8C227 327.8 227.8 328.7 227.8 329.7Z" fill="#FF3D4F" fill-opacity="0.15"/>
<path d="M238.6 329.7C238.6 330.7 237.8 331.6 236.7 331.6C235.7 331.6 234.8 330.8 234.8 329.7C234.8 328.6 235.6 327.8 236.7 327.8C237.8 327.8 238.6 328.7 238.6 329.7Z" fill="#FF3D4F" fill-opacity="0.15"/>
<path d="M249.5 329.7C249.5 330.7 248.7 331.6 247.6 331.6C246.6 331.6 245.7 330.8 245.7 329.7C245.7 328.6 246.5 327.8 247.6 327.8C248.6 327.8 249.5 328.7 249.5 329.7Z" fill="#FF3D4F" fill-opacity="0.15"/>
<path d="M173.7 340.5C173.7 341.5 172.9 342.4 171.8 342.4C170.8 342.4 169.9 341.6 169.9 340.5C169.9 339.5 170.7 338.6 171.8 338.6C172.9 338.6 173.7 339.5 173.7 340.5Z" fill="#FF3D4F" fill-opacity="0.15"/>
<path d="M184.5 340.5C184.5 341.5 183.7 342.4 182.6 342.4C181.5 342.4 180.7 341.6 180.7 340.5C180.7 339.5 181.5 338.6 182.6 338.6C183.7 338.6 184.5 339.5 184.5 340.5Z" fill="#FF3D4F" fill-opacity="0.15"/>
<path d="M195.3 340.5C195.3 341.5 194.5 342.4 193.4 342.4C192.3 342.4 191.5 341.6 191.5 340.5C191.5 339.5 192.3 338.6 193.4 338.6C194.5 338.6 195.3 339.5 195.3 340.5Z" fill="#FF3D4F" fill-opacity="0.15"/>
<path d="M206.2 340.5C206.2 341.5 205.4 342.4 204.3 342.4C203.3 342.4 202.4 341.6 202.4 340.5C202.4 339.5 203.2 338.6 204.3 338.6C205.3 338.6 206.2 339.5 206.2 340.5Z" fill="#FF3D4F" fill-opacity="0.15"/>
<path d="M217 340.5C217 341.5 216.2 342.4 215.1 342.4C214.1 342.4 213.2 341.6 213.2 340.5C213.2 339.5 214 338.6 215.1 338.6C216.2 338.6 217 339.5 217 340.5Z" fill="#FF3D4F" fill-opacity="0.15"/>
<path d="M227.8 340.5C227.8 341.5 227 342.4 225.9 342.4C224.9 342.4 224 341.6 224 340.5C224 339.5 224.8 338.6 225.9 338.6C227 338.6 227.8 339.5 227.8 340.5Z" fill="#FF3D4F" fill-opacity="0.15"/>
<path d="M238.6 340.5C238.6 341.5 237.8 342.4 236.7 342.4C235.7 342.4 234.8 341.6 234.8 340.5C234.8 339.5 235.6 338.6 236.7 338.6C237.8 338.6 238.6 339.5 238.6 340.5Z" fill="#FF3D4F" fill-opacity="0.15"/>
<path d="M249.5 340.5C249.5 341.5 248.7 342.4 247.6 342.4C246.6 342.4 245.7 341.6 245.7 340.5C245.7 339.5 246.5 338.6 247.6 338.6C248.6 338.6 249.5 339.5 249.5 340.5Z" fill="#FF3D4F" fill-opacity="0.15"/>
<path d="M173.7 351.3C173.7 352.3 172.9 353.2 171.8 353.2C170.8 353.2 169.9 352.4 169.9 351.3C169.9 350.3 170.7 349.4 171.8 349.4C172.9 349.5 173.7 350.3 173.7 351.3Z" fill="#FF3D4F" fill-opacity="0.15"/>
<path d="M184.5 351.3C184.5 352.3 183.7 353.2 182.6 353.2C181.5 353.2 180.7 352.4 180.7 351.3C180.7 350.3 181.5 349.4 182.6 349.4C183.7 349.4 184.5 350.3 184.5 351.3Z" fill="#FF3D4F" fill-opacity="0.15"/>
<path d="M195.3 351.3C195.3 352.3 194.5 353.2 193.4 353.2C192.3 353.2 191.5 352.4 191.5 351.3C191.5 350.3 192.3 349.4 193.4 349.4C194.5 349.4 195.3 350.3 195.3 351.3Z" fill="#FF3D4F" fill-opacity="0.15"/>
<path d="M206.2 351.3C206.2 352.3 205.4 353.2 204.3 353.2C203.3 353.2 202.4 352.4 202.4 351.3C202.4 350.3 203.2 349.4 204.3 349.4C205.3 349.5 206.2 350.3 206.2 351.3Z" fill="#FF3D4F" fill-opacity="0.15"/>
<path d="M217 351.3C217 352.3 216.2 353.2 215.1 353.2C214.1 353.2 213.2 352.4 213.2 351.3C213.2 350.3 214 349.4 215.1 349.4C216.2 349.5 217 350.3 217 351.3Z" fill="#FF3D4F" fill-opacity="0.15"/>
<path d="M227.8 351.3C227.8 352.3 227 353.2 225.9 353.2C224.9 353.2 224 352.4 224 351.3C224 350.3 224.8 349.4 225.9 349.4C227 349.5 227.8 350.3 227.8 351.3Z" fill="#FF3D4F" fill-opacity="0.15"/>
<path d="M238.6 351.3C238.6 352.3 237.8 353.2 236.7 353.2C235.7 353.2 234.8 352.4 234.8 351.3C234.8 350.3 235.6 349.4 236.7 349.4C237.8 349.5 238.6 350.3 238.6 351.3Z" fill="#FF3D4F" fill-opacity="0.15"/>
<path d="M249.5 351.3C249.5 352.3 248.7 353.2 247.6 353.2C246.6 353.2 245.7 352.4 245.7 351.3C245.7 350.3 246.5 349.4 247.6 349.4C248.6 349.5 249.5 350.3 249.5 351.3Z" fill="#FF3D4F" fill-opacity="0.15"/>
<path d="M173.7 362.1C173.7 363.1 172.9 364 171.8 364C170.8 364 169.9 363.2 169.9 362.1C169.9 361 170.7 360.2 171.8 360.2C172.9 360.3 173.7 361.1 173.7 362.1Z" fill="#FF3D4F" fill-opacity="0.15"/>
<path d="M184.5 362.1C184.5 363.1 183.7 364 182.6 364C181.5 364 180.7 363.2 180.7 362.1C180.7 361 181.5 360.2 182.6 360.2C183.7 360.2 184.5 361.1 184.5 362.1Z" fill="#FF3D4F" fill-opacity="0.15"/>
<path d="M195.3 362.1C195.3 363.1 194.5 364 193.4 364C192.3 364 191.5 363.2 191.5 362.1C191.5 361 192.3 360.2 193.4 360.2C194.5 360.2 195.3 361.1 195.3 362.1Z" fill="#FF3D4F" fill-opacity="0.15"/>
<path d="M206.2 362.1C206.2 363.1 205.4 364 204.3 364C203.3 364 202.4 363.2 202.4 362.1C202.4 361 203.2 360.2 204.3 360.2C205.3 360.3 206.2 361.1 206.2 362.1Z" fill="#FF3D4F" fill-opacity="0.15"/>
<path d="M217 362.1C217 363.1 216.2 364 215.1 364C214.1 364 213.2 363.2 213.2 362.1C213.2 361 214 360.2 215.1 360.2C216.2 360.3 217 361.1 217 362.1Z" fill="#FF3D4F" fill-opacity="0.15"/>
<path d="M227.8 362.1C227.8 363.1 227 364 225.9 364C224.9 364 224 363.2 224 362.1C224 361 224.8 360.2 225.9 360.2C227 360.3 227.8 361.1 227.8 362.1Z" fill="#FF3D4F" fill-opacity="0.15"/>
<path d="M238.6 362.1C238.6 363.1 237.8 364 236.7 364C235.7 364 234.8 363.2 234.8 362.1C234.8 361 235.6 360.2 236.7 360.2C237.8 360.3 238.6 361.1 238.6 362.1Z" fill="#FF3D4F" fill-opacity="0.15"/>
<path d="M249.5 362.1C249.5 363.1 248.7 364 247.6 364C246.6 364 245.7 363.2 245.7 362.1C245.7 361 246.5 360.2 247.6 360.2C248.6 360.3 249.5 361.1 249.5 362.1Z" fill="#FF3D4F" fill-opacity="0.15"/>
<path d="M220.5 156.4C220.5 157.4 219.7 158.3 218.6 158.3C217.6 158.3 216.7 157.5 216.7 156.4C216.7 155.4 217.5 154.5 218.6 154.5C219.7 154.5 220.5 155.3 220.5 156.4Z" fill="#FF3D4F" fill-opacity="0.15"/>
<path d="M231.4 156.4C231.4 157.4 230.6 158.3 229.5 158.3C228.5 158.3 227.6 157.5 227.6 156.4C227.6 155.4 228.4 154.5 229.5 154.5C230.5 154.5 231.4 155.3 231.4 156.4Z" fill="#FF3D4F" fill-opacity="0.15"/>
<path d="M242.2 156.4C242.2 157.4 241.4 158.3 240.3 158.3C239.3 158.3 238.4 157.5 238.4 156.4C238.4 155.4 239.2 154.5 240.3 154.5C241.3 154.5 242.2 155.3 242.2 156.4Z" fill="#FF3D4F" fill-opacity="0.15"/>
<path d="M253 156.4C253 157.4 252.2 158.3 251.1 158.3C250 158.3 249.2 157.5 249.2 156.4C249.2 155.4 250 154.5 251.1 154.5C252.2 154.5 253 155.3 253 156.4Z" fill="#FF3D4F" fill-opacity="0.15"/>
<path d="M263.8 156.4C263.8 157.4 263 158.3 261.9 158.3C260.8 158.3 260 157.5 260 156.4C260 155.4 260.8 154.5 261.9 154.5C263 154.5 263.8 155.3 263.8 156.4Z" fill="#FF3D4F" fill-opacity="0.15"/>
<path d="M274.6 156.4C274.6 157.4 273.8 158.3 272.7 158.3C271.7 158.3 270.8 157.5 270.8 156.4C270.8 155.4 271.6 154.5 272.7 154.5C273.8 154.5 274.6 155.3 274.6 156.4Z" fill="#FF3D4F" fill-opacity="0.15"/>
<path d="M220.5 167.2C220.5 168.2 219.7 169.1 218.6 169.1C217.6 169.1 216.7 168.3 216.7 167.2C216.7 166.1 217.5 165.3 218.6 165.3C219.7 165.3 220.5 166.2 220.5 167.2Z" fill="#FF3D4F" fill-opacity="0.15"/>
<path d="M231.4 167.2C231.4 168.2 230.6 169.1 229.5 169.1C228.5 169.1 227.6 168.3 227.6 167.2C227.6 166.1 228.4 165.3 229.5 165.3C230.5 165.3 231.4 166.2 231.4 167.2Z" fill="#FF3D4F" fill-opacity="0.15"/>
<path d="M242.2 167.2C242.2 168.2 241.4 169.1 240.3 169.1C239.3 169.1 238.4 168.3 238.4 167.2C238.4 166.1 239.2 165.3 240.3 165.3C241.3 165.3 242.2 166.2 242.2 167.2Z" fill="#FF3D4F" fill-opacity="0.15"/>
<path d="M253 167.2C253 168.2 252.2 169.1 251.1 169.1C250 169.1 249.2 168.3 249.2 167.2C249.2 166.1 250 165.3 251.1 165.3C252.2 165.3 253 166.2 253 167.2Z" fill="#FF3D4F" fill-opacity="0.15"/>
<path d="M263.8 167.2C263.8 168.2 263 169.1 261.9 169.1C260.8 169.1 260 168.3 260 167.2C260 166.1 260.8 165.3 261.9 165.3C263 165.3 263.8 166.2 263.8 167.2Z" fill="#FF3D4F" fill-opacity="0.15"/>
<path d="M274.6 167.2C274.6 168.2 273.8 169.1 272.7 169.1C271.7 169.1 270.8 168.3 270.8 167.2C270.8 166.1 271.6 165.3 272.7 165.3C273.8 165.3 274.6 166.2 274.6 167.2Z" fill="#FF3D4F" fill-opacity="0.15"/>
<path d="M220.5 178C220.5 179 219.7 179.9 218.6 179.9C217.6 179.9 216.7 179.1 216.7 178C216.7 177 217.5 176.1 218.6 176.1C219.7 176.2 220.5 177 220.5 178Z" fill="#FF3D4F" fill-opacity="0.15"/>
<path d="M231.4 178C231.4 179 230.6 179.9 229.5 179.9C228.5 179.9 227.6 179.1 227.6 178C227.6 177 228.4 176.1 229.5 176.1C230.5 176.2 231.4 177 231.4 178Z" fill="#FF3D4F" fill-opacity="0.15"/>
<path d="M242.2 178C242.2 179 241.4 179.9 240.3 179.9C239.3 179.9 238.4 179.1 238.4 178C238.4 177 239.2 176.1 240.3 176.1C241.3 176.2 242.2 177 242.2 178Z" fill="#FF3D4F" fill-opacity="0.15"/>
<path d="M253 178C253 179 252.2 179.9 251.1 179.9C250 179.9 249.2 179.1 249.2 178C249.2 177 250 176.1 251.1 176.1C252.2 176.1 253 177 253 178Z" fill="#FF3D4F" fill-opacity="0.15"/>
<path d="M263.8 178C263.8 179 263 179.9 261.9 179.9C260.8 179.9 260 179.1 260 178C260 177 260.8 176.1 261.9 176.1C263 176.1 263.8 177 263.8 178Z" fill="#FF3D4F" fill-opacity="0.15"/>
<path d="M274.6 178C274.6 179 273.8 179.9 272.7 179.9C271.7 179.9 270.8 179.1 270.8 178C270.8 177 271.6 176.1 272.7 176.1C273.8 176.2 274.6 177 274.6 178Z" fill="#FF3D4F" fill-opacity="0.15"/>
<path d="M220.5 188.8C220.5 189.8 219.7 190.7 218.6 190.7C217.6 190.7 216.7 189.9 216.7 188.8C216.7 187.8 217.5 186.9 218.6 186.9C219.7 187 220.5 187.8 220.5 188.8Z" fill="#FF3D4F" fill-opacity="0.15"/>
<path d="M231.4 188.8C231.4 189.8 230.6 190.7 229.5 190.7C228.5 190.7 227.6 189.9 227.6 188.8C227.6 187.8 228.4 186.9 229.5 186.9C230.5 187 231.4 187.8 231.4 188.8Z" fill="#FF3D4F" fill-opacity="0.15"/>
<path d="M242.2 188.8C242.2 189.8 241.4 190.7 240.3 190.7C239.3 190.7 238.4 189.9 238.4 188.8C238.4 187.8 239.2 186.9 240.3 186.9C241.3 187 242.2 187.8 242.2 188.8Z" fill="#FF3D4F" fill-opacity="0.15"/>
<path d="M253 188.8C253 189.8 252.2 190.7 251.1 190.7C250 190.7 249.2 189.9 249.2 188.8C249.2 187.8 250 186.9 251.1 186.9C252.2 186.9 253 187.8 253 188.8Z" fill="#FF3D4F" fill-opacity="0.15"/>
<path d="M263.8 188.8C263.8 189.8 263 190.7 261.9 190.7C260.8 190.7 260 189.9 260 188.8C260 187.8 260.8 186.9 261.9 186.9C263 186.9 263.8 187.8 263.8 188.8Z" fill="#FF3D4F" fill-opacity="0.15"/>
<path d="M274.6 188.8C274.6 189.8 273.8 190.7 272.7 190.7C271.7 190.7 270.8 189.9 270.8 188.8C270.8 187.8 271.6 186.9 272.7 186.9C273.8 187 274.6 187.8 274.6 188.8Z" fill="#FF3D4F" fill-opacity="0.15"/>
<path d="M220.5 199.7C220.5 200.7 219.7 201.6 218.6 201.6C217.6 201.6 216.7 200.8 216.7 199.7C216.7 198.7 217.5 197.8 218.6 197.8C219.7 197.8 220.5 198.6 220.5 199.7Z" fill="#FF3D4F" fill-opacity="0.15"/>
<path d="M231.4 199.7C231.4 200.7 230.6 201.6 229.5 201.6C228.5 201.6 227.6 200.8 227.6 199.7C227.6 198.7 228.4 197.8 229.5 197.8C230.5 197.8 231.4 198.6 231.4 199.7Z" fill="#FF3D4F" fill-opacity="0.15"/>
<path d="M242.2 199.7C242.2 200.7 241.4 201.6 240.3 201.6C239.3 201.6 238.4 200.8 238.4 199.7C238.4 198.7 239.2 197.8 240.3 197.8C241.3 197.8 242.2 198.6 242.2 199.7Z" fill="#FF3D4F" fill-opacity="0.15"/>
<path d="M253 199.7C253 200.7 252.2 201.6 251.1 201.6C250 201.6 249.2 200.8 249.2 199.7C249.2 198.7 250 197.8 251.1 197.8C252.2 197.8 253 198.6 253 199.7Z" fill="#FF3D4F" fill-opacity="0.15"/>
<path d="M263.8 199.7C263.8 200.7 263 201.6 261.9 201.6C260.8 201.6 260 200.8 260 199.7C260 198.7 260.8 197.8 261.9 197.8C263 197.8 263.8 198.6 263.8 199.7Z" fill="#FF3D4F" fill-opacity="0.15"/>
<path d="M274.6 199.7C274.6 200.7 273.8 201.6 272.7 201.6C271.7 201.6 270.8 200.8 270.8 199.7C270.8 198.7 271.6 197.8 272.7 197.8C273.8 197.8 274.6 198.6 274.6 199.7Z" fill="#FF3D4F" fill-opacity="0.15"/>
<path d="M476.5 98.6C475.5 98.6 474.6 97.8 474.6 96.7C474.6 95.7 475.4 94.8 476.5 94.8C477.6 94.8 478.4 95.6 478.4 96.7C478.4 97.7 477.6 98.6 476.5 98.6Z" fill="#FF3D4F" fill-opacity="0.15"/>
<path d="M476.5 109.4C475.5 109.4 474.6 108.6 474.6 107.5C474.6 106.5 475.4 105.6 476.5 105.6C477.6 105.6 478.4 106.4 478.4 107.5C478.4 108.5 477.6 109.4 476.5 109.4Z" fill="#FF3D4F" fill-opacity="0.15"/>
<path d="M476.5 120.2C475.5 120.2 474.6 119.4 474.6 118.3C474.6 117.3 475.4 116.4 476.5 116.4C477.6 116.4 478.4 117.2 478.4 118.3C478.4 119.4 477.6 120.2 476.5 120.2Z" fill="#FF3D4F" fill-opacity="0.15"/>
<path d="M476.5 131C475.5 131 474.6 130.2 474.6 129.1C474.6 128.1 475.4 127.2 476.5 127.2C477.6 127.2 478.4 128 478.4 129.1C478.4 130.2 477.6 131 476.5 131Z" fill="#FF3D4F" fill-opacity="0.15"/>
<path d="M476.5 141.8C475.5 141.8 474.6 141 474.6 139.9C474.6 138.9 475.4 138 476.5 138C477.6 138 478.4 138.8 478.4 139.9C478.4 141 477.6 141.8 476.5 141.8Z" fill="#FF3D4F" fill-opacity="0.15"/>
<path d="M476.5 152.7C475.5 152.7 474.6 151.9 474.6 150.8C474.6 149.8 475.4 148.9 476.5 148.9C477.6 148.9 478.4 149.7 478.4 150.8C478.4 151.8 477.6 152.7 476.5 152.7Z" fill="#FF3D4F" fill-opacity="0.15"/>
<path d="M476.5 163.5C475.5 163.5 474.6 162.7 474.6 161.6C474.6 160.6 475.4 159.7 476.5 159.7C477.6 159.7 478.4 160.5 478.4 161.6C478.4 162.7 477.6 163.5 476.5 163.5Z" fill="#FF3D4F" fill-opacity="0.15"/>
<path d="M476.5 174.3C475.5 174.3 474.6 173.5 474.6 172.4C474.6 171.4 475.4 170.5 476.5 170.5C477.6 170.5 478.4 171.3 478.4 172.4C478.4 173.5 477.6 174.3 476.5 174.3Z" fill="#FF3D4F" fill-opacity="0.15"/>
<path d="M465.7 98.6C464.7 98.6 463.8 97.8 463.8 96.7C463.8 95.7 464.6 94.8 465.7 94.8C466.7 94.8 467.6 95.6 467.6 96.7C467.6 97.7 466.7 98.6 465.7 98.6Z" fill="#FF3D4F" fill-opacity="0.15"/>
<path d="M465.7 109.4C464.7 109.4 463.8 108.6 463.8 107.5C463.8 106.5 464.6 105.6 465.7 105.6C466.7 105.6 467.6 106.4 467.6 107.5C467.6 108.5 466.7 109.4 465.7 109.4Z" fill="#FF3D4F" fill-opacity="0.15"/>
<path d="M465.7 120.2C464.7 120.2 463.8 119.4 463.8 118.3C463.8 117.3 464.6 116.4 465.7 116.4C466.7 116.4 467.6 117.2 467.6 118.3C467.6 119.4 466.7 120.2 465.7 120.2Z" fill="#FF3D4F" fill-opacity="0.15"/>
<path d="M465.7 131C464.7 131 463.8 130.2 463.8 129.1C463.8 128.1 464.6 127.2 465.7 127.2C466.7 127.2 467.6 128 467.6 129.1C467.6 130.2 466.7 131 465.7 131Z" fill="#FF3D4F" fill-opacity="0.15"/>
<path d="M465.7 141.8C464.7 141.8 463.8 141 463.8 139.9C463.8 138.9 464.6 138 465.7 138C466.7 138 467.6 138.8 467.6 139.9C467.6 141 466.7 141.8 465.7 141.8Z" fill="#FF3D4F" fill-opacity="0.15"/>
<path d="M465.7 152.7C464.7 152.7 463.8 151.9 463.8 150.8C463.8 149.8 464.6 148.9 465.7 148.9C466.7 148.9 467.6 149.7 467.6 150.8C467.6 151.8 466.7 152.7 465.7 152.7Z" fill="#FF3D4F" fill-opacity="0.15"/>
<path d="M465.7 163.5C464.7 163.5 463.8 162.7 463.8 161.6C463.8 160.6 464.6 159.7 465.7 159.7C466.7 159.7 467.6 160.5 467.6 161.6C467.6 162.7 466.7 163.5 465.7 163.5Z" fill="#FF3D4F" fill-opacity="0.15"/>
<path d="M465.7 174.3C464.7 174.3 463.8 173.5 463.8 172.4C463.8 171.4 464.6 170.5 465.7 170.5C466.7 170.5 467.6 171.3 467.6 172.4C467.6 173.5 466.7 174.3 465.7 174.3Z" fill="#FF3D4F" fill-opacity="0.15"/>
<path d="M454.9 98.6C453.9 98.6 453 97.8 453 96.7C453 95.7 453.8 94.8 454.9 94.8C455.9 94.8 456.8 95.6 456.8 96.7C456.8 97.7 455.9 98.6 454.9 98.6Z" fill="#FF3D4F" fill-opacity="0.15"/>
<path d="M454.9 109.4C453.9 109.4 453 108.6 453 107.5C453 106.5 453.8 105.6 454.9 105.6C455.9 105.6 456.8 106.4 456.8 107.5C456.8 108.5 455.9 109.4 454.9 109.4Z" fill="#FF3D4F" fill-opacity="0.15"/>
<path d="M454.9 120.2C453.9 120.2 453 119.4 453 118.3C453 117.3 453.8 116.4 454.9 116.4C455.9 116.4 456.8 117.2 456.8 118.3C456.8 119.4 455.9 120.2 454.9 120.2Z" fill="#FF3D4F" fill-opacity="0.15"/>
<path d="M454.9 131C453.9 131 453 130.2 453 129.1C453 128.1 453.8 127.2 454.9 127.2C455.9 127.2 456.8 128 456.8 129.1C456.8 130.2 455.9 131 454.9 131Z" fill="#FF3D4F" fill-opacity="0.15"/>
<path d="M454.9 141.8C453.9 141.8 453 141 453 139.9C453 138.9 453.8 138 454.9 138C455.9 138 456.8 138.8 456.8 139.9C456.8 141 455.9 141.8 454.9 141.8Z" fill="#FF3D4F" fill-opacity="0.15"/>
<path d="M454.9 152.7C453.9 152.7 453 151.9 453 150.8C453 149.8 453.8 148.9 454.9 148.9C455.9 148.9 456.8 149.7 456.8 150.8C456.8 151.8 455.9 152.7 454.9 152.7Z" fill="#FF3D4F" fill-opacity="0.15"/>
<path d="M454.9 163.5C453.9 163.5 453 162.7 453 161.6C453 160.6 453.8 159.7 454.9 159.7C455.9 159.7 456.8 160.5 456.8 161.6C456.8 162.7 455.9 163.5 454.9 163.5Z" fill="#FF3D4F" fill-opacity="0.15"/>
<path d="M454.9 174.3C453.9 174.3 453 173.5 453 172.4C453 171.4 453.8 170.5 454.9 170.5C455.9 170.5 456.8 171.3 456.8 172.4C456.8 173.5 455.9 174.3 454.9 174.3Z" fill="#FF3D4F" fill-opacity="0.15"/>
<path d="M444.1 98.6C443.1 98.6 442.2 97.8 442.2 96.7C442.2 95.7 443 94.8 444.1 94.8C445.2 94.8 446 95.6 446 96.7C445.9 97.7 445.1 98.6 444.1 98.6Z" fill="#FF3D4F" fill-opacity="0.15"/>
<path d="M444.1 109.4C443.1 109.4 442.2 108.6 442.2 107.5C442.2 106.5 443 105.6 444.1 105.6C445.2 105.6 446 106.4 446 107.5C445.9 108.5 445.1 109.4 444.1 109.4Z" fill="#FF3D4F" fill-opacity="0.15"/>
<path d="M444.1 120.2C443.1 120.2 442.2 119.4 442.2 118.3C442.2 117.3 443 116.4 444.1 116.4C445.2 116.4 446 117.2 446 118.3C445.9 119.4 445.1 120.2 444.1 120.2Z" fill="#FF3D4F" fill-opacity="0.15"/>
<path d="M444.1 131C443.1 131 442.2 130.2 442.2 129.1C442.2 128.1 443 127.2 444.1 127.2C445.2 127.2 446 128 446 129.1C445.9 130.2 445.1 131 444.1 131Z" fill="#FF3D4F" fill-opacity="0.15"/>
<path d="M444.1 141.8C443.1 141.8 442.2 141 442.2 139.9C442.2 138.9 443 138 444.1 138C445.2 138 446 138.8 446 139.9C445.9 141 445.1 141.8 444.1 141.8Z" fill="#FF3D4F" fill-opacity="0.15"/>
<path d="M444.1 152.7C443.1 152.7 442.2 151.9 442.2 150.8C442.2 149.8 443 148.9 444.1 148.9C445.2 148.9 446 149.7 446 150.8C445.9 151.8 445.1 152.7 444.1 152.7Z" fill="#FF3D4F" fill-opacity="0.15"/>
<path d="M444.1 163.5C443.1 163.5 442.2 162.7 442.2 161.6C442.2 160.6 443 159.7 444.1 159.7C445.2 159.7 446 160.5 446 161.6C445.9 162.7 445.1 163.5 444.1 163.5Z" fill="#FF3D4F" fill-opacity="0.15"/>
<path d="M444.1 174.3C443.1 174.3 442.2 173.5 442.2 172.4C442.2 171.4 443 170.5 444.1 170.5C445.2 170.5 446 171.3 446 172.4C445.9 173.5 445.1 174.3 444.1 174.3Z" fill="#FF3D4F" fill-opacity="0.15"/>
<path d="M433.3 98.6C432.3 98.6 431.4 97.8 431.4 96.7C431.4 95.7 432.2 94.8 433.3 94.8C434.3 94.8 435.2 95.6 435.2 96.7C435.1 97.7 434.3 98.6 433.3 98.6Z" fill="#FF3D4F" fill-opacity="0.15"/>
<path d="M433.3 109.4C432.3 109.4 431.4 108.6 431.4 107.5C431.4 106.5 432.2 105.6 433.3 105.6C434.3 105.6 435.2 106.4 435.2 107.5C435.1 108.5 434.3 109.4 433.3 109.4Z" fill="#FF3D4F" fill-opacity="0.15"/>
<path d="M433.3 120.2C432.3 120.2 431.4 119.4 431.4 118.3C431.4 117.3 432.2 116.4 433.3 116.4C434.3 116.4 435.2 117.2 435.2 118.3C435.1 119.4 434.3 120.2 433.3 120.2Z" fill="#FF3D4F" fill-opacity="0.15"/>
<path d="M433.3 131C432.3 131 431.4 130.2 431.4 129.1C431.4 128.1 432.2 127.2 433.3 127.2C434.3 127.2 435.2 128 435.2 129.1C435.1 130.2 434.3 131 433.3 131Z" fill="#FF3D4F" fill-opacity="0.15"/>
<path d="M433.3 141.8C432.3 141.8 431.4 141 431.4 139.9C431.4 138.9 432.2 138 433.3 138C434.3 138 435.2 138.8 435.2 139.9C435.1 141 434.3 141.8 433.3 141.8Z" fill="#FF3D4F" fill-opacity="0.15"/>
<path d="M433.3 152.7C432.3 152.7 431.4 151.9 431.4 150.8C431.4 149.8 432.2 148.9 433.3 148.9C434.3 148.9 435.2 149.7 435.2 150.8C435.1 151.8 434.3 152.7 433.3 152.7Z" fill="#FF3D4F" fill-opacity="0.15"/>
<path d="M433.3 163.5C432.3 163.5 431.4 162.7 431.4 161.6C431.4 160.6 432.2 159.7 433.3 159.7C434.3 159.7 435.2 160.5 435.2 161.6C435.1 162.7 434.3 163.5 433.3 163.5Z" fill="#FF3D4F" fill-opacity="0.15"/>
<path d="M433.3 174.3C432.3 174.3 431.4 173.5 431.4 172.4C431.4 171.4 432.2 170.5 433.3 170.5C434.3 170.5 435.2 171.3 435.2 172.4C435.1 173.5 434.3 174.3 433.3 174.3Z" fill="#FF3D4F" fill-opacity="0.15"/>
<path d="M430.6 45.2C430.6 44.2 431.4 43.3 432.5 43.3C433.6 43.3 434.4 44.1 434.4 45.2C434.4 46.3 433.5 47 432.4 47C431.3 47 430.6 46.2 430.6 45.2Z" fill="#FF3D4F" fill-opacity="0.15"/>
<path d="M419.8 45.2C419.8 44.2 420.6 43.3 421.7 43.3C422.7 43.3 423.6 44.1 423.6 45.2C423.6 46.3 422.8 47.1 421.7 47.1C420.6 47 419.8 46.2 419.8 45.2Z" fill="#FF3D4F" fill-opacity="0.15"/>
<path d="M409 45.2C409 44.2 409.8 43.3 410.9 43.3C411.9 43.3 412.8 44.1 412.8 45.2C412.8 46.3 412 47.1 410.9 47.1C409.8 47 409 46.2 409 45.2Z" fill="#FF3D4F" fill-opacity="0.15"/>
<path d="M398.1 45.2C398.1 44.2 398.9 43.3 400 43.3C401 43.3 401.9 44.1 401.9 45.2C401.9 46.3 401.1 47.1 400 47.1C399 47 398.1 46.2 398.1 45.2Z" fill="#FF3D4F" fill-opacity="0.15"/>
<path d="M387.3 45.2C387.3 44.2 388.1 43.3 389.2 43.3C390.3 43.3 391.1 44.1 391.1 45.2C391.1 46.3 390.3 47.1 389.2 47.1C388.1 47.1 387.3 46.2 387.3 45.2Z" fill="#FF3D4F" fill-opacity="0.15"/>
<path d="M376.5 45.2C376.5 44.2 377.3 43.3 378.4 43.3C379.4 43.3 380.3 44.1 380.3 45.2C380.3 46.3 379.4 47 378.3 47C377.3 47 376.5 46.2 376.5 45.2Z" fill="#FF3D4F" fill-opacity="0.15"/>
<path d="M365.7 45.2C365.7 44.2 366.5 43.3 367.6 43.3C368.6 43.3 369.5 44.1 369.5 45.2C369.5 46.3 368.7 47.1 367.6 47.1C366.5 47 365.7 46.2 365.7 45.2Z" fill="#FF3D4F" fill-opacity="0.15"/>
<path d="M354.8 45.2C354.8 44.2 355.6 43.3 356.7 43.3C357.8 43.3 358.6 44.1 358.6 45.2C358.6 46.3 357.8 47.1 356.7 47.1C355.6 47.1 354.8 46.2 354.8 45.2Z" fill="#FF3D4F" fill-opacity="0.15"/>
<path d="M430.6 34.3C430.6 33.3 431.4 32.4 432.5 32.4C433.6 32.4 434.4 33.2 434.4 34.3C434.4 35.4 433.6 36.2 432.5 36.2C431.4 36.2 430.6 35.4 430.6 34.3Z" fill="#FF3D4F" fill-opacity="0.15"/>
<path d="M419.8 34.3C419.8 33.3 420.6 32.4 421.7 32.4C422.7 32.4 423.6 33.2 423.6 34.3C423.6 35.4 422.8 36.2 421.7 36.2C420.6 36.2 419.8 35.4 419.8 34.3Z" fill="#FF3D4F" fill-opacity="0.15"/>
<path d="M409 34.3C409 33.3 409.8 32.4 410.9 32.4C411.9 32.4 412.8 33.2 412.8 34.3C412.8 35.4 412 36.2 410.9 36.2C409.8 36.2 409 35.4 409 34.3Z" fill="#FF3D4F" fill-opacity="0.15"/>
<path d="M398.1 34.3C398.1 33.3 398.9 32.4 400 32.4C401 32.4 401.9 33.2 401.9 34.3C401.9 35.4 401.1 36.2 400 36.2C399 36.2 398.1 35.4 398.1 34.3Z" fill="#FF3D4F" fill-opacity="0.15"/>
<path d="M387.3 34.3C387.3 33.3 388.1 32.4 389.2 32.4C390.3 32.4 391.1 33.2 391.1 34.3C391.1 35.4 390.3 36.2 389.2 36.2C388.1 36.2 387.3 35.4 387.3 34.3Z" fill="#FF3D4F" fill-opacity="0.15"/>
<path d="M376.5 34.3C376.5 33.3 377.3 32.4 378.4 32.4C379.4 32.4 380.3 33.2 380.3 34.3C380.3 35.4 379.5 36.2 378.4 36.2C377.3 36.2 376.5 35.4 376.5 34.3Z" fill="#FF3D4F" fill-opacity="0.15"/>
<path d="M365.7 34.3C365.7 33.3 366.5 32.4 367.6 32.4C368.6 32.4 369.5 33.2 369.5 34.3C369.5 35.4 368.7 36.2 367.6 36.2C366.5 36.2 365.7 35.4 365.7 34.3Z" fill="#FF3D4F" fill-opacity="0.15"/>
<path d="M354.8 34.3C354.8 33.3 355.6 32.4 356.7 32.4C357.8 32.4 358.6 33.2 358.6 34.3C358.6 35.4 357.8 36.2 356.7 36.2C355.6 36.2 354.8 35.4 354.8 34.3Z" fill="#FF3D4F" fill-opacity="0.15"/>
<path d="M432.4 25.4C433.449 25.4 434.3 24.5493 434.3 23.5C434.3 22.4507 433.449 21.6 432.4 21.6C431.351 21.6 430.5 22.4507 430.5 23.5C430.5 24.5493 431.351 25.4 432.4 25.4Z" fill="#FF3D4F" fill-opacity="0.15"/>
<path d="M419.8 23.5C419.8 22.5 420.6 21.6 421.7 21.6C422.7 21.6 423.6 22.4 423.6 23.5C423.6 24.5 422.8 25.4 421.7 25.4C420.6 25.4 419.8 24.5 419.8 23.5Z" fill="#FF3D4F" fill-opacity="0.15"/>
<path d="M409 23.5C409 22.5 409.8 21.6 410.9 21.6C411.9 21.6 412.8 22.4 412.8 23.5C412.8 24.5 412 25.4 410.9 25.4C409.8 25.4 409 24.5 409 23.5Z" fill="#FF3D4F" fill-opacity="0.15"/>
<path d="M398.1 23.5C398.1 22.5 398.9 21.6 400 21.6C401 21.6 401.9 22.4 401.9 23.5C401.9 24.5 401.1 25.4 400 25.4C399 25.4 398.1 24.5 398.1 23.5Z" fill="#FF3D4F" fill-opacity="0.15"/>
<path d="M387.3 23.5C387.3 22.5 388.1 21.6 389.2 21.6C390.3 21.6 391.1 22.4 391.1 23.5C391.1 24.5 390.3 25.4 389.2 25.4C388.1 25.4 387.3 24.5 387.3 23.5Z" fill="#FF3D4F" fill-opacity="0.15"/>
<path d="M376.5 23.5C376.5 22.5 377.3 21.6 378.4 21.6C379.4 21.6 380.3 22.4 380.3 23.5C380.3 24.5 379.5 25.4 378.4 25.4C377.3 25.4 376.5 24.5 376.5 23.5Z" fill="#FF3D4F" fill-opacity="0.15"/>
<path d="M365.7 23.5C365.7 22.5 366.5 21.6 367.6 21.6C368.6 21.6 369.5 22.4 369.5 23.5C369.5 24.5 368.7 25.4 367.6 25.4C366.5 25.4 365.7 24.5 365.7 23.5Z" fill="#FF3D4F" fill-opacity="0.15"/>
<path d="M354.8 23.5C354.8 22.5 355.6 21.6 356.7 21.6C357.8 21.6 358.6 22.4 358.6 23.5C358.6 24.5 357.8 25.4 356.7 25.4C355.6 25.4 354.8 24.5 354.8 23.5Z" fill="#FF3D4F" fill-opacity="0.15"/>
<path d="M430.6 12.7C430.6 11.7 431.4 10.8 432.5 10.8C433.6 10.8 434.4 11.6 434.4 12.7C434.4 13.7 433.6 14.6 432.5 14.6C431.4 14.6 430.6 13.7 430.6 12.7Z" fill="#FF3D4F" fill-opacity="0.15"/>
<path d="M419.8 12.7C419.8 11.7 420.6 10.8 421.7 10.8C422.7 10.8 423.6 11.6 423.6 12.7C423.6 13.7 422.8 14.6 421.7 14.6C420.6 14.6 419.8 13.7 419.8 12.7Z" fill="#FF3D4F" fill-opacity="0.15"/>
<path d="M409 12.7C409 11.7 409.8 10.8 410.9 10.8C411.9 10.8 412.8 11.6 412.8 12.7C412.8 13.7 412 14.6 410.9 14.6C409.8 14.6 409 13.7 409 12.7Z" fill="#FF3D4F" fill-opacity="0.15"/>
<path d="M398.1 12.7C398.1 11.7 398.9 10.8 400 10.8C401 10.8 401.9 11.6 401.9 12.7C401.9 13.7 401.1 14.6 400 14.6C399 14.6 398.1 13.7 398.1 12.7Z" fill="#FF3D4F" fill-opacity="0.15"/>
<path d="M387.3 12.7C387.3 11.7 388.1 10.8 389.2 10.8C390.3 10.8 391.1 11.6 391.1 12.7C391.1 13.7 390.3 14.6 389.2 14.6C388.1 14.6 387.3 13.7 387.3 12.7Z" fill="#FF3D4F" fill-opacity="0.15"/>
<path d="M376.5 12.7C376.5 11.7 377.3 10.8 378.4 10.8C379.4 10.8 380.3 11.6 380.3 12.7C380.3 13.7 379.5 14.6 378.4 14.6C377.3 14.6 376.5 13.7 376.5 12.7Z" fill="#FF3D4F" fill-opacity="0.15"/>
<path d="M365.7 12.7C365.7 11.7 366.5 10.8 367.6 10.8C368.6 10.8 369.5 11.6 369.5 12.7C369.5 13.7 368.7 14.6 367.6 14.6C366.5 14.6 365.7 13.7 365.7 12.7Z" fill="#FF3D4F" fill-opacity="0.15"/>
<path d="M354.8 12.7C354.8 11.7 355.6 10.8 356.7 10.8C357.8 10.8 358.6 11.6 358.6 12.7C358.6 13.7 357.8 14.6 356.7 14.6C355.6 14.6 354.8 13.7 354.8 12.7Z" fill="#FF3D4F" fill-opacity="0.15"/>
<path d="M430.6 1.9C430.6 0.900002 431.4 0 432.5 0C433.6 0 434.4 0.800002 434.4 1.9C434.4 2.9 433.6 3.8 432.5 3.8C431.4 3.8 430.6 2.9 430.6 1.9Z" fill="#FF3D4F" fill-opacity="0.15"/>
<path d="M419.8 1.9C419.8 0.900002 420.6 0 421.7 0C422.7 0 423.6 0.800002 423.6 1.9C423.6 2.9 422.8 3.8 421.7 3.8C420.6 3.7 419.8 2.9 419.8 1.9Z" fill="#FF3D4F" fill-opacity="0.15"/>
<path d="M409 1.9C409 0.900002 409.8 0 410.9 0C411.9 0 412.8 0.800002 412.8 1.9C412.8 2.9 412 3.8 410.9 3.8C409.8 3.7 409 2.9 409 1.9Z" fill="#FF3D4F" fill-opacity="0.15"/>
<path d="M398.1 1.9C398.1 0.900002 398.9 0 400 0C401 0 401.9 0.800002 401.9 1.9C401.9 2.9 401.1 3.8 400 3.8C399 3.7 398.1 2.9 398.1 1.9Z" fill="#FF3D4F" fill-opacity="0.15"/>
<path d="M387.3 1.9C387.3 0.900002 388.1 0 389.2 0C390.3 0 391.1 0.800002 391.1 1.9C391.1 2.9 390.3 3.8 389.2 3.8C388.1 3.8 387.3 2.9 387.3 1.9Z" fill="#FF3D4F" fill-opacity="0.15"/>
<path d="M376.5 1.9C376.5 0.900002 377.3 0 378.4 0C379.4 0 380.3 0.800002 380.3 1.9C380.3 2.9 379.5 3.8 378.4 3.8C377.3 3.7 376.5 2.9 376.5 1.9Z" fill="#FF3D4F" fill-opacity="0.15"/>
<path d="M365.7 1.9C365.7 0.900002 366.5 0 367.6 0C368.6 0 369.5 0.800002 369.5 1.9C369.5 2.9 368.7 3.8 367.6 3.8C366.5 3.7 365.7 2.9 365.7 1.9Z" fill="#FF3D4F" fill-opacity="0.15"/>
<path d="M354.8 1.9C354.8 0.900002 355.6 0 356.7 0C357.8 0 358.6 0.800002 358.6 1.9C358.6 2.9 357.8 3.8 356.7 3.8C355.6 3.8 354.8 2.9 354.8 1.9Z" fill="#FF3D4F" fill-opacity="0.15"/>
<path d="M458.3 214.8V227.7L469.5 221.3L458.3 214.8Z" stroke="#FF3D4F" stroke-opacity="0.15" stroke-width="2" stroke-miterlimit="10" stroke-linecap="round" stroke-linejoin="round"/>
<path d="M372.1 91.9L365.3 81L359.2 92.3L372.1 91.9Z" stroke="#FF3D4F" stroke-opacity="0.15" stroke-width="2" stroke-miterlimit="10" stroke-linecap="round" stroke-linejoin="round"/>
<path d="M389.6 325.9L382.7 315L376.7 326.4L389.6 325.9Z" stroke="#FF3D4F" stroke-opacity="0.15" stroke-width="2" stroke-miterlimit="10" stroke-linecap="round" stroke-linejoin="round"/>
</svg>
