<svg width="2539" height="1085" viewBox="0 0 2539 1085" fill="none" xmlns="http://www.w3.org/2000/svg">
<path d="M181.255 96.2348C47.7134 174.553 98.5874 470.722 126.426 549.222C188.683 726.124 35.3182 690.743 1.91208 842.214C-31.4941 993.686 378.491 1121.04 788.475 1075.71C1282.9 1021.04 1114.83 949.752 1755.63 1031.57C2396.42 1113.39 2543.28 704.344 2511.93 651.144C2485.36 606.06 2594.77 433.897 2498.72 394.066C2453.46 375.297 2476.51 256.915 2306.94 265.278C2121.5 274.424 2004.76 65.1589 1801.29 143.659C1597.82 222.159 1631.22 -3.59411 1354.86 33.9974C1078.5 71.5889 788.445 -32.3102 625.511 10.5746C313.304 92.7489 346.781 -0.842046 181.255 96.2348Z" fill="url(#paint0_linear)"/>
<defs>
<linearGradient id="paint0_linear" x1="109.723" y1="134.612" x2="2567.07" y2="1535.13" gradientUnits="userSpaceOnUse">
<stop stop-color="#0470DC"/>
<stop offset="1" stop-color="#70DDFF"/>
</linearGradient>
</defs>
</svg>
