<svg xmlns="http://www.w3.org/2000/svg" xmlns:xlink="http://www.w3.org/1999/xlink" viewBox="0 0 2800 2752"><linearGradient id="a" gradientUnits="userSpaceOnUse" x1="-403.787" y1="-240.686" x2="852.102" y2="977.274"><stop offset="0" stop-color="#e1e1e8"/><stop offset="1" stop-color="#f7f8fa" stop-opacity=".1"/></linearGradient><path fill="url(#a)" d="M0 1029l2800 959.3L0 0z"/><defs><path id="b" d="M2800 1988.3V0L963.1 683.9z"/></defs><clipPath id="c"><use xlink:href="#b" overflow="visible"/></clipPath><g clip-path="url(#c)" fill="none" stroke-miterlimit="10"><circle cx="3462.7" cy="-184.1" r="38.3" stroke="#c5c5cb" stroke-width="2"/><circle cx="3459.6" cy="-181.2" r="38.4" stroke="#c5c5cb" stroke-width="1.997"/><circle cx="3456.5" cy="-178.4" r="38.6" stroke="#c5c5cb" stroke-width="1.994"/><circle cx="3453.4" cy="-175.5" r="39" stroke="#c5c5cb" stroke-width="1.991"/><circle cx="3450.2" cy="-172.6" r="39.6" stroke="#c5c5cb" stroke-width="1.988"/><circle cx="3447.1" cy="-169.8" r="40.4" stroke="#c5c5cb" stroke-width="1.984"/><circle cx="3444" cy="-166.9" r="41.3" stroke="#c5c5cb" stroke-width="1.981"/><circle cx="3440.9" cy="-164.1" r="42.4" stroke="#c5c5cb" stroke-width="1.978"/><circle cx="3437.8" cy="-161.2" r="43.6" stroke="#c5c5cb" stroke-width="1.975"/><circle cx="3434.7" cy="-158.4" r="45" stroke="#c6c6cc" stroke-width="1.972"/><circle cx="3431.6" cy="-155.5" r="46.5" stroke="#c6c6cc" stroke-width="1.969"/><circle cx="3428.5" cy="-152.6" r="48.1" stroke="#c6c6cc" stroke-width="1.966"/><circle cx="3425.4" cy="-149.8" r="49.8" stroke="#c6c6cc" stroke-width="1.963"/><circle cx="3422.3" cy="-146.9" r="51.6" stroke="#c6c6cc" stroke-width="1.96"/><circle cx="3419.1" cy="-144.1" r="53.5" stroke="#c6c6cc" stroke-width="1.957"/><circle cx="3416" cy="-141.2" r="55.5" stroke="#c6c6cc" stroke-width="1.954"/><circle cx="3412.9" cy="-138.4" r="57.5" stroke="#c6c6cc" stroke-width="1.95"/><circle cx="3409.8" cy="-135.5" r="59.6" stroke="#c6c6cc" stroke-width="1.947"/><circle cx="3406.7" cy="-132.7" r="61.7" stroke="#c6c6cc" stroke-width="1.944"/><circle cx="3403.6" cy="-129.8" r="63.9" stroke="#c6c6cc" stroke-width="1.941"/><circle cx="3400.5" cy="-126.9" r="66.1" stroke="#c6c6cc" stroke-width="1.938"/><circle cx="3397.4" cy="-124.1" r="68.4" stroke="#c6c6cc" stroke-width="1.935"/><circle cx="3394.3" cy="-121.2" r="70.6" stroke="#c6c6cc" stroke-width="1.932"/><circle cx="3391.1" cy="-118.4" r="73" stroke="#c6c6cc" stroke-width="1.929"/><circle cx="3388" cy="-115.5" r="75.3" stroke="#c6c6cc" stroke-width="1.926"/><circle cx="3384.9" cy="-112.7" r="77.7" stroke="#c6c6cc" stroke-width="1.923"/><circle cx="3381.8" cy="-109.8" r="80.1" stroke="#c7c7cd" stroke-width="1.919"/><circle cx="3378.7" cy="-106.9" r="82.5" stroke="#c7c7cd" stroke-width="1.916"/><circle cx="3375.6" cy="-104.1" r="85" stroke="#c7c7cd" stroke-width="1.913"/><circle cx="3372.5" cy="-101.2" r="87.4" stroke="#c7c7cd" stroke-width="1.91"/><circle cx="3369.4" cy="-98.4" r="89.9" stroke="#c7c7cd" stroke-width="1.907"/><circle cx="3366.3" cy="-95.5" r="92.4" stroke="#c7c7cd" stroke-width="1.904"/><circle cx="3363.2" cy="-92.7" r="94.9" stroke="#c7c7cd" stroke-width="1.901"/><circle cx="3360" cy="-89.8" r="97.4" stroke="#c7c7cd" stroke-width="1.898"/><circle cx="3356.9" cy="-86.9" r="100" stroke="#c7c7cd" stroke-width="1.895"/><circle cx="3353.8" cy="-84.1" r="102.5" stroke="#c7c7cd" stroke-width="1.891"/><circle cx="3350.7" cy="-81.2" r="105.1" stroke="#c7c7cd" stroke-width="1.888"/><circle cx="3347.6" cy="-78.4" r="107.6" stroke="#c7c7cd" stroke-width="1.885"/><circle cx="3344.5" cy="-75.5" r="110.2" stroke="#c7c7cd" stroke-width="1.882"/><circle cx="3341.4" cy="-72.7" r="112.8" stroke="#c7c7cd" stroke-width="1.879"/><circle cx="3338.3" cy="-69.8" r="115.4" stroke="#c7c7cd" stroke-width="1.876"/><circle cx="3335.2" cy="-67" r="118" stroke="#c7c7cd" stroke-width="1.873"/><circle cx="3332" cy="-64.1" r="120.6" stroke="#c7c7ce" stroke-width="1.87"/><circle cx="3328.9" cy="-61.2" r="123.2" stroke="#c7c7ce" stroke-width="1.867"/><circle cx="3325.8" cy="-58.4" r="125.8" stroke="#c8c8ce" stroke-width="1.864"/><circle cx="3322.7" cy="-55.5" r="128.4" stroke="#c8c8ce" stroke-width="1.861"/><circle cx="3319.6" cy="-52.7" r="131" stroke="#c8c8ce" stroke-width="1.857"/><circle cx="3316.5" cy="-49.8" r="133.7" stroke="#c8c8ce" stroke-width="1.854"/><circle cx="3313.4" cy="-47" r="136.3" stroke="#c8c8ce" stroke-width="1.851"/><circle cx="3310.3" cy="-44.1" r="138.9" stroke="#c8c8ce" stroke-width="1.848"/><circle cx="3307.2" cy="-41.2" r="141.6" stroke="#c8c8ce" stroke-width="1.845"/><circle cx="3304.1" cy="-38.4" r="144.2" stroke="#c8c8ce" stroke-width="1.842"/><circle cx="3300.9" cy="-35.5" r="146.9" stroke="#c8c8ce" stroke-width="1.839"/><circle cx="3297.8" cy="-32.7" r="149.5" stroke="#c8c8ce" stroke-width="1.836"/><circle cx="3294.7" cy="-29.8" r="152.2" stroke="#c8c8ce" stroke-width="1.833"/><circle cx="3291.6" cy="-27" r="154.9" stroke="#c8c8ce" stroke-width="1.829"/><circle cx="3288.5" cy="-24.1" r="157.5" stroke="#c8c8ce" stroke-width="1.826"/><circle cx="3285.4" cy="-21.3" r="160.2" stroke="#c8c8ce" stroke-width="1.823"/><circle cx="3282.3" cy="-18.4" r="162.9" stroke="#c8c8ce" stroke-width="1.82"/><circle cx="3279.2" cy="-15.5" r="165.5" stroke="#c8c8cf" stroke-width="1.817"/><circle cx="3276.1" cy="-12.7" r="168.2" stroke="#c8c8cf" stroke-width="1.814"/><circle cx="3273" cy="-9.8" r="170.9" stroke="#c9c9cf" stroke-width="1.811"/><circle cx="3269.8" cy="-7" r="173.6" stroke="#c9c9cf" stroke-width="1.808"/><circle cx="3266.7" cy="-4.1" r="176.2" stroke="#c9c9cf" stroke-width="1.805"/><circle cx="3263.6" cy="-1.3" r="178.9" stroke="#c9c9cf" stroke-width="1.802"/><circle cx="3260.5" cy="1.6" r="181.6" stroke="#c9c9cf" stroke-width="1.799"/><circle cx="3257.4" cy="4.5" r="184.3" stroke="#c9c9cf" stroke-width="1.796"/><circle cx="3254.3" cy="7.3" r="187" stroke="#c9c9cf" stroke-width="1.792"/><circle cx="3251.2" cy="10.2" r="189.7" stroke="#c9c9cf" stroke-width="1.789"/><circle cx="3248.1" cy="13" r="192.4" stroke="#c9c9cf" stroke-width="1.786"/><circle cx="3245" cy="15.9" r="195.1" stroke="#c9c9cf" stroke-width="1.783"/><circle cx="3241.8" cy="18.7" r="197.8" stroke="#c9c9cf" stroke-width="1.78"/><circle cx="3238.7" cy="21.6" r="200.5" stroke="#c9c9cf" stroke-width="1.777"/><circle cx="3235.6" cy="24.5" r="203.2" stroke="#c9c9cf" stroke-width="1.774"/><circle cx="3232.5" cy="27.3" r="205.9" stroke="#c9c9cf" stroke-width="1.771"/><circle cx="3229.4" cy="30.2" r="208.6" stroke="#c9c9cf" stroke-width="1.768"/><circle cx="3226.3" cy="33" r="211.3" stroke="#c9c9d0" stroke-width="1.764"/><circle cx="3223.2" cy="35.9" r="214" stroke="#c9c9d0" stroke-width="1.761"/><circle cx="3220.1" cy="38.7" r="216.7" stroke="#cacad0" stroke-width="1.758"/><circle cx="3217" cy="41.6" r="219.4" stroke="#cacad0" stroke-width="1.755"/><circle cx="3213.9" cy="44.4" r="222.1" stroke="#cacad0" stroke-width="1.752"/><circle cx="3210.7" cy="47.3" r="224.8" stroke="#cacad0" stroke-width="1.749"/><circle cx="3207.6" cy="50.2" r="227.5" stroke="#cacad0" stroke-width="1.746"/><circle cx="3204.5" cy="53" r="230.2" stroke="#cacad0" stroke-width="1.743"/><circle cx="3201.4" cy="55.9" r="232.9" stroke="#cacad0" stroke-width="1.74"/><circle cx="3198.3" cy="58.7" r="235.6" stroke="#cacad0" stroke-width="1.737"/><circle cx="3195.2" cy="61.6" r="238.3" stroke="#cacad0" stroke-width="1.734"/><circle cx="3192.1" cy="64.4" r="241" stroke="#cacad0" stroke-width="1.73"/><circle cx="3189" cy="67.3" r="243.8" stroke="#cacad0" stroke-width="1.727"/><circle cx="3185.9" cy="70.2" r="246.5" stroke="#cacad0" stroke-width="1.724"/><circle cx="3182.8" cy="73" r="249.2" stroke="#cacad0" stroke-width="1.721"/><circle cx="3179.6" cy="75.9" r="251.9" stroke="#cacad0" stroke-width="1.718"/><circle cx="3176.5" cy="78.7" r="254.6" stroke="#cacad1" stroke-width="1.715"/><circle cx="3173.4" cy="81.6" r="257.3" stroke="#cacad1" stroke-width="1.712"/><circle cx="3170.3" cy="84.4" r="260.1" stroke="#cacad1" stroke-width="1.709"/><circle cx="3167.2" cy="87.3" r="262.8" stroke="#cacad1" stroke-width="1.706"/><circle cx="3164.1" cy="90.2" r="265.5" stroke="#cbcbd1" stroke-width="1.702"/><circle cx="3161" cy="93" r="268.2" stroke="#cbcbd1" stroke-width="1.699"/><circle cx="3157.9" cy="95.9" r="270.9" stroke="#cbcbd1" stroke-width="1.696"/><circle cx="3154.8" cy="98.7" r="273.7" stroke="#cbcbd1" stroke-width="1.693"/><circle cx="3151.6" cy="101.6" r="276.4" stroke="#cbcbd1" stroke-width="1.69"/><circle cx="3148.5" cy="104.4" r="279.1" stroke="#cbcbd1" stroke-width="1.687"/><circle cx="3145.4" cy="107.3" r="281.8" stroke="#cbcbd1" stroke-width="1.684"/><circle cx="3142.3" cy="110.1" r="284.5" stroke="#cbcbd1" stroke-width="1.681"/><circle cx="3139.2" cy="113" r="287.3" stroke="#cbcbd1" stroke-width="1.678"/><circle cx="3136.1" cy="115.9" r="290" stroke="#cbcbd1" stroke-width="1.675"/><circle cx="3133" cy="118.7" r="292.7" stroke="#cbcbd1" stroke-width="1.671"/><circle cx="3129.9" cy="121.6" r="295.4" stroke="#cbcbd1" stroke-width="1.668"/><circle cx="3126.8" cy="124.4" r="298.2" stroke="#cbcbd1" stroke-width="1.665"/><circle cx="3123.7" cy="127.3" r="300.9" stroke="#cbcbd2" stroke-width="1.662"/><circle cx="3120.5" cy="130.1" r="303.6" stroke="#cbcbd2" stroke-width="1.659"/><circle cx="3117.4" cy="133" r="306.3" stroke="#cbcbd2" stroke-width="1.656"/><circle cx="3114.3" cy="135.9" r="309.1" stroke="#cbcbd2" stroke-width="1.653"/><circle cx="3111.2" cy="138.7" r="311.8" stroke="#ccccd2" stroke-width="1.65"/><circle cx="3108.1" cy="141.6" r="314.5" stroke="#ccccd2" stroke-width="1.647"/><circle cx="3105" cy="144.4" r="317.3" stroke="#ccccd2" stroke-width="1.644"/><circle cx="3101.9" cy="147.3" r="320" stroke="#ccccd2" stroke-width="1.641"/><circle cx="3098.8" cy="150.1" r="322.7" stroke="#ccccd2" stroke-width="1.637"/><circle cx="3095.7" cy="153" r="325.4" stroke="#ccccd2" stroke-width="1.634"/><circle cx="3092.6" cy="155.8" r="328.2" stroke="#ccccd2" stroke-width="1.631"/><circle cx="3089.4" cy="158.7" r="330.9" stroke="#ccccd2" stroke-width="1.628"/><circle cx="3086.3" cy="161.6" r="333.6" stroke="#ccccd2" stroke-width="1.625"/><circle cx="3083.2" cy="164.4" r="336.4" stroke="#ccccd2" stroke-width="1.622"/><circle cx="3080.1" cy="167.3" r="339.1" stroke="#ccccd2" stroke-width="1.619"/><circle cx="3077" cy="170.1" r="341.8" stroke="#ccccd2" stroke-width="1.616"/><circle cx="3073.9" cy="173" r="344.5" stroke="#ccccd2" stroke-width="1.613"/><circle cx="3070.8" cy="175.8" r="347.3" stroke="#ccccd3" stroke-width="1.609"/><circle cx="3067.7" cy="178.7" r="350" stroke="#ccccd3" stroke-width="1.606"/><circle cx="3064.6" cy="181.6" r="352.7" stroke="#ccccd3" stroke-width="1.603"/><circle cx="3061.4" cy="184.4" r="355.5" stroke="#ccccd3" stroke-width="1.6"/><circle cx="3058.3" cy="187.3" r="358.2" stroke="#cdcdd3" stroke-width="1.597"/><circle cx="3055.2" cy="190.1" r="360.9" stroke="#cdcdd3" stroke-width="1.594"/><circle cx="3052.1" cy="193" r="363.7" stroke="#cdcdd3" stroke-width="1.591"/><circle cx="3049" cy="195.8" r="366.4" stroke="#cdcdd3" stroke-width="1.588"/><circle cx="3045.9" cy="198.7" r="369.1" stroke="#cdcdd3" stroke-width="1.585"/><circle cx="3042.8" cy="201.6" r="371.9" stroke="#cdcdd3" stroke-width="1.582"/><circle cx="3039.7" cy="204.4" r="374.6" stroke="#cdcdd3" stroke-width="1.579"/><circle cx="3036.6" cy="207.3" r="377.3" stroke="#cdcdd3" stroke-width="1.575"/><circle cx="3033.5" cy="210.1" r="380.1" stroke="#cdcdd3" stroke-width="1.572"/><circle cx="3030.3" cy="213" r="382.8" stroke="#cdcdd3" stroke-width="1.569"/><circle cx="3027.2" cy="215.8" r="385.5" stroke="#cdcdd3" stroke-width="1.566"/><circle cx="3024.1" cy="218.7" r="388.3" stroke="#cdcdd3" stroke-width="1.563"/><circle cx="3021" cy="221.5" r="391" stroke="#cdcdd4" stroke-width="1.56"/><circle cx="3017.9" cy="224.4" r="393.7" stroke="#cdcdd4" stroke-width="1.557"/><circle cx="3014.8" cy="227.3" r="396.5" stroke="#cdcdd4" stroke-width="1.554"/><circle cx="3011.7" cy="230.1" r="399.2" stroke="#cdcdd4" stroke-width="1.551"/><circle cx="3008.6" cy="233" r="402" stroke="#cdcdd4" stroke-width="1.548"/><circle cx="3005.5" cy="235.8" r="404.7" stroke="#ceced4" stroke-width="1.544"/><circle cx="3002.4" cy="238.7" r="407.4" stroke="#ceced4" stroke-width="1.541"/><circle cx="2999.2" cy="241.5" r="410.2" stroke="#ceced4" stroke-width="1.538"/><circle cx="2996.1" cy="244.4" r="412.9" stroke="#ceced4" stroke-width="1.535"/><circle cx="2993" cy="247.3" r="415.6" stroke="#ceced4" stroke-width="1.532"/><circle cx="2989.9" cy="250.1" r="418.4" stroke="#ceced4" stroke-width="1.529"/><circle cx="2986.8" cy="253" r="421.1" stroke="#ceced4" stroke-width="1.526"/><circle cx="2983.7" cy="255.8" r="423.8" stroke="#ceced4" stroke-width="1.523"/><circle cx="2980.6" cy="258.7" r="426.6" stroke="#ceced4" stroke-width="1.52"/><circle cx="2977.5" cy="261.5" r="429.3" stroke="#ceced4" stroke-width="1.516"/><circle cx="2974.4" cy="264.4" r="432.1" stroke="#ceced4" stroke-width="1.513"/><circle cx="2971.2" cy="267.3" r="434.8" stroke="#ceced4" stroke-width="1.51"/><circle cx="2968.1" cy="270.1" r="437.5" stroke="#ceced5" stroke-width="1.507"/><circle cx="2965" cy="273" r="440.3" stroke="#ceced5" stroke-width="1.504"/><circle cx="2961.9" cy="275.8" r="443" stroke="#ceced5" stroke-width="1.501"/><circle cx="2958.8" cy="278.7" r="445.7" stroke="#ceced5" stroke-width="1.498"/><circle cx="2955.7" cy="281.5" r="448.5" stroke="#ceced5" stroke-width="1.495"/><circle cx="2952.6" cy="284.4" r="451.2" stroke="#ceced5" stroke-width="1.492"/><circle cx="2949.5" cy="287.2" r="454" stroke="#cfcfd5" stroke-width="1.489"/><circle cx="2946.4" cy="290.1" r="456.7" stroke="#cfcfd5" stroke-width="1.486"/><circle cx="2943.3" cy="293" r="459.4" stroke="#cfcfd5" stroke-width="1.482"/><circle cx="2940.1" cy="295.8" r="462.2" stroke="#cfcfd5" stroke-width="1.479"/><circle cx="2937" cy="298.7" r="464.9" stroke="#cfcfd5" stroke-width="1.476"/><circle cx="2933.9" cy="301.5" r="467.6" stroke="#cfcfd5" stroke-width="1.473"/><circle cx="2930.8" cy="304.4" r="470.4" stroke="#cfcfd5" stroke-width="1.47"/><circle cx="2927.7" cy="307.2" r="473.1" stroke="#cfcfd5" stroke-width="1.467"/><circle cx="2924.6" cy="310.1" r="475.9" stroke="#cfcfd5" stroke-width="1.464"/><circle cx="2921.5" cy="313" r="478.6" stroke="#cfcfd5" stroke-width="1.461"/><circle cx="2918.4" cy="315.8" r="481.3" stroke="#cfcfd5" stroke-width="1.458"/><circle cx="2915.3" cy="318.7" r="484.1" stroke="#cfcfd6" stroke-width="1.454"/><circle cx="2912.2" cy="321.5" r="486.8" stroke="#cfcfd6" stroke-width="1.451"/><circle cx="2909" cy="324.4" r="489.6" stroke="#cfcfd6" stroke-width="1.448"/><circle cx="2905.9" cy="327.2" r="492.3" stroke="#cfcfd6" stroke-width="1.445"/><circle cx="2902.8" cy="330.1" r="495" stroke="#cfcfd6" stroke-width="1.442"/><circle cx="2899.7" cy="333" r="497.8" stroke="#cfcfd6" stroke-width="1.439"/><circle cx="2896.6" cy="335.8" r="500.5" stroke="#d0d0d6" stroke-width="1.436"/><circle cx="2893.5" cy="338.7" r="503.3" stroke="#d0d0d6" stroke-width="1.433"/><circle cx="2890.4" cy="341.5" r="506" stroke="#d0d0d6" stroke-width="1.43"/><circle cx="2887.3" cy="344.4" r="508.7" stroke="#d0d0d6" stroke-width="1.427"/><circle cx="2884.2" cy="347.2" r="511.5" stroke="#d0d0d6" stroke-width="1.424"/><circle cx="2881" cy="350.1" r="514.2" stroke="#d0d0d6" stroke-width="1.421"/><circle cx="2877.9" cy="352.9" r="517" stroke="#d0d0d6" stroke-width="1.417"/><circle cx="2874.8" cy="355.8" r="519.7" stroke="#d0d0d6" stroke-width="1.414"/><circle cx="2871.7" cy="358.7" r="522.4" stroke="#d0d0d6" stroke-width="1.411"/><circle cx="2868.6" cy="361.5" r="525.2" stroke="#d0d0d6" stroke-width="1.408"/><circle cx="2865.5" cy="364.4" r="527.9" stroke="#d0d0d7" stroke-width="1.405"/><circle cx="2862.4" cy="367.2" r="530.7" stroke="#d0d0d7" stroke-width="1.402"/><circle cx="2859.3" cy="370.1" r="533.4" stroke="#d0d0d7" stroke-width="1.399"/><circle cx="2856.2" cy="372.9" r="536.1" stroke="#d0d0d7" stroke-width="1.396"/><circle cx="2853.1" cy="375.8" r="538.9" stroke="#d0d0d7" stroke-width="1.393"/><circle cx="2849.9" cy="378.7" r="541.6" stroke="#d0d0d7" stroke-width="1.389"/><circle cx="2846.8" cy="381.5" r="544.4" stroke="#d0d0d7" stroke-width="1.386"/><circle cx="2843.7" cy="384.4" r="547.1" stroke="#d1d1d7" stroke-width="1.383"/><circle cx="2840.6" cy="387.2" r="549.9" stroke="#d1d1d7" stroke-width="1.38"/><circle cx="2837.5" cy="390.1" r="552.6" stroke="#d1d1d7" stroke-width="1.377"/><circle cx="2834.4" cy="392.9" r="555.3" stroke="#d1d1d7" stroke-width="1.374"/><circle cx="2831.3" cy="395.8" r="558.1" stroke="#d1d1d7" stroke-width="1.371"/><circle cx="2828.2" cy="398.6" r="560.8" stroke="#d1d1d7" stroke-width="1.368"/><circle cx="2825.1" cy="401.5" r="563.6" stroke="#d1d1d7" stroke-width="1.365"/><circle cx="2822" cy="404.4" r="566.3" stroke="#d1d1d7" stroke-width="1.362"/><circle cx="2818.8" cy="407.2" r="569" stroke="#d1d1d7" stroke-width="1.359"/><circle cx="2815.7" cy="410.1" r="571.8" stroke="#d1d1d7" stroke-width="1.355"/><circle cx="2812.6" cy="412.9" r="574.5" stroke="#d1d1d8" stroke-width="1.352"/><circle cx="2809.5" cy="415.8" r="577.3" stroke="#d1d1d8" stroke-width="1.349"/><circle cx="2806.4" cy="418.6" r="580" stroke="#d1d1d8" stroke-width="1.346"/><circle cx="2803.3" cy="421.5" r="582.8" stroke="#d1d1d8" stroke-width="1.343"/><circle cx="2800.2" cy="424.4" r="585.5" stroke="#d1d1d8" stroke-width="1.34"/><circle cx="2797.1" cy="427.2" r="588.2" stroke="#d1d1d8" stroke-width="1.337"/><circle cx="2794" cy="430.1" r="591" stroke="#d1d1d8" stroke-width="1.334"/><circle cx="2790.8" cy="432.9" r="593.7" stroke="#d1d1d8" stroke-width="1.331"/><circle cx="2787.7" cy="435.8" r="596.5" stroke="#d2d2d8" stroke-width="1.327"/><circle cx="2784.6" cy="438.6" r="599.2" stroke="#d2d2d8" stroke-width="1.324"/><circle cx="2781.5" cy="441.5" r="602" stroke="#d2d2d8" stroke-width="1.321"/><circle cx="2778.4" cy="444.4" r="604.7" stroke="#d2d2d8" stroke-width="1.318"/><circle cx="2775.3" cy="447.2" r="607.4" stroke="#d2d2d8" stroke-width="1.315"/><circle cx="2772.2" cy="450.1" r="610.2" stroke="#d2d2d8" stroke-width="1.312"/><circle cx="2769.1" cy="452.9" r="612.9" stroke="#d2d2d8" stroke-width="1.309"/><circle cx="2766" cy="455.8" r="615.7" stroke="#d2d2d8" stroke-width="1.306"/><circle cx="2762.9" cy="458.6" r="618.4" stroke="#d2d2d8" stroke-width="1.303"/><circle cx="2759.7" cy="461.5" r="621.2" stroke="#d2d2d9" stroke-width="1.3"/><circle cx="2756.6" cy="464.3" r="623.9" stroke="#d2d2d9" stroke-width="1.296"/><circle cx="2753.5" cy="467.2" r="626.6" stroke="#d2d2d9" stroke-width="1.293"/><circle cx="2750.4" cy="470.1" r="629.4" stroke="#d2d2d9" stroke-width="1.29"/><circle cx="2747.3" cy="472.9" r="632.1" stroke="#d2d2d9" stroke-width="1.287"/><circle cx="2744.2" cy="475.8" r="634.9" stroke="#d2d2d9" stroke-width="1.284"/><circle cx="2741.1" cy="478.6" r="637.6" stroke="#d2d2d9" stroke-width="1.281"/><circle cx="2738" cy="481.5" r="640.4" stroke="#d2d2d9" stroke-width="1.278"/><circle cx="2734.9" cy="484.3" r="643.1" stroke="#d3d3d9" stroke-width="1.275"/><circle cx="2731.7" cy="487.2" r="645.8" stroke="#d3d3d9" stroke-width="1.272"/><circle cx="2728.6" cy="490.1" r="648.6" stroke="#d3d3d9" stroke-width="1.269"/><circle cx="2725.5" cy="492.9" r="651.3" stroke="#d3d3d9" stroke-width="1.266"/><circle cx="2722.4" cy="495.8" r="654.1" stroke="#d3d3d9" stroke-width="1.262"/><circle cx="2719.3" cy="498.6" r="656.8" stroke="#d3d3d9" stroke-width="1.259"/><circle cx="2716.2" cy="501.5" r="659.6" stroke="#d3d3d9" stroke-width="1.256"/><circle cx="2713.1" cy="504.3" r="662.3" stroke="#d3d3d9" stroke-width="1.253"/><circle cx="2710" cy="507.2" r="665" stroke="#d3d3d9" stroke-width="1.25"/><circle cx="2706.9" cy="510.1" r="667.8" stroke="#d3d3da" stroke-width="1.247"/><circle cx="2703.8" cy="512.9" r="670.5" stroke="#d3d3da" stroke-width="1.244"/><circle cx="2700.6" cy="515.8" r="673.3" stroke="#d3d3da" stroke-width="1.241"/><circle cx="2697.5" cy="518.6" r="676" stroke="#d3d3da" stroke-width="1.238"/><circle cx="2694.4" cy="521.5" r="678.8" stroke="#d3d3da" stroke-width="1.234"/><circle cx="2691.3" cy="524.3" r="681.5" stroke="#d3d3da" stroke-width="1.231"/><circle cx="2688.2" cy="527.2" r="684.2" stroke="#d3d3da" stroke-width="1.228"/><circle cx="2685.1" cy="530" r="687" stroke="#d3d3da" stroke-width="1.225"/><circle cx="2682" cy="532.9" r="689.7" stroke="#d4d4da" stroke-width="1.222"/><circle cx="2678.9" cy="535.8" r="692.5" stroke="#d4d4da" stroke-width="1.219"/><circle cx="2675.8" cy="538.6" r="695.2" stroke="#d4d4da" stroke-width="1.216"/><circle cx="2672.7" cy="541.5" r="698" stroke="#d4d4da" stroke-width="1.213"/><circle cx="2669.5" cy="544.3" r="700.7" stroke="#d4d4da" stroke-width="1.21"/><circle cx="2666.4" cy="547.2" r="703.5" stroke="#d4d4da" stroke-width="1.207"/><circle cx="2663.3" cy="550" r="706.2" stroke="#d4d4da" stroke-width="1.204"/><circle cx="2660.2" cy="552.9" r="708.9" stroke="#d4d4da" stroke-width="1.2"/><circle cx="2657.1" cy="555.8" r="711.7" stroke="#d4d4db" stroke-width="1.197"/><circle cx="2654" cy="558.6" r="714.4" stroke="#d4d4db" stroke-width="1.194"/><circle cx="2650.9" cy="561.5" r="717.2" stroke="#d4d4db" stroke-width="1.191"/><circle cx="2647.8" cy="564.3" r="719.9" stroke="#d4d4db" stroke-width="1.188"/><circle cx="2644.7" cy="567.2" r="722.7" stroke="#d4d4db" stroke-width="1.185"/><circle cx="2641.5" cy="570" r="725.4" stroke="#d4d4db" stroke-width="1.182"/><circle cx="2638.4" cy="572.9" r="728.2" stroke="#d4d4db" stroke-width="1.179"/><circle cx="2635.3" cy="575.7" r="730.9" stroke="#d4d4db" stroke-width="1.176"/><circle cx="2632.2" cy="578.6" r="733.6" stroke="#d4d4db" stroke-width="1.173"/><circle cx="2629.1" cy="581.5" r="736.4" stroke="#d5d5db" stroke-width="1.169"/><circle cx="2626" cy="584.3" r="739.1" stroke="#d5d5db" stroke-width="1.166"/><circle cx="2622.9" cy="587.2" r="741.9" stroke="#d5d5db" stroke-width="1.163"/><circle cx="2619.8" cy="590" r="744.6" stroke="#d5d5db" stroke-width="1.16"/><circle cx="2616.7" cy="592.9" r="747.4" stroke="#d5d5db" stroke-width="1.157"/><circle cx="2613.6" cy="595.7" r="750.1" stroke="#d5d5db" stroke-width="1.154"/><circle cx="2610.4" cy="598.6" r="752.9" stroke="#d5d5db" stroke-width="1.151"/><circle cx="2607.3" cy="601.5" r="755.6" stroke="#d5d5db" stroke-width="1.148"/><circle cx="2604.2" cy="604.3" r="758.3" stroke="#d5d5dc" stroke-width="1.145"/><circle cx="2601.1" cy="607.2" r="761.1" stroke="#d5d5dc" stroke-width="1.141"/><circle cx="2598" cy="610" r="763.8" stroke="#d5d5dc" stroke-width="1.138"/><circle cx="2594.9" cy="612.9" r="766.6" stroke="#d5d5dc" stroke-width="1.135"/><circle cx="2591.8" cy="615.7" r="769.3" stroke="#d5d5dc" stroke-width="1.132"/><circle cx="2588.7" cy="618.6" r="772.1" stroke="#d5d5dc" stroke-width="1.129"/><circle cx="2585.6" cy="621.5" r="774.8" stroke="#d5d5dc" stroke-width="1.126"/><circle cx="2582.5" cy="624.3" r="777.6" stroke="#d5d5dc" stroke-width="1.123"/><circle cx="2579.3" cy="627.2" r="780.3" stroke="#d5d5dc" stroke-width="1.12"/><circle cx="2576.2" cy="630" r="783" stroke="#d5d5dc" stroke-width="1.117"/><circle cx="2573.1" cy="632.9" r="785.8" stroke="#d6d6dc" stroke-width="1.114"/><circle cx="2570" cy="635.7" r="788.5" stroke="#d6d6dc" stroke-width="1.111"/><circle cx="2566.9" cy="638.6" r="791.3" stroke="#d6d6dc" stroke-width="1.107"/><circle cx="2563.8" cy="641.4" r="794" stroke="#d6d6dc" stroke-width="1.104"/><circle cx="2560.7" cy="644.3" r="796.8" stroke="#d6d6dc" stroke-width="1.101"/><circle cx="2557.6" cy="647.2" r="799.5" stroke="#d6d6dc" stroke-width="1.098"/><circle cx="2554.5" cy="650" r="802.3" stroke="#d6d6dc" stroke-width="1.095"/><circle cx="2551.3" cy="652.9" r="805" stroke="#d6d6dd" stroke-width="1.092"/><circle cx="2548.2" cy="655.7" r="807.8" stroke="#d6d6dd" stroke-width="1.089"/><circle cx="2545.1" cy="658.6" r="810.5" stroke="#d6d6dd" stroke-width="1.086"/><circle cx="2542" cy="661.4" r="813.2" stroke="#d6d6dd" stroke-width="1.083"/><circle cx="2538.9" cy="664.3" r="816" stroke="#d6d6dd" stroke-width="1.079"/><circle cx="2535.8" cy="667.2" r="818.7" stroke="#d6d6dd" stroke-width="1.076"/><circle cx="2532.7" cy="670" r="821.5" stroke="#d6d6dd" stroke-width="1.073"/><circle cx="2529.6" cy="672.9" r="824.2" stroke="#d6d6dd" stroke-width="1.07"/><circle cx="2526.5" cy="675.7" r="827" stroke="#d6d6dd" stroke-width="1.067"/><circle cx="2523.4" cy="678.6" r="829.7" stroke="#d6d6dd" stroke-width="1.064"/><circle cx="2520.2" cy="681.4" r="832.5" stroke="#d7d7dd" stroke-width="1.061"/><circle cx="2517.1" cy="684.3" r="835.2" stroke="#d7d7dd" stroke-width="1.058"/><circle cx="2514" cy="687.2" r="837.9" stroke="#d7d7dd" stroke-width="1.055"/><circle cx="2510.9" cy="690" r="840.7" stroke="#d7d7dd" stroke-width="1.052"/><circle cx="2507.8" cy="692.9" r="843.4" stroke="#d7d7dd" stroke-width="1.049"/><circle cx="2504.7" cy="695.7" r="846.2" stroke="#d7d7dd" stroke-width="1.046"/><circle cx="2501.6" cy="698.6" r="848.9" stroke="#d7d7de" stroke-width="1.042"/><circle cx="2498.5" cy="701.4" r="851.7" stroke="#d7d7de" stroke-width="1.039"/><circle cx="2495.4" cy="704.3" r="854.4" stroke="#d7d7de" stroke-width="1.036"/><circle cx="2492.3" cy="707.1" r="857.2" stroke="#d7d7de" stroke-width="1.033"/><circle cx="2489.1" cy="710" r="859.9" stroke="#d7d7de" stroke-width="1.03"/><circle cx="2486" cy="712.9" r="862.7" stroke="#d7d7de" stroke-width="1.027"/><circle cx="2482.9" cy="715.7" r="865.4" stroke="#d7d7de" stroke-width="1.024"/><circle cx="2479.8" cy="718.6" r="868.1" stroke="#d7d7de" stroke-width="1.021"/><circle cx="2476.7" cy="721.4" r="870.9" stroke="#d7d7de" stroke-width="1.018"/><circle cx="2473.6" cy="724.3" r="873.6" stroke="#d7d7de" stroke-width="1.014"/><circle cx="2470.5" cy="727.1" r="876.4" stroke="#d7d7de" stroke-width="1.011"/><circle cx="2467.4" cy="730" r="879.1" stroke="#d8d8de" stroke-width="1.008"/><circle cx="2464.3" cy="732.9" r="881.9" stroke="#d8d8de" stroke-width="1.005"/><circle cx="2461.1" cy="735.7" r="884.6" stroke="#d8d8de" stroke-width="1.002"/><circle cx="2458" cy="738.6" r="887.4" stroke="#d8d8de" stroke-width=".999"/><circle cx="2454.9" cy="741.4" r="890.1" stroke="#d8d8de" stroke-width=".996"/><circle cx="2451.8" cy="744.3" r="892.9" stroke="#d8d8de" stroke-width=".993"/><circle cx="2448.7" cy="747.1" r="895.6" stroke="#d8d8df" stroke-width=".99"/><circle cx="2445.6" cy="750" r="898.3" stroke="#d8d8df" stroke-width=".987"/><circle cx="2442.5" cy="752.8" r="901.1" stroke="#d8d8df" stroke-width=".984"/><circle cx="2439.4" cy="755.7" r="903.8" stroke="#d8d8df" stroke-width=".98"/><circle cx="2436.3" cy="758.6" r="906.6" stroke="#d8d8df" stroke-width=".977"/><circle cx="2433.2" cy="761.4" r="909.3" stroke="#d8d8df" stroke-width=".974"/><circle cx="2430" cy="764.3" r="912.1" stroke="#d8d8df" stroke-width=".971"/><circle cx="2426.9" cy="767.1" r="914.8" stroke="#d8d8df" stroke-width=".968"/><circle cx="2423.8" cy="770" r="917.6" stroke="#d8d8df" stroke-width=".965"/><circle cx="2420.7" cy="772.8" r="920.3" stroke="#d8d8df" stroke-width=".962"/><circle cx="2417.6" cy="775.7" r="923.1" stroke="#d8d8df" stroke-width=".959"/><circle cx="2414.5" cy="778.6" r="925.8" stroke="#d8d8df" stroke-width=".956"/><circle cx="2411.4" cy="781.4" r="928.5" stroke="#d9d9df" stroke-width=".953"/><circle cx="2408.3" cy="784.3" r="931.3" stroke="#d9d9df" stroke-width=".949"/><circle cx="2405.2" cy="787.1" r="934" stroke="#d9d9df" stroke-width=".946"/><circle cx="2402.1" cy="790" r="936.8" stroke="#d9d9df" stroke-width=".943"/><circle cx="2398.9" cy="792.8" r="939.5" stroke="#d9d9df" stroke-width=".94"/><circle cx="2395.8" cy="795.7" r="942.3" stroke="#d9d9e0" stroke-width=".937"/><circle cx="2392.7" cy="798.6" r="945" stroke="#d9d9e0" stroke-width=".934"/><circle cx="2389.6" cy="801.4" r="947.8" stroke="#d9d9e0" stroke-width=".931"/><circle cx="2386.5" cy="804.3" r="950.5" stroke="#d9d9e0" stroke-width=".928"/><circle cx="2383.4" cy="807.1" r="953.3" stroke="#d9d9e0" stroke-width=".925"/><circle cx="2380.3" cy="810" r="956" stroke="#d9d9e0" stroke-width=".921"/><circle cx="2377.2" cy="812.8" r="958.8" stroke="#d9d9e0" stroke-width=".918"/><circle cx="2374.1" cy="815.7" r="961.5" stroke="#d9d9e0" stroke-width=".915"/><circle cx="2370.9" cy="818.5" r="964.2" stroke="#d9d9e0" stroke-width=".912"/><circle cx="2367.8" cy="821.4" r="967" stroke="#d9d9e0" stroke-width=".909"/><circle cx="2364.7" cy="824.3" r="969.7" stroke="#d9d9e0" stroke-width=".906"/><circle cx="2361.6" cy="827.1" r="972.5" stroke="#d9d9e0" stroke-width=".903"/><circle cx="2358.5" cy="830" r="975.2" stroke="#dadae0" stroke-width=".9"/><circle cx="2355.4" cy="832.8" r="978" stroke="#dadae0" stroke-width=".897"/><circle cx="2352.3" cy="835.7" r="980.7" stroke="#dadae0" stroke-width=".894"/><circle cx="2349.2" cy="838.5" r="983.5" stroke="#dadae0" stroke-width=".89"/><circle cx="2346.1" cy="841.4" r="986.2" stroke="#dadae1" stroke-width=".887"/><circle cx="2343" cy="844.3" r="989" stroke="#dadae1" stroke-width=".884"/><circle cx="2339.8" cy="847.1" r="991.7" stroke="#dadae1" stroke-width=".881"/><circle cx="2336.7" cy="850" r="994.5" stroke="#dadae1" stroke-width=".878"/><circle cx="2333.6" cy="852.8" r="997.2" stroke="#dadae1" stroke-width=".875"/><circle cx="2330.5" cy="855.7" r="999.9" stroke="#dadae1" stroke-width=".872"/><circle cx="2327.4" cy="858.5" r="1002.7" stroke="#dadae1" stroke-width=".869"/><circle cx="2324.3" cy="861.4" r="1005.4" stroke="#dadae1" stroke-width=".866"/><circle cx="2321.2" cy="864.3" r="1008.2" stroke="#dadae1" stroke-width=".863"/><circle cx="2318.1" cy="867.1" r="1010.9" stroke="#dadae1" stroke-width=".86"/><circle cx="2315" cy="870" r="1013.7" stroke="#dadae1" stroke-width=".856"/><circle cx="2311.9" cy="872.8" r="1016.4" stroke="#dadae1" stroke-width=".853"/><circle cx="2308.7" cy="875.7" r="1019.2" stroke="#dadae1" stroke-width=".85"/><circle cx="2305.6" cy="878.5" r="1021.9" stroke="#dbdbe1" stroke-width=".847"/><circle cx="2302.5" cy="881.4" r="1024.7" stroke="#dbdbe1" stroke-width=".844"/><circle cx="2299.4" cy="884.2" r="1027.4" stroke="#dbdbe1" stroke-width=".841"/><circle cx="2296.3" cy="887.1" r="1030.2" stroke="#dbdbe1" stroke-width=".838"/><circle cx="2293.2" cy="890" r="1032.9" stroke="#dbdbe2" stroke-width=".835"/><circle cx="2290.1" cy="892.8" r="1035.6" stroke="#dbdbe2" stroke-width=".832"/><circle cx="2287" cy="895.7" r="1038.4" stroke="#dbdbe2" stroke-width=".829"/><circle cx="2283.9" cy="898.5" r="1041.1" stroke="#dbdbe2" stroke-width=".825"/><circle cx="2280.7" cy="901.4" r="1043.9" stroke="#dbdbe2" stroke-width=".822"/><circle cx="2277.6" cy="904.2" r="1046.6" stroke="#dbdbe2" stroke-width=".819"/><circle cx="2274.5" cy="907.1" r="1049.4" stroke="#dbdbe2" stroke-width=".816"/><circle cx="2271.4" cy="910" r="1052.1" stroke="#dbdbe2" stroke-width=".813"/><circle cx="2268.3" cy="912.8" r="1054.9" stroke="#dbdbe2" stroke-width=".81"/><circle cx="2265.2" cy="915.7" r="1057.6" stroke="#dbdbe2" stroke-width=".807"/><circle cx="2262.1" cy="918.5" r="1060.4" stroke="#dbdbe2" stroke-width=".804"/><circle cx="2259" cy="921.4" r="1063.1" stroke="#dbdbe2" stroke-width=".801"/><circle cx="2255.9" cy="924.2" r="1065.9" stroke="#dbdbe2" stroke-width=".797"/><circle cx="2252.8" cy="927.1" r="1068.6" stroke="#dcdce2" stroke-width=".794"/><circle cx="2249.6" cy="929.9" r="1071.3" stroke="#dcdce2" stroke-width=".791"/><circle cx="2246.5" cy="932.8" r="1074.1" stroke="#dcdce2" stroke-width=".788"/><circle cx="2243.4" cy="935.7" r="1076.8" stroke="#dcdce2" stroke-width=".785"/><circle cx="2240.3" cy="938.5" r="1079.6" stroke="#dcdce3" stroke-width=".782"/><circle cx="2237.2" cy="941.4" r="1082.3" stroke="#dcdce3" stroke-width=".779"/><circle cx="2234.1" cy="944.2" r="1085.1" stroke="#dcdce3" stroke-width=".776"/><circle cx="2231" cy="947.1" r="1087.8" stroke="#dcdce3" stroke-width=".773"/><circle cx="2227.9" cy="949.9" r="1090.6" stroke="#dcdce3" stroke-width=".77"/><circle cx="2224.8" cy="952.8" r="1093.3" stroke="#dcdce3" stroke-width=".766"/><circle cx="2221.7" cy="955.7" r="1096.1" stroke="#dcdce3" stroke-width=".763"/><circle cx="2218.5" cy="958.5" r="1098.8" stroke="#dcdce3" stroke-width=".76"/><circle cx="2215.4" cy="961.4" r="1101.6" stroke="#dcdce3" stroke-width=".757"/><circle cx="2212.3" cy="964.2" r="1104.3" stroke="#dcdce3" stroke-width=".754"/><circle cx="2209.2" cy="967.1" r="1107" stroke="#dcdce3" stroke-width=".751"/><circle cx="2206.1" cy="969.9" r="1109.8" stroke="#dcdce3" stroke-width=".748"/><circle cx="2203" cy="972.8" r="1112.5" stroke="#dcdce3" stroke-width=".745"/><circle cx="2199.9" cy="975.7" r="1115.3" stroke="#dcdce3" stroke-width=".742"/><circle cx="2196.8" cy="978.5" r="1118" stroke="#dddde3" stroke-width=".739"/><circle cx="2193.7" cy="981.4" r="1120.8" stroke="#dddde3" stroke-width=".736"/><circle cx="2190.5" cy="984.2" r="1123.5" stroke="#dddde4" stroke-width=".732"/><circle cx="2187.4" cy="987.1" r="1126.3" stroke="#dddde4" stroke-width=".729"/><circle cx="2184.3" cy="989.9" r="1129" stroke="#dddde4" stroke-width=".726"/><circle cx="2181.2" cy="992.8" r="1131.8" stroke="#dddde4" stroke-width=".723"/><circle cx="2178.1" cy="995.6" r="1134.5" stroke="#dddde4" stroke-width=".72"/><circle cx="2175" cy="998.5" r="1137.3" stroke="#dddde4" stroke-width=".717"/><circle cx="2171.9" cy="1001.4" r="1140" stroke="#dddde4" stroke-width=".714"/><circle cx="2168.8" cy="1004.2" r="1142.8" stroke="#dddde4" stroke-width=".711"/><circle cx="2165.7" cy="1007.1" r="1145.5" stroke="#dddde4" stroke-width=".708"/><circle cx="2162.6" cy="1009.9" r="1148.2" stroke="#dddde4" stroke-width=".705"/><circle cx="2159.4" cy="1012.8" r="1151" stroke="#dddde4" stroke-width=".701"/><circle cx="2156.3" cy="1015.6" r="1153.7" stroke="#dddde4" stroke-width=".698"/><circle cx="2153.2" cy="1018.5" r="1156.5" stroke="#dddde4" stroke-width=".695"/><circle cx="2150.1" cy="1021.4" r="1159.2" stroke="#dddde4" stroke-width=".692"/><circle cx="2147" cy="1024.2" r="1162" stroke="#dddde4" stroke-width=".689"/><circle cx="2143.9" cy="1027.1" r="1164.7" stroke="#dedee4" stroke-width=".686"/><circle cx="2140.8" cy="1029.9" r="1167.5" stroke="#dedee4" stroke-width=".683"/><circle cx="2137.7" cy="1032.8" r="1170.2" stroke="#dedee5" stroke-width=".68"/><circle cx="2134.6" cy="1035.6" r="1173" stroke="#dedee5" stroke-width=".677"/><circle cx="2131.4" cy="1038.5" r="1175.7" stroke="#dedee5" stroke-width=".674"/><circle cx="2128.3" cy="1041.4" r="1178.5" stroke="#dedee5" stroke-width=".67"/><circle cx="2125.2" cy="1044.2" r="1181.2" stroke="#dedee5" stroke-width=".667"/><circle cx="2122.1" cy="1047.1" r="1184" stroke="#dedee5" stroke-width=".664"/><circle cx="2119" cy="1049.9" r="1186.7" stroke="#dedee5" stroke-width=".661"/><circle cx="2115.9" cy="1052.8" r="1189.4" stroke="#dedee5" stroke-width=".658"/><circle cx="2112.8" cy="1055.6" r="1192.2" stroke="#dedee5" stroke-width=".655"/><circle cx="2109.7" cy="1058.5" r="1194.9" stroke="#dedee5" stroke-width=".652"/><circle cx="2106.6" cy="1061.3" r="1197.7" stroke="#dedee5" stroke-width=".649"/><circle cx="2103.5" cy="1064.2" r="1200.4" stroke="#dedee5" stroke-width=".646"/><circle cx="2100.3" cy="1067.1" r="1203.2" stroke="#dedee5" stroke-width=".643"/><circle cx="2097.2" cy="1069.9" r="1205.9" stroke="#dedee5" stroke-width=".639"/><circle cx="2094.1" cy="1072.8" r="1208.7" stroke="#dedee5" stroke-width=".636"/><circle cx="2091" cy="1075.6" r="1211.4" stroke="#dfdfe5" stroke-width=".633"/><circle cx="2087.9" cy="1078.5" r="1214.2" stroke="#dfdfe5" stroke-width=".63"/><circle cx="2084.8" cy="1081.3" r="1216.9" stroke="#dfdfe6" stroke-width=".627"/><circle cx="2081.7" cy="1084.2" r="1219.7" stroke="#dfdfe6" stroke-width=".624"/><circle cx="2078.6" cy="1087.1" r="1222.4" stroke="#dfdfe6" stroke-width=".621"/><circle cx="2075.5" cy="1089.9" r="1225.2" stroke="#dfdfe6" stroke-width=".618"/><circle cx="2072.4" cy="1092.8" r="1227.9" stroke="#dfdfe6" stroke-width=".615"/><circle cx="2069.2" cy="1095.6" r="1230.6" stroke="#dfdfe6" stroke-width=".612"/><circle cx="2066.1" cy="1098.5" r="1233.4" stroke="#dfdfe6" stroke-width=".609"/><circle cx="2063" cy="1101.3" r="1236.1" stroke="#dfdfe6" stroke-width=".605"/><circle cx="2059.9" cy="1104.2" r="1238.9" stroke="#dfdfe6" stroke-width=".602"/><circle cx="2056.8" cy="1107" r="1241.6" stroke="#dfdfe6" stroke-width=".599"/><circle cx="2053.7" cy="1109.9" r="1244.4" stroke="#dfdfe6" stroke-width=".596"/><circle cx="2050.6" cy="1112.8" r="1247.1" stroke="#dfdfe6" stroke-width=".593"/><circle cx="2047.5" cy="1115.6" r="1249.9" stroke="#dfdfe6" stroke-width=".59"/><circle cx="2044.4" cy="1118.5" r="1252.6" stroke="#dfdfe6" stroke-width=".587"/><circle cx="2041.2" cy="1121.3" r="1255.4" stroke="#dfdfe6" stroke-width=".584"/><circle cx="2038.1" cy="1124.2" r="1258.1" stroke="#dfdfe6" stroke-width=".581"/><circle cx="2035" cy="1127" r="1260.9" stroke="#e0e0e7" stroke-width=".578"/><circle cx="2031.9" cy="1129.9" r="1263.6" stroke="#e0e0e7" stroke-width=".574"/><circle cx="2028.8" cy="1132.8" r="1266.4" stroke="#e0e0e7" stroke-width=".571"/><circle cx="2025.7" cy="1135.6" r="1269.1" stroke="#e0e0e7" stroke-width=".568"/><circle cx="2022.6" cy="1138.5" r="1271.9" stroke="#e0e0e7" stroke-width=".565"/><circle cx="2019.5" cy="1141.3" r="1274.6" stroke="#e0e0e7" stroke-width=".562"/><circle cx="2016.4" cy="1144.2" r="1277.3" stroke="#e0e0e7" stroke-width=".559"/><circle cx="2013.3" cy="1147" r="1280.1" stroke="#e0e0e7" stroke-width=".556"/><circle cx="2010.1" cy="1149.9" r="1282.8" stroke="#e0e0e7" stroke-width=".553"/><circle cx="2007" cy="1152.8" r="1285.6" stroke="#e0e0e7" stroke-width=".55"/><circle cx="2003.9" cy="1155.6" r="1288.3" stroke="#e0e0e7" stroke-width=".546"/><circle cx="2000.8" cy="1158.5" r="1291.1" stroke="#e0e0e7" stroke-width=".543"/><circle cx="1997.7" cy="1161.3" r="1293.8" stroke="#e0e0e7" stroke-width=".54"/><circle cx="1994.6" cy="1164.2" r="1296.6" stroke="#e0e0e7" stroke-width=".537"/><circle cx="1991.5" cy="1167" r="1299.3" stroke="#e0e0e7" stroke-width=".534"/><circle cx="1988.4" cy="1169.9" r="1302.1" stroke="#e0e0e7" stroke-width=".531"/><circle cx="1985.3" cy="1172.7" r="1304.8" stroke="#e0e0e7" stroke-width=".528"/><circle cx="1982.2" cy="1175.6" r="1307.6" stroke="#e1e1e8" stroke-width=".525"/><circle cx="1979" cy="1178.5" r="1310.3" stroke="#e1e1e8" stroke-width=".522"/><circle cx="1975.9" cy="1181.3" r="1313.1" stroke="#e1e1e8" stroke-width=".519"/><circle cx="1972.8" cy="1184.2" r="1315.8" stroke="#e1e1e8" stroke-width=".515"/><circle cx="1969.7" cy="1187" r="1318.5" stroke="#e1e1e8" stroke-width=".512"/><circle cx="1966.6" cy="1189.9" r="1321.3" stroke="#e1e1e8" stroke-width=".509"/><circle cx="1963.5" cy="1192.7" r="1324" stroke="#e1e1e8" stroke-width=".506"/><circle cx="1960.4" cy="1195.6" r="1326.8" stroke="#e1e1e8" stroke-width=".503"/><circle cx="1957.3" cy="1198.5" r="1329.5" stroke="#e1e1e8" stroke-width=".5"/></g></svg>