<svg version="1.1" id="Layer_1" xmlns="http://www.w3.org/2000/svg" xmlns:xlink="http://www.w3.org/1999/xlink" x="0" y="0" viewBox="0 0 768 1440" xml:space="preserve"><style>.st2{fill:none;stroke:#e1e1e8;stroke-width:.25;stroke-miterlimit:10}</style><path fill="#f7f8fa" d="M768.5 132.5l-768 348v607l768 251z"/><defs><path id="SVGID_1_" d="M.5 232.1v248.4l768-348z"/></defs><clipPath id="SVGID_2_"><use xlink:href="#SVGID_1_" overflow="visible"/></clipPath><g clip-path="url(#SVGID_2_)"><ellipse transform="rotate(-45.001 1089.662 179.514)" class="st2" cx="1089.7" cy="179.5" rx="16" ry="16"/><ellipse transform="rotate(-45.001 1087.891 179.455)" class="st2" cx="1087.9" cy="179.4" rx="16" ry="16"/><ellipse transform="rotate(-45.001 1086.15 179.367)" class="st2" cx="1086.1" cy="179.4" rx="16.1" ry="16.1"/><circle class="st2" cx="1084.4" cy="179.3" r="16.3"/><ellipse transform="rotate(-45.001 1082.579 179.219)" class="st2" cx="1082.6" cy="179.2" rx="16.5" ry="16.5"/><ellipse transform="rotate(-45.001 1080.837 179.13)" class="st2" cx="1080.8" cy="179.1" rx="16.9" ry="16.9"/><ellipse transform="rotate(-45.001 1079.066 179.072)" class="st2" cx="1079.1" cy="179.1" rx="17.2" ry="17.2"/><ellipse transform="rotate(-45.001 1077.325 178.983)" class="st2" cx="1077.3" cy="179" rx="17.7" ry="17.7"/><ellipse transform="rotate(-45.001 1075.554 178.924)" class="st2" cx="1075.6" cy="178.9" rx="18.2" ry="18.2"/><circle class="st2" cx="1073.8" cy="178.8" r="18.8"/><circle class="st2" cx="1072" cy="178.8" r="19.4"/><ellipse transform="rotate(-45.001 1070.27 178.717)" class="st2" cx="1070.3" cy="178.7" rx="20.1" ry="20.1"/><ellipse transform="rotate(-45.001 1068.529 178.629)" class="st2" cx="1068.5" cy="178.6" rx="20.8" ry="20.8"/><ellipse transform="rotate(-45.001 1066.758 178.57)" class="st2" cx="1066.8" cy="178.6" rx="21.5" ry="21.5"/><circle class="st2" cx="1065" cy="178.4" r="22.3"/><circle class="st2" cx="1063.2" cy="178.4" r="23.2"/><circle class="st2" cx="1061.5" cy="178.3" r="24"/><ellipse transform="rotate(-45.001 1059.704 178.245)" class="st2" cx="1059.7" cy="178.2" rx="24.9" ry="24.9"/><ellipse transform="rotate(-45.001 1057.962 178.156)" class="st2" cx="1058" cy="178.1" rx="25.8" ry="25.8"/><ellipse transform="rotate(-45.001 1056.191 178.097)" class="st2" cx="1056.2" cy="178.1" rx="26.7" ry="26.7"/><ellipse transform="rotate(-45.001 1054.42 178.038)" class="st2" cx="1054.4" cy="178" rx="27.6" ry="27.6"/><ellipse transform="rotate(-45.001 1052.679 177.95)" class="st2" cx="1052.7" cy="177.9" rx="28.6" ry="28.6"/><ellipse transform="rotate(-45.001 1050.908 177.89)" class="st2" cx="1050.9" cy="177.9" rx="29.5" ry="29.5"/><circle class="st2" cx="1049.1" cy="177.8" r="30.5"/><ellipse transform="rotate(-45.001 1047.366 177.713)" class="st2" cx="1047.4" cy="177.7" rx="31.4" ry="31.4"/><ellipse transform="rotate(-45.001 1045.625 177.625)" class="st2" cx="1045.6" cy="177.6" rx="32.4" ry="32.4"/><ellipse transform="rotate(-45.001 1043.854 177.566)" class="st2" cx="1043.9" cy="177.6" rx="33.4" ry="33.4"/><circle class="st2" cx="1042.1" cy="177.5" r="34.4"/><circle class="st2" cx="1040.3" cy="177.4" r="35.5"/><ellipse transform="rotate(-45.001 1038.57 177.36)" class="st2" cx="1038.6" cy="177.3" rx="36.5" ry="36.5"/><ellipse transform="rotate(-45.001 1036.829 177.27)" class="st2" cx="1036.8" cy="177.3" rx="37.5" ry="37.5"/><ellipse transform="rotate(-45.001 1035.058 177.212)" class="st2" cx="1035.1" cy="177.2" rx="38.6" ry="38.6"/><ellipse transform="rotate(-45.001 1033.317 177.123)" class="st2" cx="1033.3" cy="177.1" rx="39.6" ry="39.6"/><ellipse transform="rotate(-45.001 1031.516 177.034)" class="st2" cx="1031.5" cy="177" rx="40.7" ry="40.7"/><circle class="st2" cx="1029.7" cy="177" r="41.7"/><circle class="st2" cx="1028" cy="176.9" r="42.8"/><ellipse transform="rotate(-45.001 1026.233 176.828)" class="st2" cx="1026.2" cy="176.8" rx="43.9" ry="43.9"/><ellipse transform="rotate(-45.001 1024.491 176.739)" class="st2" cx="1024.5" cy="176.7" rx="44.9" ry="44.9"/><ellipse transform="rotate(-45.001 1022.72 176.68)" class="st2" cx="1022.7" cy="176.7" rx="46" ry="46"/><ellipse transform="rotate(-45.001 1020.979 176.591)" class="st2" cx="1021" cy="176.6" rx="47.1" ry="47.1"/><ellipse transform="rotate(-45.001 1019.208 176.532)" class="st2" cx="1019.2" cy="176.5" rx="48.2" ry="48.2"/><circle class="st2" cx="1017.5" cy="176.4" r="49.3"/><ellipse transform="rotate(-45.001 1015.666 176.355)" class="st2" cx="1015.7" cy="176.3" rx="50.3" ry="50.3"/><ellipse transform="rotate(-45.001 1013.895 176.296)" class="st2" cx="1013.9" cy="176.3" rx="51.4" ry="51.4"/><ellipse transform="rotate(-45.001 1012.154 176.208)" class="st2" cx="1012.2" cy="176.2" rx="52.5" ry="52.5"/><ellipse transform="rotate(-45.001 1010.383 176.149)" class="st2" cx="1010.4" cy="176.1" rx="53.6" ry="53.6"/><circle class="st2" cx="1008.6" cy="176" r="54.7"/><ellipse transform="rotate(-45.001 1006.87 176.001)" class="st2" cx="1006.9" cy="176" rx="55.8" ry="55.8"/><ellipse transform="rotate(-45.001 1005.129 175.912)" class="st2" cx="1005.1" cy="175.9" rx="56.9" ry="56.9"/><ellipse transform="rotate(-45.001 1003.358 175.853)" class="st2" cx="1003.4" cy="175.8" rx="58" ry="58"/><ellipse transform="rotate(-45.001 1001.587 175.794)" class="st2" cx="1001.6" cy="175.8" rx="59.1" ry="59.1"/><ellipse transform="rotate(-45.001 999.846 175.706)" class="st2" cx="999.8" cy="175.7" rx="60.2" ry="60.2"/><ellipse transform="rotate(-45.001 998.045 175.617)" class="st2" cx="998" cy="175.6" rx="61.3" ry="61.3"/><circle class="st2" cx="996.3" cy="175.5" r="62.4"/><ellipse transform="rotate(-45.001 994.533 175.47)" class="st2" cx="994.5" cy="175.5" rx="63.5" ry="63.5"/><ellipse transform="rotate(-45.001 992.791 175.381)" class="st2" cx="992.8" cy="175.4" rx="64.7" ry="64.7"/><circle class="st2" cx="991" cy="175.3" r="65.7"/><ellipse transform="rotate(-45.001 989.279 175.233)" class="st2" cx="989.3" cy="175.2" rx="66.9" ry="66.9"/><ellipse transform="rotate(-45.001 987.508 175.174)" class="st2" cx="987.5" cy="175.2" rx="68" ry="68"/><circle class="st2" cx="985.7" cy="175.1" r="69.1"/><ellipse transform="rotate(-45.001 983.995 175.027)" class="st2" cx="984" cy="175" rx="70.2" ry="70.2"/><ellipse transform="rotate(-45.001 982.224 174.968)" class="st2" cx="982.2" cy="175" rx="71.3" ry="71.3"/><ellipse transform="rotate(-45.001 980.453 174.85)" class="st2" cx="980.5" cy="174.8" rx="72.5" ry="72.5"/><ellipse transform="rotate(-45.001 978.682 174.79)" class="st2" cx="978.7" cy="174.8" rx="73.5" ry="73.5"/><ellipse transform="rotate(-45.001 976.941 174.702)" class="st2" cx="976.9" cy="174.7" rx="74.7" ry="74.7"/><ellipse transform="rotate(-45.001 975.17 174.643)" class="st2" cx="975.2" cy="174.6" rx="75.8" ry="75.8"/><ellipse transform="rotate(-45.001 973.4 174.584)" class="st2" cx="973.4" cy="174.6" rx="76.9" ry="76.9"/><circle class="st2" cx="971.7" cy="174.5" r="78.1"/><ellipse transform="rotate(-45.001 969.887 174.436)" class="st2" cx="969.9" cy="174.4" rx="79.2" ry="79.2"/><ellipse transform="rotate(-45.001 968.145 174.348)" class="st2" cx="968.1" cy="174.3" rx="80.3" ry="80.3"/><ellipse transform="rotate(-45.001 966.374 174.289)" class="st2" cx="966.4" cy="174.3" rx="81.4" ry="81.4"/><ellipse transform="rotate(-45.001 964.603 174.17)" class="st2" cx="964.6" cy="174.2" rx="82.6" ry="82.6"/><circle class="st2" cx="962.8" cy="174.1" r="83.7"/><ellipse transform="rotate(-45.001 961.062 174.053)" class="st2" cx="961.1" cy="174" rx="84.8" ry="84.8"/><ellipse transform="rotate(-45.001 959.32 173.964)" class="st2" cx="959.3" cy="174" rx="85.9" ry="85.9"/><ellipse transform="rotate(-45.001 957.55 173.905)" class="st2" cx="957.5" cy="173.9" rx="87.1" ry="87.1"/><ellipse transform="rotate(-45.001 955.808 173.816)" class="st2" cx="955.8" cy="173.8" rx="88.2" ry="88.2"/><circle class="st2" cx="954" cy="173.7" r="89.3"/><ellipse transform="rotate(-45.001 952.295 173.669)" class="st2" cx="952.3" cy="173.7" rx="90.5" ry="90.5"/><ellipse transform="rotate(-45.001 950.524 173.61)" class="st2" cx="950.5" cy="173.6" rx="91.6" ry="91.6"/><ellipse transform="rotate(-45.001 948.783 173.521)" class="st2" cx="948.8" cy="173.5" rx="92.7" ry="92.7"/><ellipse transform="rotate(-45.001 946.982 173.432)" class="st2" cx="947" cy="173.4" rx="93.8" ry="93.8"/><circle class="st2" cx="945.2" cy="173.4" r="95"/><ellipse transform="rotate(-45.001 943.47 173.285)" class="st2" cx="943.5" cy="173.3" rx="96.1" ry="96.1"/><ellipse transform="rotate(-45.001 941.699 173.226)" class="st2" cx="941.7" cy="173.2" rx="97.2" ry="97.2"/><ellipse transform="rotate(-45.001 939.958 173.137)" class="st2" cx="940" cy="173.1" rx="98.3" ry="98.3"/><ellipse transform="rotate(-45.001 938.187 173.078)" class="st2" cx="938.2" cy="173.1" rx="99.5" ry="99.5"/><circle class="st2" cx="936.4" cy="173" r="100.6"/><ellipse transform="rotate(-45.001 934.674 172.93)" class="st2" cx="934.7" cy="172.9" rx="101.8" ry="101.8"/><circle class="st2" cx="932.9" cy="172.9" r="102.9"/><ellipse transform="rotate(-45.001 931.162 172.783)" class="st2" cx="931.2" cy="172.8" rx="104" ry="104"/><ellipse transform="rotate(-45.001 929.361 172.694)" class="st2" cx="929.4" cy="172.7" rx="105.1" ry="105.1"/><ellipse transform="rotate(-45.001 927.62 172.606)" class="st2" cx="927.6" cy="172.6" rx="106.3" ry="106.3"/><ellipse transform="rotate(-45.001 925.849 172.547)" class="st2" cx="925.8" cy="172.5" rx="107.4" ry="107.4"/><ellipse transform="rotate(-45.001 924.108 172.458)" class="st2" cx="924.1" cy="172.4" rx="108.6" ry="108.6"/><ellipse transform="rotate(-45.001 922.337 172.4)" class="st2" cx="922.3" cy="172.4" rx="109.7" ry="109.7"/><circle class="st2" cx="920.6" cy="172.3" r="110.8"/><ellipse transform="rotate(-45.001 918.824 172.251)" class="st2" cx="918.8" cy="172.2" rx="112" ry="112"/><ellipse transform="rotate(-45.001 917.053 172.192)" class="st2" cx="917.1" cy="172.2" rx="113.1" ry="113.1"/><ellipse transform="rotate(-45.001 915.312 172.104)" class="st2" cx="915.3" cy="172.1" rx="114.2" ry="114.2"/><ellipse transform="rotate(-45.001 913.511 172.015)" class="st2" cx="913.5" cy="172" rx="115.4" ry="115.4"/><ellipse transform="rotate(-45.001 911.77 171.927)" class="st2" cx="911.8" cy="171.9" rx="116.5" ry="116.5"/><ellipse transform="rotate(-45.001 909.999 171.868)" class="st2" cx="910" cy="171.9" rx="117.6" ry="117.6"/><circle class="st2" cx="908.3" cy="171.8" r="118.8"/><ellipse transform="rotate(-45.001 906.487 171.72)" class="st2" cx="906.5" cy="171.7" rx="119.9" ry="119.9"/><circle class="st2" cx="904.7" cy="171.6" r="121.1"/><ellipse transform="rotate(-45.001 902.974 171.572)" class="st2" cx="903" cy="171.6" rx="122.2" ry="122.2"/><ellipse transform="rotate(-45.001 901.203 171.513)" class="st2" cx="901.2" cy="171.5" rx="123.3" ry="123.3"/><ellipse transform="rotate(-45.001 899.462 171.425)" class="st2" cx="899.5" cy="171.4" rx="124.5" ry="124.5"/><ellipse transform="rotate(-45.001 897.69 171.366)" class="st2" cx="897.7" cy="171.4" rx="125.6" ry="125.6"/><ellipse transform="rotate(-45.001 895.92 171.248)" class="st2" cx="895.9" cy="171.2" rx="126.7" ry="126.7"/><ellipse transform="rotate(-45.001 894.149 171.188)" class="st2" cx="894.1" cy="171.2" rx="127.9" ry="127.9"/><ellipse transform="rotate(-45.001 892.378 171.13)" class="st2" cx="892.4" cy="171.1" rx="129" ry="129"/><ellipse transform="rotate(-45.001 890.636 171.04)" class="st2" cx="890.6" cy="171" rx="130.2" ry="130.2"/><circle class="st2" cx="888.9" cy="171" r="131.3"/><ellipse transform="rotate(-45.001 887.124 170.893)" class="st2" cx="887.1" cy="170.9" rx="132.4" ry="132.4"/><circle class="st2" cx="885.4" cy="170.8" r="133.6"/><ellipse transform="rotate(-45.001 883.612 170.746)" class="st2" cx="883.6" cy="170.7" rx="134.7" ry="134.7"/><ellipse transform="rotate(-45.001 881.84 170.687)" class="st2" cx="881.8" cy="170.7" rx="135.8" ry="135.8"/><ellipse transform="rotate(-45.001 880.1 170.598)" class="st2" cx="880.1" cy="170.6" rx="137" ry="137"/><ellipse transform="rotate(-45.001 878.299 170.51)" class="st2" cx="878.3" cy="170.5" rx="138.1" ry="138.1"/><ellipse transform="rotate(-45.001 876.528 170.45)" class="st2" cx="876.5" cy="170.4" rx="139.3" ry="139.3"/><ellipse transform="rotate(-45.001 874.786 170.362)" class="st2" cx="874.8" cy="170.4" rx="140.4" ry="140.4"/><ellipse transform="rotate(-45.001 873.015 170.303)" class="st2" cx="873" cy="170.3" rx="141.5" ry="141.5"/><ellipse transform="rotate(-45.001 871.274 170.214)" class="st2" cx="871.3" cy="170.2" rx="142.7" ry="142.7"/><circle class="st2" cx="869.5" cy="170.1" r="143.8"/><ellipse transform="rotate(-45.001 867.762 170.067)" class="st2" cx="867.8" cy="170.1" rx="145" ry="145"/><circle class="st2" cx="866" cy="170" r="146.1"/><ellipse transform="rotate(-45.001 864.22 169.949)" class="st2" cx="864.2" cy="169.9" rx="147.2" ry="147.2"/><circle class="st2" cx="862.4" cy="169.8" r="148.4"/><ellipse transform="rotate(-45.001 860.678 169.771)" class="st2" cx="860.7" cy="169.8" rx="149.5" ry="149.5"/><ellipse transform="rotate(-45.001 858.936 169.683)" class="st2" cx="858.9" cy="169.7" rx="150.6" ry="150.6"/><ellipse transform="rotate(-45.001 857.165 169.624)" class="st2" cx="857.2" cy="169.6" rx="151.8" ry="151.8"/><ellipse transform="rotate(-45.001 855.424 169.535)" class="st2" cx="855.4" cy="169.5" rx="152.9" ry="152.9"/><ellipse transform="rotate(-45.001 853.653 169.476)" class="st2" cx="853.7" cy="169.5" rx="154.1" ry="154.1"/><ellipse transform="rotate(-45.001 851.882 169.417)" class="st2" cx="851.9" cy="169.4" rx="155.2" ry="155.2"/><ellipse transform="rotate(-45.001 850.14 169.328)" class="st2" cx="850.1" cy="169.3" rx="156.4" ry="156.4"/><ellipse transform="rotate(-45.001 848.37 169.27)" class="st2" cx="848.4" cy="169.3" rx="157.5" ry="157.5"/><ellipse transform="rotate(-45.001 846.628 169.181)" class="st2" cx="846.6" cy="169.2" rx="158.7" ry="158.7"/><ellipse transform="rotate(-45.001 844.828 169.092)" class="st2" cx="844.8" cy="169.1" rx="159.8" ry="159.8"/><circle class="st2" cx="843.1" cy="169" r="160.9"/><ellipse transform="rotate(-45.001 841.315 168.945)" class="st2" cx="841.3" cy="168.9" rx="162.1" ry="162.1"/><circle class="st2" cx="839.6" cy="168.8" r="163.2"/><circle class="st2" cx="837.8" cy="168.8" r="164.3"/><circle class="st2" cx="836" cy="168.7" r="165.5"/><ellipse transform="rotate(-45.001 834.29 168.65)" class="st2" cx="834.3" cy="168.6" rx="166.6" ry="166.6"/><circle class="st2" cx="832.5" cy="168.6" r="167.8"/><ellipse transform="rotate(-45.001 830.778 168.502)" class="st2" cx="830.8" cy="168.5" rx="168.9" ry="168.9"/><ellipse transform="rotate(-45.001 829.007 168.443)" class="st2" cx="829" cy="168.4" rx="170.1" ry="170.1"/><ellipse transform="rotate(-45.001 827.236 168.325)" class="st2" cx="827.2" cy="168.3" rx="171.2" ry="171.2"/><ellipse transform="rotate(-45.001 825.465 168.266)" class="st2" cx="825.5" cy="168.3" rx="172.4" ry="172.4"/><ellipse transform="rotate(-45.001 823.694 168.207)" class="st2" cx="823.7" cy="168.2" rx="173.5" ry="173.5"/><ellipse transform="rotate(-45.001 821.953 168.118)" class="st2" cx="822" cy="168.1" rx="174.6" ry="174.6"/><ellipse transform="rotate(-45.001 820.182 168.06)" class="st2" cx="820.2" cy="168" rx="175.8" ry="175.8"/><ellipse transform="rotate(-45.001 818.44 167.97)" class="st2" cx="818.4" cy="168" rx="176.9" ry="176.9"/><ellipse transform="rotate(-45.001 816.67 167.911)" class="st2" cx="816.7" cy="167.9" rx="178.1" ry="178.1"/><ellipse transform="rotate(-45.001 814.928 167.823)" class="st2" cx="814.9" cy="167.8" rx="179.2" ry="179.2"/><ellipse transform="rotate(-45.001 813.157 167.764)" class="st2" cx="813.2" cy="167.8" rx="180.4" ry="180.4"/><ellipse transform="rotate(-45.001 811.357 167.675)" class="st2" cx="811.4" cy="167.7" rx="181.5" ry="181.5"/><circle class="st2" cx="809.6" cy="167.6" r="182.6"/><ellipse transform="rotate(-45.001 807.844 167.528)" class="st2" cx="807.8" cy="167.5" rx="183.8" ry="183.8"/><circle class="st2" cx="806.1" cy="167.4" r="184.9"/><ellipse transform="rotate(-45.001 804.332 167.38)" class="st2" cx="804.3" cy="167.4" rx="186" ry="186"/><circle class="st2" cx="802.6" cy="167.3" r="187.2"/><circle class="st2" cx="800.8" cy="167.2" r="188.3"/><circle class="st2" cx="799.1" cy="167.1" r="189.5"/><ellipse transform="rotate(-45.001 797.307 167.085)" class="st2" cx="797.3" cy="167.1" rx="190.6" ry="190.6"/><ellipse transform="rotate(-45.001 795.536 167.026)" class="st2" cx="795.5" cy="167" rx="191.8" ry="191.8"/><ellipse transform="rotate(-45.001 793.765 166.908)" class="st2" cx="793.8" cy="166.9" rx="192.9" ry="192.9"/><ellipse transform="rotate(-45.001 791.994 166.849)" class="st2" cx="792" cy="166.8" rx="194.1" ry="194.1"/><ellipse transform="rotate(-45.001 790.253 166.76)" class="st2" cx="790.3" cy="166.8" rx="195.2" ry="195.2"/><ellipse transform="rotate(-45.001 788.482 166.7)" class="st2" cx="788.5" cy="166.7" rx="196.4" ry="196.4"/><ellipse transform="rotate(-45.001 786.74 166.612)" class="st2" cx="786.7" cy="166.6" rx="197.5" ry="197.5"/><ellipse transform="rotate(-45.001 784.97 166.553)" class="st2" cx="785" cy="166.5" rx="198.6" ry="198.6"/><ellipse transform="rotate(-45.001 783.198 166.494)" class="st2" cx="783.2" cy="166.5" rx="199.8" ry="199.8"/><ellipse transform="rotate(-45.001 781.457 166.406)" class="st2" cx="781.5" cy="166.4" rx="200.9" ry="200.9"/><ellipse transform="rotate(-45.001 779.686 166.347)" class="st2" cx="779.7" cy="166.3" rx="202.1" ry="202.1"/><ellipse transform="rotate(-45.001 777.945 166.258)" class="st2" cx="777.9" cy="166.2" rx="203.2" ry="203.2"/><ellipse transform="rotate(-45.001 776.144 166.17)" class="st2" cx="776.1" cy="166.2" rx="204.4" ry="204.4"/><ellipse transform="rotate(-45.001 774.403 166.08)" class="st2" cx="774.4" cy="166.1" rx="205.5" ry="205.5"/><circle class="st2" cx="772.6" cy="166" r="206.6"/><ellipse transform="rotate(-45.001 770.86 165.963)" class="st2" cx="770.9" cy="166" rx="207.8" ry="207.8"/><circle class="st2" cx="769.1" cy="165.9" r="208.9"/><ellipse transform="rotate(-45.001 767.348 165.815)" class="st2" cx="767.3" cy="165.8" rx="210.1" ry="210.1"/><circle class="st2" cx="765.6" cy="165.7" r="211.2"/><circle class="st2" cx="763.8" cy="165.7" r="212.3"/><circle class="st2" cx="762.1" cy="165.6" r="213.5"/><ellipse transform="rotate(-45.001 760.294 165.49)" class="st2" cx="760.3" cy="165.5" rx="214.6" ry="214.6"/><circle class="st2" cx="758.6" cy="165.4" r="215.8"/><ellipse transform="rotate(-45.001 756.782 165.343)" class="st2" cx="756.8" cy="165.3" rx="216.9" ry="216.9"/><ellipse transform="rotate(-45.001 755.01 165.284)" class="st2" cx="755" cy="165.3" rx="218.1" ry="218.1"/><ellipse transform="rotate(-45.001 753.27 165.195)" class="st2" cx="753.3" cy="165.2" rx="219.2" ry="219.2"/><ellipse transform="rotate(-45.001 751.498 165.136)" class="st2" cx="751.5" cy="165.1" rx="220.4" ry="220.4"/><ellipse transform="rotate(-45.001 749.757 165.048)" class="st2" cx="749.8" cy="165" rx="221.5" ry="221.5"/><ellipse transform="rotate(-45.001 747.986 164.989)" class="st2" cx="748" cy="165" rx="222.6" ry="222.7"/><ellipse transform="rotate(-45.001 746.245 164.9)" class="st2" cx="746.2" cy="164.9" rx="223.8" ry="223.8"/><ellipse transform="rotate(-45.001 744.474 164.84)" class="st2" cx="744.5" cy="164.8" rx="224.9" ry="224.9"/><ellipse transform="rotate(-45.001 742.673 164.752)" class="st2" cx="742.7" cy="164.7" rx="226.1" ry="226.1"/><ellipse transform="rotate(-45.001 740.932 164.664)" class="st2" cx="740.9" cy="164.7" rx="227.2" ry="227.2"/><ellipse transform="rotate(-45.001 739.16 164.605)" class="st2" cx="739.2" cy="164.6" rx="228.4" ry="228.4"/><ellipse transform="rotate(-45.001 737.42 164.516)" class="st2" cx="737.4" cy="164.5" rx="229.5" ry="229.5"/><ellipse transform="rotate(-45.001 735.648 164.457)" class="st2" cx="735.6" cy="164.4" rx="230.7" ry="230.7"/><ellipse transform="rotate(-45.001 733.907 164.369)" class="st2" cx="733.9" cy="164.4" rx="231.8" ry="231.8"/><ellipse transform="rotate(-45.001 732.136 164.31)" class="st2" cx="732.1" cy="164.3" rx="233" ry="233"/><circle class="st2" cx="730.4" cy="164.2" r="234.1"/><ellipse transform="rotate(-45.001 728.623 164.162)" class="st2" cx="728.6" cy="164.2" rx="235.3" ry="235.3"/><ellipse transform="rotate(-45.001 726.852 164.103)" class="st2" cx="726.9" cy="164.1" rx="236.4" ry="236.4"/><circle class="st2" cx="725.1" cy="164" r="237.5"/><circle class="st2" cx="723.3" cy="163.9" r="238.7"/><circle class="st2" cx="721.6" cy="163.8" r="239.8"/><ellipse transform="rotate(-45.001 719.798 163.778)" class="st2" cx="719.8" cy="163.8" rx="241" ry="241"/><circle class="st2" cx="718.1" cy="163.7" r="242.1"/><ellipse transform="rotate(-45.001 716.286 163.63)" class="st2" cx="716.3" cy="163.6" rx="243.3" ry="243.3"/><circle class="st2" cx="714.5" cy="163.6" r="244.4"/><ellipse transform="rotate(-45.001 712.773 163.483)" class="st2" cx="712.8" cy="163.5" rx="245.5" ry="245.5"/><circle class="st2" cx="711" cy="163.4" r="246.7"/><circle class="st2" cx="709.2" cy="163.3" r="247.8"/><circle class="st2" cx="707.5" cy="163.2" r="249"/><ellipse transform="rotate(-45.001 705.72 163.158)" class="st2" cx="705.7" cy="163.1" rx="250.1" ry="250.1"/><circle class="st2" cx="703.9" cy="163.1" r="251.3"/><circle class="st2" cx="702.2" cy="163" r="252.4"/><ellipse transform="rotate(-45.001 700.436 162.951)" class="st2" cx="700.4" cy="162.9" rx="253.5" ry="253.5"/><ellipse transform="rotate(-45.001 698.665 162.892)" class="st2" cx="698.7" cy="162.9" rx="254.7" ry="254.7"/><ellipse transform="rotate(-45.001 696.923 162.804)" class="st2" cx="696.9" cy="162.8" rx="255.8" ry="255.8"/><circle class="st2" cx="695.2" cy="162.7" r="257"/><ellipse transform="rotate(-45.001 693.411 162.656)" class="st2" cx="693.4" cy="162.6" rx="258.1" ry="258.1"/><circle class="st2" cx="691.6" cy="162.6" r="259.3"/><ellipse transform="rotate(-45.001 689.869 162.48)" class="st2" cx="689.9" cy="162.5" rx="260.4" ry="260.4"/><ellipse transform="rotate(-45.001 688.098 162.42)" class="st2" cx="688.1" cy="162.4" rx="261.6" ry="261.6"/><ellipse transform="rotate(-45.001 686.327 162.36)" class="st2" cx="686.3" cy="162.4" rx="262.7" ry="262.7"/><ellipse transform="rotate(-45.001 684.586 162.272)" class="st2" cx="684.6" cy="162.3" rx="263.8" ry="263.8"/><ellipse transform="rotate(-45.001 682.815 162.213)" class="st2" cx="682.8" cy="162.2" rx="265" ry="265"/><ellipse transform="rotate(-45.001 681.073 162.125)" class="st2" cx="681.1" cy="162.1" rx="266.1" ry="266.1"/><ellipse transform="rotate(-45.001 679.302 162.066)" class="st2" cx="679.3" cy="162.1" rx="267.3" ry="267.3"/><ellipse transform="rotate(-45.001 677.56 161.977)" class="st2" cx="677.6" cy="162" rx="268.4" ry="268.4"/><circle class="st2" cx="675.8" cy="161.9" r="269.6"/><ellipse transform="rotate(-45.001 673.99 161.83)" class="st2" cx="674" cy="161.8" rx="270.7" ry="270.7"/><ellipse transform="rotate(-45.001 672.248 161.74)" class="st2" cx="672.2" cy="161.7" rx="271.9" ry="271.9"/><ellipse transform="rotate(-45.001 670.477 161.682)" class="st2" cx="670.5" cy="161.7" rx="273" ry="273"/><circle class="st2" cx="668.7" cy="161.6" r="274.2"/><ellipse transform="rotate(-45.001 666.965 161.534)" class="st2" cx="667" cy="161.5" rx="275.3" ry="275.3"/><circle class="st2" cx="665.2" cy="161.4" r="276.5"/><circle class="st2" cx="663.5" cy="161.4" r="277.6"/><circle class="st2" cx="661.7" cy="161.3" r="278.8"/><circle class="st2" cx="659.9" cy="161.2" r="279.9"/><circle class="st2" cx="658.1" cy="161.1" r="281"/><circle class="st2" cx="656.4" cy="161.1" r="282.2"/><circle class="st2" cx="654.6" cy="161" r="283.3"/><circle class="st2" cx="652.9" cy="160.9" r="284.5"/><circle class="st2" cx="651.1" cy="160.8" r="285.6"/><circle class="st2" cx="649.4" cy="160.8" r="286.8"/><ellipse transform="rotate(-45.001 647.602 160.708)" class="st2" cx="647.6" cy="160.7" rx="287.9" ry="287.9"/><circle class="st2" cx="645.8" cy="160.6" r="289.1"/><ellipse transform="rotate(-45.001 644.09 160.56)" class="st2" cx="644.1" cy="160.6" rx="290.2" ry="290.2"/><circle class="st2" cx="642.3" cy="160.5" r="291.4"/><circle class="st2" cx="640.5" cy="160.4" r="292.5"/><circle class="st2" cx="638.8" cy="160.3" r="293.7"/><circle class="st2" cx="637" cy="160.2" r="294.8"/><ellipse transform="rotate(-45.001 635.265 160.176)" class="st2" cx="635.3" cy="160.2" rx="295.9" ry="295.9"/><circle class="st2" cx="633.5" cy="160.1" r="297.1"/><ellipse transform="rotate(-45.001 631.752 160.028)" class="st2" cx="631.8" cy="160" rx="298.2" ry="298.2"/><circle class="st2" cx="630" cy="160" r="299.4"/><ellipse transform="rotate(-45.001 628.24 159.881)" class="st2" cx="628.2" cy="159.9" rx="300.5" ry="300.5"/><circle class="st2" cx="626.5" cy="159.8" r="301.7"/><ellipse transform="rotate(-45.001 624.698 159.704)" class="st2" cx="624.7" cy="159.7" rx="302.8" ry="302.8"/><ellipse transform="rotate(-45.001 622.927 159.645)" class="st2" cx="622.9" cy="159.6" rx="304" ry="304"/><circle class="st2" cx="621.2" cy="159.5" r="305.1"/><ellipse transform="rotate(-45.001 619.415 159.497)" class="st2" cx="619.4" cy="159.5" rx="306.2" ry="306.2"/><ellipse transform="rotate(-45.001 617.644 159.438)" class="st2" cx="617.6" cy="159.4" rx="307.4" ry="307.4"/><ellipse transform="rotate(-45.001 615.902 159.35)" class="st2" cx="615.9" cy="159.3" rx="308.5" ry="308.5"/><ellipse transform="rotate(-45.001 614.131 159.29)" class="st2" cx="614.1" cy="159.3" rx="309.7" ry="309.7"/><ellipse transform="rotate(-45.001 612.39 159.202)" class="st2" cx="612.4" cy="159.2" rx="310.8" ry="310.8"/><ellipse transform="rotate(-45.001 610.619 159.143)" class="st2" cx="610.6" cy="159.1" rx="312" ry="312"/><circle class="st2" cx="608.9" cy="159" r="313.1"/><ellipse transform="rotate(-45.001 607.077 158.966)" class="st2" cx="607.1" cy="159" rx="314.3" ry="314.3"/><ellipse transform="rotate(-45.001 605.306 158.907)" class="st2" cx="605.3" cy="158.9" rx="315.4" ry="315.4"/><circle class="st2" cx="603.6" cy="158.8" r="316.5"/><circle class="st2" cx="601.8" cy="158.8" r="317.7"/><circle class="st2" cx="600.1" cy="158.7" r="318.8"/><ellipse transform="rotate(-45.001 598.281 158.611)" class="st2" cx="598.3" cy="158.6" rx="320" ry="320"/><circle class="st2" cx="596.5" cy="158.5" r="321.1"/><ellipse transform="rotate(-45.001 594.769 158.464)" class="st2" cx="594.8" cy="158.5" rx="322.3" ry="322.3"/><circle class="st2" cx="593" cy="158.4" r="323.4"/><ellipse transform="rotate(-45.001 591.256 158.316)" class="st2" cx="591.3" cy="158.3" rx="324.6" ry="324.6"/><circle class="st2" cx="589.5" cy="158.2" r="325.7"/><circle class="st2" cx="587.7" cy="158.1" r="326.8"/><ellipse transform="rotate(-45.001 585.944 158.08)" class="st2" cx="585.9" cy="158.1" rx="328" ry="328"/><circle class="st2" cx="584.2" cy="158" r="329.1"/><ellipse transform="rotate(-45.001 582.431 157.932)" class="st2" cx="582.4" cy="157.9" rx="330.3" ry="330.3"/><circle class="st2" cx="580.7" cy="157.8" r="331.4"/><circle class="st2" cx="578.9" cy="157.8" r="332.6"/><circle class="st2" cx="577.1" cy="157.7" r="333.7"/><circle class="st2" cx="575.4" cy="157.6" r="334.9"/><circle class="st2" cx="573.6" cy="157.5" r="336"/><circle class="st2" cx="571.9" cy="157.5" r="337.2"/><circle class="st2" cx="570.1" cy="157.4" r="338.3"/><ellipse transform="rotate(-45.001 568.352 157.312)" class="st2" cx="568.4" cy="157.3" rx="339.4" ry="339.4"/><circle class="st2" cx="566.6" cy="157.2" r="340.6"/><circle class="st2" cx="564.8" cy="157.2" r="341.7"/><circle class="st2" cx="563.1" cy="157.1" r="342.9"/><ellipse transform="rotate(-45.001 561.298 157.047)" class="st2" cx="561.3" cy="157" rx="344" ry="344"/><circle class="st2" cx="559.6" cy="157" r="345.2"/><ellipse transform="rotate(-45.001 557.785 156.899)" class="st2" cx="557.8" cy="156.9" rx="346.3" ry="346.3"/><circle class="st2" cx="556" cy="156.8" r="347.5"/><circle class="st2" cx="554.2" cy="156.7" r="348.6"/><ellipse transform="rotate(-45.001 552.472 156.663)" class="st2" cx="552.5" cy="156.7" rx="349.8" ry="349.8"/><circle class="st2" cx="550.7" cy="156.6" r="350.9"/><ellipse transform="rotate(-45.001 548.96 156.515)" class="st2" cx="549" cy="156.5" rx="352" ry="352"/><circle class="st2" cx="547.2" cy="156.4" r="353.2"/><ellipse transform="rotate(-45.001 545.448 156.368)" class="st2" cx="545.4" cy="156.4" rx="354.3" ry="354.3"/><ellipse transform="rotate(-45.001 543.706 156.279)" class="st2" cx="543.7" cy="156.3" rx="355.5" ry="355.5"/><circle class="st2" cx="541.9" cy="156.2" r="356.6"/><ellipse transform="rotate(-45.001 540.194 156.131)" class="st2" cx="540.2" cy="156.1" rx="357.8" ry="357.8"/><ellipse transform="rotate(-45.001 538.393 156.043)" class="st2" cx="538.4" cy="156" rx="358.9" ry="358.9"/><ellipse transform="rotate(-45.001 536.622 155.984)" class="st2" cx="536.6" cy="156" rx="360.1" ry="360.1"/><ellipse transform="rotate(-45.001 534.88 155.895)" class="st2" cx="534.9" cy="155.9" rx="361.2" ry="361.2"/><ellipse transform="rotate(-45.001 533.11 155.836)" class="st2" cx="533.1" cy="155.8" rx="362.4" ry="362.4"/><ellipse transform="rotate(-45.001 531.368 155.748)" class="st2" cx="531.4" cy="155.7" rx="363.5" ry="363.5"/><ellipse transform="rotate(-45.001 529.598 155.688)" class="st2" cx="529.6" cy="155.7" rx="364.7" ry="364.7"/><ellipse transform="rotate(-45.001 527.856 155.6)" class="st2" cx="527.9" cy="155.6" rx="365.8" ry="365.8"/><ellipse transform="rotate(-45.001 526.085 155.54)" class="st2" cx="526.1" cy="155.5" rx="367" ry="367"/><ellipse transform="rotate(-45.001 524.314 155.482)" class="st2" cx="524.3" cy="155.5" rx="368.1" ry="368.1"/><circle class="st2" cx="522.5" cy="155.4" r="369.2"/><ellipse transform="rotate(-45.001 520.772 155.305)" class="st2" cx="520.8" cy="155.3" rx="370.4" ry="370.4"/><ellipse transform="rotate(-45.001 519.03 155.216)" class="st2" cx="519" cy="155.2" rx="371.5" ry="371.5"/><ellipse transform="rotate(-45.001 517.26 155.157)" class="st2" cx="517.3" cy="155.2" rx="372.7" ry="372.7"/><ellipse transform="rotate(-45.001 515.518 155.068)" class="st2" cx="515.5" cy="155.1" rx="373.8" ry="373.8"/><circle class="st2" cx="513.7" cy="155" r="375"/><ellipse transform="rotate(-45.001 512.006 154.92)" class="st2" cx="512" cy="154.9" rx="376.1" ry="376.1"/><circle class="st2" cx="510.2" cy="154.9" r="377.3"/><ellipse transform="rotate(-45.001 508.464 154.803)" class="st2" cx="508.5" cy="154.8" rx="378.4" ry="378.4"/><ellipse transform="rotate(-45.001 506.723 154.714)" class="st2" cx="506.7" cy="154.7" rx="379.6" ry="379.6"/><ellipse transform="rotate(-45.001 504.922 154.626)" class="st2" cx="504.9" cy="154.6" rx="380.7" ry="380.7"/><ellipse transform="rotate(-45.001 503.18 154.537)" class="st2" cx="503.2" cy="154.5" rx="381.9" ry="381.9"/><circle class="st2" cx="501.4" cy="154.5" r="383"/><circle class="st2" cx="499.7" cy="154.4" r="384.1"/><circle class="st2" cx="497.9" cy="154.3" r="385.3"/><ellipse transform="rotate(-45.001 496.126 154.271)" class="st2" cx="496.1" cy="154.3" rx="386.4" ry="386.4"/><circle class="st2" cx="494.4" cy="154.2" r="387.6"/><circle class="st2" cx="492.6" cy="154.1" r="388.7"/><circle class="st2" cx="490.9" cy="154" r="389.9"/><circle class="st2" cx="489.1" cy="154" r="391"/><circle class="st2" cx="487.3" cy="153.9" r="392.2"/><circle class="st2" cx="485.6" cy="153.8" r="393.3"/><circle class="st2" cx="483.8" cy="153.7" r="394.5"/><ellipse transform="rotate(-45.001 482.047 153.651)" class="st2" cx="482" cy="153.6" rx="395.6" ry="395.6"/><circle class="st2" cx="480.3" cy="153.6" r="396.8"/><ellipse transform="rotate(-45.001 478.535 153.504)" class="st2" cx="478.5" cy="153.5" rx="397.9" ry="397.9"/><circle class="st2" cx="476.8" cy="153.4" r="399.1"/><circle class="st2" cx="475" cy="153.3" r="400.2"/><circle class="st2" cx="473.3" cy="153.3" r="401.3"/><circle class="st2" cx="471.5" cy="153.2" r="402.5"/><circle class="st2" cx="469.7" cy="153.1" r="403.6"/><circle class="st2" cx="467.9" cy="153.1" r="404.8"/><circle class="st2" cx="466.2" cy="153" r="405.9"/><circle class="st2" cx="464.4" cy="152.9" r="407.1"/><circle class="st2" cx="462.7" cy="152.8" r="408.2"/><circle class="st2" cx="460.9" cy="152.8" r="409.4"/><circle class="st2" cx="459.2" cy="152.7" r="410.5"/><ellipse transform="rotate(-45.001 457.402 152.618)" class="st2" cx="457.4" cy="152.6" rx="411.7" ry="411.7"/><circle class="st2" cx="455.6" cy="152.6" r="412.8"/><ellipse transform="rotate(-45.001 453.86 152.44)" class="st2" cx="453.9" cy="152.4" rx="414" ry="414"/><circle class="st2" cx="452.1" cy="152.4" r="415.1"/><circle class="st2" cx="450.3" cy="152.3" r="416.2"/><ellipse transform="rotate(-45.001 448.576 152.234)" class="st2" cx="448.6" cy="152.2" rx="417.4" ry="417.4"/><circle class="st2" cx="446.8" cy="152.1" r="418.5"/><circle class="st2" cx="445.1" cy="152.1" r="419.7"/><circle class="st2" cx="443.3" cy="152" r="420.8"/><circle class="st2" cx="441.6" cy="151.9" r="422"/><circle class="st2" cx="439.8" cy="151.9" r="423.1"/><circle class="st2" cx="438" cy="151.8" r="424.3"/><circle class="st2" cx="436.2" cy="151.7" r="425.4"/><circle class="st2" cx="434.5" cy="151.6" r="426.6"/><circle class="st2" cx="432.7" cy="151.5" r="427.7"/><ellipse transform="rotate(-45.001 430.985 151.467)" class="st2" cx="431" cy="151.5" rx="428.9" ry="428.9"/><circle class="st2" cx="429.2" cy="151.4" r="430"/><circle class="st2" cx="427.4" cy="151.3" r="431.1"/><ellipse transform="rotate(-45.001 425.702 151.26)" class="st2" cx="425.7" cy="151.3" rx="432.3" ry="432.3"/><ellipse transform="rotate(-45.001 423.93 151.2)" class="st2" cx="423.9" cy="151.2" rx="433.4" ry="433.4"/><circle class="st2" cx="422.2" cy="151.1" r="434.6"/><circle class="st2" cx="420.4" cy="151" r="435.7"/><circle class="st2" cx="418.6" cy="150.9" r="436.9"/><circle class="st2" cx="416.9" cy="150.9" r="438"/><circle class="st2" cx="415.1" cy="150.8" r="439.2"/><ellipse transform="rotate(-45.001 413.364 150.728)" class="st2" cx="413.4" cy="150.7" rx="440.3" ry="440.3"/><ellipse transform="rotate(-45.001 411.593 150.67)" class="st2" cx="411.6" cy="150.7" rx="441.5" ry="441.5"/><circle class="st2" cx="409.9" cy="150.6" r="442.6"/><circle class="st2" cx="408.1" cy="150.5" r="443.8"/><ellipse transform="rotate(-45.001 406.339 150.433)" class="st2" cx="406.3" cy="150.4" rx="444.9" ry="444.9"/><circle class="st2" cx="404.6" cy="150.4" r="446.1"/><circle class="st2" cx="402.8" cy="150.3" r="447.2"/><ellipse transform="rotate(-45.001 401.026 150.197)" class="st2" cx="401" cy="150.2" rx="448.3" ry="448.3"/><circle class="st2" cx="399.3" cy="150.1" r="449.5"/><circle class="st2" cx="397.5" cy="150" r="450.6"/><circle class="st2" cx="395.7" cy="150" r="451.8"/><circle class="st2" cx="394" cy="149.9" r="452.9"/><circle class="st2" cx="392.2" cy="149.8" r="454.1"/><circle class="st2" cx="390.5" cy="149.7" r="455.2"/><circle class="st2" cx="388.7" cy="149.7" r="456.4"/><ellipse transform="rotate(-45.001 386.947 149.636)" class="st2" cx="386.9" cy="149.6" rx="457.5" ry="457.5"/><circle class="st2" cx="385.2" cy="149.5" r="458.7"/><circle class="st2" cx="383.4" cy="149.5" r="459.8"/><circle class="st2" cx="381.7" cy="149.4" r="461"/><circle class="st2" cx="379.9" cy="149.3" r="462.1"/><circle class="st2" cx="378.2" cy="149.2" r="463.2"/><circle class="st2" cx="376.4" cy="149.2" r="464.4"/><circle class="st2" cx="374.6" cy="149.1" r="465.5"/><circle class="st2" cx="372.9" cy="149" r="466.7"/><circle class="st2" cx="371.1" cy="149" r="467.8"/><circle class="st2" cx="369.3" cy="148.8" r="469"/><circle class="st2" cx="367.6" cy="148.8" r="470.1"/><circle class="st2" cx="365.8" cy="148.7" r="471.3"/><circle class="st2" cx="364" cy="148.6" r="472.4"/><circle class="st2" cx="362.3" cy="148.5" r="473.6"/><circle class="st2" cx="360.5" cy="148.5" r="474.7"/><circle class="st2" cx="358.8" cy="148.4" r="475.9"/><circle class="st2" cx="357" cy="148.3" r="477"/><circle class="st2" cx="355.2" cy="148.3" r="478.2"/><circle class="st2" cx="353.5" cy="148.2" r="479.3"/><circle class="st2" cx="351.7" cy="148.1" r="480.4"/><circle class="st2" cx="350" cy="148" r="481.6"/><circle class="st2" cx="348.2" cy="147.9" r="482.7"/><circle class="st2" cx="346.4" cy="147.9" r="483.9"/><circle class="st2" cx="344.7" cy="147.8" r="485"/><circle class="st2" cx="342.9" cy="147.7" r="486.2"/><circle class="st2" cx="341.2" cy="147.7" r="487.3"/><circle class="st2" cx="339.4" cy="147.6" r="488.5"/><circle class="st2" cx="337.7" cy="147.5" r="489.6"/><circle class="st2" cx="335.9" cy="147.4" r="490.8"/><circle class="st2" cx="334.1" cy="147.4" r="491.9"/><circle class="st2" cx="332.3" cy="147.3" r="493.1"/><circle class="st2" cx="330.6" cy="147.2" r="494.2"/><circle class="st2" cx="328.8" cy="147.1" r="495.3"/><ellipse transform="rotate(-45.001 327.06 147.067)" class="st2" cx="327.1" cy="147.1" rx="496.5" ry="496.5"/><circle class="st2" cx="325.3" cy="147" r="497.6"/><ellipse transform="rotate(-45.001 323.547 146.92)" class="st2" cx="323.5" cy="146.9" rx="498.8" ry="498.8"/><circle class="st2" cx="321.8" cy="146.8" r="499.9"/><ellipse transform="rotate(-45.001 320.034 146.772)" class="st2" cx="320" cy="146.8" rx="501.1" ry="501.1"/><circle class="st2" cx="318.2" cy="146.7" r="502.2"/><circle class="st2" cx="316.5" cy="146.6" r="503.4"/><circle class="st2" cx="314.7" cy="146.5" r="504.5"/><circle class="st2" cx="313" cy="146.4" r="505.7"/><circle class="st2" cx="311.2" cy="146.4" r="506.8"/><circle class="st2" cx="309.5" cy="146.3" r="508"/><circle class="st2" cx="307.7" cy="146.2" r="509.1"/><circle class="st2" cx="305.9" cy="146.2" r="510.2"/><circle class="st2" cx="304.2" cy="146.1" r="511.4"/><ellipse transform="rotate(-45.001 302.413 146.034)" class="st2" cx="302.4" cy="146" rx="512.5" ry="512.5"/><circle class="st2" cx="300.6" cy="145.9" r="513.7"/><circle class="st2" cx="298.9" cy="145.9" r="514.8"/><ellipse transform="rotate(-45.001 297.13 145.768)" class="st2" cx="297.1" cy="145.8" rx="516" ry="516"/><ellipse transform="rotate(-45.001 295.359 145.71)" class="st2" cx="295.4" cy="145.7" rx="517.1" ry="517.1"/><ellipse transform="rotate(-45.001 293.618 145.62)" class="st2" cx="293.6" cy="145.6" rx="518.3" ry="518.3"/><circle class="st2" cx="291.8" cy="145.6" r="519.4"/><ellipse transform="rotate(-45.001 290.076 145.503)" class="st2" cx="290.1" cy="145.5" rx="520.6" ry="520.6"/><circle class="st2" cx="288.3" cy="145.4" r="521.7"/><circle class="st2" cx="286.6" cy="145.4" r="522.9"/><circle class="st2" cx="284.8" cy="145.2" r="524"/><circle class="st2" cx="283" cy="145.2" r="525.2"/><circle class="st2" cx="281.3" cy="145.1" r="526.3"/><circle class="st2" cx="279.5" cy="145" r="527.4"/><circle class="st2" cx="277.7" cy="145" r="528.6"/><circle class="st2" cx="276" cy="144.9" r="529.7"/><circle class="st2" cx="274.2" cy="144.8" r="530.9"/><ellipse transform="rotate(-45.001 272.484 144.735)" class="st2" cx="272.5" cy="144.7" rx="532" ry="532"/><circle class="st2" cx="270.7" cy="144.7" r="533.2"/><ellipse transform="rotate(-45.001 268.972 144.588)" class="st2" cx="269" cy="144.6" rx="534.3" ry="534.3"/><ellipse transform="rotate(-45.001 267.171 144.499)" class="st2" cx="267.2" cy="144.5" rx="535.5" ry="535.5"/><ellipse transform="rotate(-45.001 265.4 144.44)" class="st2" cx="265.4" cy="144.4" rx="536.6" ry="536.6"/><ellipse transform="rotate(-45.001 263.659 144.351)" class="st2" cx="263.7" cy="144.3" rx="537.8" ry="537.8"/><ellipse transform="rotate(-45.001 261.888 144.292)" class="st2" cx="261.9" cy="144.3" rx="538.9" ry="538.9"/><circle class="st2" cx="260.1" cy="144.2" r="540.1"/><circle class="st2" cx="258.4" cy="144.1" r="541.2"/><circle class="st2" cx="256.6" cy="144.1" r="542.3"/><circle class="st2" cx="254.9" cy="144" r="543.5"/><circle class="st2" cx="253.1" cy="143.9" r="544.6"/><circle class="st2" cx="251.4" cy="143.8" r="545.8"/><circle class="st2" cx="249.6" cy="143.8" r="546.9"/><circle class="st2" cx="247.8" cy="143.7" r="548.1"/><circle class="st2" cx="246" cy="143.6" r="549.2"/><circle class="st2" cx="244.3" cy="143.5" r="550.4"/><ellipse transform="rotate(-45.001 242.526 143.466)" class="st2" cx="242.5" cy="143.5" rx="551.5" ry="551.5"/><circle class="st2" cx="240.8" cy="143.4" r="552.7"/><ellipse transform="rotate(-45.001 239.013 143.318)" class="st2" cx="239" cy="143.3" rx="553.8" ry="553.8"/><circle class="st2" cx="237.2" cy="143.3" r="555"/></g><defs><path id="SVGID_3_" d="M197.8 1152l570.7 288.2v-101.7z"/></defs><clipPath id="SVGID_4_"><use xlink:href="#SVGID_3_" overflow="visible"/></clipPath><g clip-path="url(#SVGID_4_)"><ellipse transform="rotate(-45.001 1378.48 1036.63)" class="st2" cx="1378.5" cy="1036.6" rx="16" ry="16"/><ellipse transform="rotate(-45.001 1376.708 1036.57)" class="st2" cx="1376.7" cy="1036.5" rx="16" ry="16"/><ellipse transform="rotate(-45.001 1374.967 1036.481)" class="st2" cx="1375" cy="1036.5" rx="16.1" ry="16.1"/><circle class="st2" cx="1373.2" cy="1036.4" r="16.3"/><ellipse transform="rotate(-45.001 1371.395 1036.334)" class="st2" cx="1371.4" cy="1036.3" rx="16.5" ry="16.5"/><ellipse transform="rotate(-45.001 1369.654 1036.245)" class="st2" cx="1369.7" cy="1036.2" rx="16.9" ry="16.9"/><ellipse transform="rotate(-45.001 1367.883 1036.186)" class="st2" cx="1367.9" cy="1036.2" rx="17.2" ry="17.2"/><ellipse transform="rotate(-45.001 1366.141 1036.098)" class="st2" cx="1366.1" cy="1036.1" rx="17.7" ry="17.7"/><ellipse transform="rotate(-45.001 1364.37 1036.039)" class="st2" cx="1364.4" cy="1036" rx="18.2" ry="18.2"/><circle class="st2" cx="1362.6" cy="1035.9" r="18.8"/><circle class="st2" cx="1360.9" cy="1035.9" r="19.4"/><ellipse transform="rotate(-45.001 1359.087 1035.832)" class="st2" cx="1359.1" cy="1035.8" rx="20.1" ry="20.1"/><ellipse transform="rotate(-45.001 1357.346 1035.743)" class="st2" cx="1357.4" cy="1035.7" rx="20.8" ry="20.8"/><ellipse transform="rotate(-45.001 1355.575 1035.684)" class="st2" cx="1355.6" cy="1035.7" rx="21.5" ry="21.5"/><circle class="st2" cx="1353.8" cy="1035.5" r="22.3"/><circle class="st2" cx="1352" cy="1035.5" r="23.2"/><circle class="st2" cx="1350.3" cy="1035.4" r="24"/><ellipse transform="rotate(-45.001 1348.52 1035.36)" class="st2" cx="1348.5" cy="1035.3" rx="24.9" ry="24.9"/><ellipse transform="rotate(-45.001 1346.779 1035.271)" class="st2" cx="1346.8" cy="1035.3" rx="25.8" ry="25.8"/><ellipse transform="rotate(-45.001 1345.008 1035.212)" class="st2" cx="1345" cy="1035.2" rx="26.7" ry="26.7"/><ellipse transform="rotate(-45.001 1343.237 1035.153)" class="st2" cx="1343.2" cy="1035.1" rx="27.6" ry="27.6"/><ellipse transform="rotate(-45.001 1341.496 1035.064)" class="st2" cx="1341.5" cy="1035" rx="28.6" ry="28.6"/><ellipse transform="rotate(-45.001 1339.725 1035.005)" class="st2" cx="1339.7" cy="1035" rx="29.5" ry="29.5"/><circle class="st2" cx="1338" cy="1034.9" r="30.5"/><ellipse transform="rotate(-45.001 1336.183 1034.828)" class="st2" cx="1336.2" cy="1034.8" rx="31.4" ry="31.4"/><ellipse transform="rotate(-45.001 1334.441 1034.74)" class="st2" cx="1334.4" cy="1034.7" rx="32.4" ry="32.4"/><ellipse transform="rotate(-45.001 1332.67 1034.68)" class="st2" cx="1332.7" cy="1034.7" rx="33.4" ry="33.4"/><circle class="st2" cx="1330.9" cy="1034.6" r="34.4"/><circle class="st2" cx="1329.2" cy="1034.5" r="35.5"/><ellipse transform="rotate(-45.001 1327.387 1034.474)" class="st2" cx="1327.4" cy="1034.5" rx="36.5" ry="36.5"/><ellipse transform="rotate(-45.001 1325.645 1034.385)" class="st2" cx="1325.7" cy="1034.4" rx="37.5" ry="37.5"/><ellipse transform="rotate(-45.001 1323.875 1034.326)" class="st2" cx="1323.9" cy="1034.3" rx="38.6" ry="38.6"/><ellipse transform="rotate(-45.001 1322.133 1034.238)" class="st2" cx="1322.1" cy="1034.2" rx="39.6" ry="39.6"/><ellipse transform="rotate(-45.001 1320.333 1034.15)" class="st2" cx="1320.3" cy="1034.1" rx="40.7" ry="40.7"/><circle class="st2" cx="1318.6" cy="1034.1" r="41.7"/><circle class="st2" cx="1316.8" cy="1034" r="42.8"/><ellipse transform="rotate(-45.001 1315.05 1033.942)" class="st2" cx="1315.1" cy="1033.9" rx="43.9" ry="43.9"/><ellipse transform="rotate(-45.001 1313.308 1033.854)" class="st2" cx="1313.3" cy="1033.8" rx="44.9" ry="44.9"/><ellipse transform="rotate(-45.001 1311.537 1033.795)" class="st2" cx="1311.5" cy="1033.8" rx="46" ry="46"/><ellipse transform="rotate(-45.001 1309.796 1033.706)" class="st2" cx="1309.8" cy="1033.7" rx="47.1" ry="47.1"/><ellipse transform="rotate(-45.001 1308.024 1033.647)" class="st2" cx="1308" cy="1033.6" rx="48.2" ry="48.2"/><circle class="st2" cx="1306.3" cy="1033.5" r="49.3"/><ellipse transform="rotate(-45.001 1304.483 1033.47)" class="st2" cx="1304.5" cy="1033.5" rx="50.3" ry="50.3"/><ellipse transform="rotate(-45.001 1302.712 1033.411)" class="st2" cx="1302.7" cy="1033.4" rx="51.4" ry="51.4"/><ellipse transform="rotate(-45.001 1300.97 1033.322)" class="st2" cx="1301" cy="1033.3" rx="52.5" ry="52.5"/><ellipse transform="rotate(-45.001 1299.2 1033.263)" class="st2" cx="1299.2" cy="1033.2" rx="53.6" ry="53.6"/><circle class="st2" cx="1297.5" cy="1033.2" r="54.7"/><ellipse transform="rotate(-45.001 1295.687 1033.116)" class="st2" cx="1295.7" cy="1033.1" rx="55.8" ry="55.8"/><ellipse transform="rotate(-45.001 1293.945 1033.027)" class="st2" cx="1294" cy="1033" rx="56.9" ry="56.9"/><ellipse transform="rotate(-45.001 1292.174 1032.968)" class="st2" cx="1292.2" cy="1032.9" rx="58" ry="58"/><ellipse transform="rotate(-45.001 1290.404 1032.91)" class="st2" cx="1290.4" cy="1032.9" rx="59.1" ry="59.1"/><ellipse transform="rotate(-45.001 1288.662 1032.82)" class="st2" cx="1288.7" cy="1032.8" rx="60.2" ry="60.2"/><ellipse transform="rotate(-45.001 1286.862 1032.732)" class="st2" cx="1286.9" cy="1032.7" rx="61.3" ry="61.3"/><circle class="st2" cx="1285.1" cy="1032.6" r="62.4"/><ellipse transform="rotate(-45.001 1283.35 1032.584)" class="st2" cx="1283.4" cy="1032.6" rx="63.5" ry="63.5"/><ellipse transform="rotate(-45.001 1281.608 1032.496)" class="st2" cx="1281.6" cy="1032.5" rx="64.7" ry="64.7"/><circle class="st2" cx="1279.8" cy="1032.4" r="65.7"/><ellipse transform="rotate(-45.001 1278.095 1032.348)" class="st2" cx="1278.1" cy="1032.3" rx="66.9" ry="66.9"/><ellipse transform="rotate(-45.001 1276.324 1032.29)" class="st2" cx="1276.3" cy="1032.3" rx="68" ry="68"/><circle class="st2" cx="1274.6" cy="1032.2" r="69.1"/><ellipse transform="rotate(-45.001 1272.812 1032.142)" class="st2" cx="1272.8" cy="1032.1" rx="70.2" ry="70.2"/><ellipse transform="rotate(-45.001 1271.04 1032.082)" class="st2" cx="1271" cy="1032.1" rx="71.3" ry="71.3"/><ellipse transform="rotate(-45.001 1269.27 1031.964)" class="st2" cx="1269.3" cy="1031.9" rx="72.5" ry="72.5"/><ellipse transform="rotate(-45.001 1267.5 1031.905)" class="st2" cx="1267.5" cy="1031.9" rx="73.5" ry="73.5"/><ellipse transform="rotate(-45.001 1265.758 1031.817)" class="st2" cx="1265.8" cy="1031.8" rx="74.7" ry="74.7"/><ellipse transform="rotate(-45.001 1263.987 1031.758)" class="st2" cx="1264" cy="1031.7" rx="75.8" ry="75.8"/><ellipse transform="rotate(-45.001 1262.216 1031.699)" class="st2" cx="1262.2" cy="1031.7" rx="76.9" ry="76.9"/><circle class="st2" cx="1260.5" cy="1031.6" r="78.1"/><ellipse transform="rotate(-45.001 1258.703 1031.551)" class="st2" cx="1258.7" cy="1031.5" rx="79.2" ry="79.2"/><ellipse transform="rotate(-45.001 1256.962 1031.463)" class="st2" cx="1257" cy="1031.4" rx="80.3" ry="80.3"/><ellipse transform="rotate(-45.001 1255.191 1031.403)" class="st2" cx="1255.2" cy="1031.4" rx="81.4" ry="81.4"/><ellipse transform="rotate(-45.001 1253.42 1031.285)" class="st2" cx="1253.4" cy="1031.3" rx="82.6" ry="82.6"/><circle class="st2" cx="1251.7" cy="1031.2" r="83.7"/><ellipse transform="rotate(-45.001 1249.878 1031.167)" class="st2" cx="1249.9" cy="1031.1" rx="84.8" ry="84.8"/><ellipse transform="rotate(-45.001 1248.137 1031.079)" class="st2" cx="1248.1" cy="1031.1" rx="85.9" ry="85.9"/><ellipse transform="rotate(-45.001 1246.366 1031.02)" class="st2" cx="1246.4" cy="1031" rx="87.1" ry="87.1"/><ellipse transform="rotate(-45.001 1244.624 1030.931)" class="st2" cx="1244.6" cy="1030.9" rx="88.2" ry="88.2"/><circle class="st2" cx="1242.9" cy="1030.9" r="89.3"/><ellipse transform="rotate(-45.001 1241.112 1030.783)" class="st2" cx="1241.1" cy="1030.8" rx="90.5" ry="90.5"/><ellipse transform="rotate(-45.001 1239.341 1030.724)" class="st2" cx="1239.3" cy="1030.7" rx="91.6" ry="91.6"/><ellipse transform="rotate(-45.001 1237.6 1030.636)" class="st2" cx="1237.6" cy="1030.6" rx="92.7" ry="92.7"/><ellipse transform="rotate(-45.001 1235.8 1030.547)" class="st2" cx="1235.8" cy="1030.5" rx="93.8" ry="93.8"/><circle class="st2" cx="1234" cy="1030.5" r="95"/><ellipse transform="rotate(-45.001 1232.287 1030.4)" class="st2" cx="1232.3" cy="1030.4" rx="96.1" ry="96.1"/><ellipse transform="rotate(-45.001 1230.516 1030.34)" class="st2" cx="1230.5" cy="1030.3" rx="97.2" ry="97.2"/><ellipse transform="rotate(-45.001 1228.774 1030.252)" class="st2" cx="1228.8" cy="1030.2" rx="98.3" ry="98.3"/><ellipse transform="rotate(-45.001 1227.003 1030.193)" class="st2" cx="1227" cy="1030.2" rx="99.5" ry="99.5"/><circle class="st2" cx="1225.3" cy="1030.1" r="100.6"/><ellipse transform="rotate(-45.001 1223.49 1030.045)" class="st2" cx="1223.5" cy="1030" rx="101.8" ry="101.8"/><circle class="st2" cx="1221.7" cy="1030" r="102.9"/><ellipse transform="rotate(-45.001 1219.978 1029.898)" class="st2" cx="1220" cy="1029.9" rx="104" ry="104"/><ellipse transform="rotate(-45.001 1218.178 1029.81)" class="st2" cx="1218.2" cy="1029.8" rx="105.1" ry="105.1"/><ellipse transform="rotate(-45.001 1216.437 1029.72)" class="st2" cx="1216.4" cy="1029.7" rx="106.3" ry="106.3"/><ellipse transform="rotate(-45.001 1214.666 1029.662)" class="st2" cx="1214.7" cy="1029.6" rx="107.4" ry="107.4"/><ellipse transform="rotate(-45.001 1212.924 1029.573)" class="st2" cx="1212.9" cy="1029.6" rx="108.6" ry="108.6"/><ellipse transform="rotate(-45.001 1211.153 1029.514)" class="st2" cx="1211.2" cy="1029.5" rx="109.7" ry="109.7"/><circle class="st2" cx="1209.4" cy="1029.4" r="110.8"/><ellipse transform="rotate(-45.001 1207.64 1029.366)" class="st2" cx="1207.6" cy="1029.3" rx="112" ry="112"/><ellipse transform="rotate(-45.001 1205.87 1029.307)" class="st2" cx="1205.9" cy="1029.3" rx="113.1" ry="113.1"/><ellipse transform="rotate(-45.001 1204.128 1029.219)" class="st2" cx="1204.1" cy="1029.2" rx="114.2" ry="114.2"/><ellipse transform="rotate(-45.001 1202.328 1029.13)" class="st2" cx="1202.3" cy="1029.1" rx="115.4" ry="115.4"/><ellipse transform="rotate(-45.001 1200.586 1029.041)" class="st2" cx="1200.6" cy="1029" rx="116.5" ry="116.5"/><ellipse transform="rotate(-45.001 1198.816 1028.982)" class="st2" cx="1198.8" cy="1029" rx="117.6" ry="117.6"/><circle class="st2" cx="1197.1" cy="1028.9" r="118.8"/><ellipse transform="rotate(-45.001 1195.303 1028.835)" class="st2" cx="1195.3" cy="1028.8" rx="119.9" ry="119.9"/><circle class="st2" cx="1193.5" cy="1028.8" r="121.1"/><ellipse transform="rotate(-45.001 1191.79 1028.687)" class="st2" cx="1191.8" cy="1028.7" rx="122.2" ry="122.2"/><ellipse transform="rotate(-45.001 1190.02 1028.628)" class="st2" cx="1190" cy="1028.6" rx="123.3" ry="123.3"/><ellipse transform="rotate(-45.001 1188.278 1028.54)" class="st2" cx="1188.3" cy="1028.5" rx="124.5" ry="124.5"/><ellipse transform="rotate(-45.001 1186.507 1028.48)" class="st2" cx="1186.5" cy="1028.5" rx="125.6" ry="125.6"/><ellipse transform="rotate(-45.001 1184.736 1028.362)" class="st2" cx="1184.7" cy="1028.3" rx="126.7" ry="126.7"/><ellipse transform="rotate(-45.001 1182.965 1028.303)" class="st2" cx="1183" cy="1028.3" rx="127.9" ry="127.9"/><ellipse transform="rotate(-45.001 1181.195 1028.244)" class="st2" cx="1181.2" cy="1028.2" rx="129" ry="129"/><ellipse transform="rotate(-45.001 1179.453 1028.156)" class="st2" cx="1179.5" cy="1028.1" rx="130.2" ry="130.2"/><circle class="st2" cx="1177.7" cy="1028.1" r="131.3"/><ellipse transform="rotate(-45.001 1175.94 1028.008)" class="st2" cx="1175.9" cy="1028" rx="132.4" ry="132.4"/><circle class="st2" cx="1174.2" cy="1027.9" r="133.6"/><ellipse transform="rotate(-45.001 1172.428 1027.86)" class="st2" cx="1172.4" cy="1027.8" rx="134.7" ry="134.7"/><ellipse transform="rotate(-45.001 1170.657 1027.801)" class="st2" cx="1170.7" cy="1027.8" rx="135.8" ry="135.8"/><ellipse transform="rotate(-45.001 1168.916 1027.713)" class="st2" cx="1168.9" cy="1027.7" rx="137" ry="137"/><ellipse transform="rotate(-45.001 1167.115 1027.624)" class="st2" cx="1167.1" cy="1027.6" rx="138.1" ry="138.1"/><ellipse transform="rotate(-45.001 1165.345 1027.565)" class="st2" cx="1165.4" cy="1027.5" rx="139.3" ry="139.3"/><ellipse transform="rotate(-45.001 1163.603 1027.477)" class="st2" cx="1163.6" cy="1027.5" rx="140.4" ry="140.4"/><ellipse transform="rotate(-45.001 1161.832 1027.418)" class="st2" cx="1161.8" cy="1027.4" rx="141.5" ry="141.5"/><ellipse transform="rotate(-45.001 1160.09 1027.33)" class="st2" cx="1160.1" cy="1027.3" rx="142.7" ry="142.7"/><circle class="st2" cx="1158.3" cy="1027.3" r="143.8"/><ellipse transform="rotate(-45.001 1156.578 1027.182)" class="st2" cx="1156.6" cy="1027.2" rx="145" ry="145"/><circle class="st2" cx="1154.8" cy="1027.1" r="146.1"/><ellipse transform="rotate(-45.001 1153.036 1027.063)" class="st2" cx="1153" cy="1027" rx="147.2" ry="147.2"/><circle class="st2" cx="1151.3" cy="1026.9" r="148.4"/><ellipse transform="rotate(-45.001 1149.494 1026.886)" class="st2" cx="1149.5" cy="1026.9" rx="149.5" ry="149.5"/><ellipse transform="rotate(-45.001 1147.753 1026.798)" class="st2" cx="1147.8" cy="1026.8" rx="150.6" ry="150.6"/><ellipse transform="rotate(-45.001 1145.982 1026.739)" class="st2" cx="1146" cy="1026.7" rx="151.8" ry="151.8"/><ellipse transform="rotate(-45.001 1144.24 1026.65)" class="st2" cx="1144.2" cy="1026.6" rx="152.9" ry="152.9"/><ellipse transform="rotate(-45.001 1142.47 1026.591)" class="st2" cx="1142.5" cy="1026.6" rx="154.1" ry="154.1"/><ellipse transform="rotate(-45.001 1140.699 1026.532)" class="st2" cx="1140.7" cy="1026.5" rx="155.2" ry="155.2"/><ellipse transform="rotate(-45.001 1138.957 1026.443)" class="st2" cx="1139" cy="1026.4" rx="156.4" ry="156.4"/><ellipse transform="rotate(-45.001 1137.186 1026.384)" class="st2" cx="1137.2" cy="1026.4" rx="157.5" ry="157.5"/><ellipse transform="rotate(-45.001 1135.445 1026.296)" class="st2" cx="1135.5" cy="1026.3" rx="158.7" ry="158.7"/><ellipse transform="rotate(-45.001 1133.644 1026.207)" class="st2" cx="1133.7" cy="1026.2" rx="159.8" ry="159.8"/><circle class="st2" cx="1131.9" cy="1026.1" r="160.9"/><ellipse transform="rotate(-45.001 1130.132 1026.06)" class="st2" cx="1130.1" cy="1026" rx="162.1" ry="162.1"/><circle class="st2" cx="1128.4" cy="1026" r="163.2"/><circle class="st2" cx="1126.6" cy="1025.9" r="164.3"/><circle class="st2" cx="1124.9" cy="1025.8" r="165.5"/><ellipse transform="rotate(-45.001 1123.107 1025.764)" class="st2" cx="1123.1" cy="1025.7" rx="166.6" ry="166.6"/><circle class="st2" cx="1121.3" cy="1025.7" r="167.8"/><ellipse transform="rotate(-45.001 1119.595 1025.617)" class="st2" cx="1119.6" cy="1025.6" rx="168.9" ry="168.9"/><ellipse transform="rotate(-45.001 1117.824 1025.558)" class="st2" cx="1117.8" cy="1025.5" rx="170.1" ry="170.1"/><ellipse transform="rotate(-45.001 1116.053 1025.44)" class="st2" cx="1116.1" cy="1025.4" rx="171.2" ry="171.2"/><ellipse transform="rotate(-45.001 1114.282 1025.38)" class="st2" cx="1114.3" cy="1025.4" rx="172.4" ry="172.4"/><ellipse transform="rotate(-45.001 1112.51 1025.321)" class="st2" cx="1112.5" cy="1025.3" rx="173.5" ry="173.5"/><ellipse transform="rotate(-45.001 1110.77 1025.233)" class="st2" cx="1110.8" cy="1025.2" rx="174.6" ry="174.6"/><ellipse transform="rotate(-45.001 1108.999 1025.174)" class="st2" cx="1109" cy="1025.2" rx="175.8" ry="175.8"/><ellipse transform="rotate(-45.001 1107.257 1025.085)" class="st2" cx="1107.3" cy="1025.1" rx="176.9" ry="176.9"/><ellipse transform="rotate(-45.001 1105.486 1025.026)" class="st2" cx="1105.5" cy="1025" rx="178.1" ry="178.1"/><ellipse transform="rotate(-45.001 1103.745 1024.938)" class="st2" cx="1103.8" cy="1024.9" rx="179.2" ry="179.2"/><ellipse transform="rotate(-45.001 1101.974 1024.879)" class="st2" cx="1102" cy="1024.9" rx="180.4" ry="180.4"/><ellipse transform="rotate(-45.001 1100.173 1024.79)" class="st2" cx="1100.2" cy="1024.8" rx="181.5" ry="181.5"/><circle class="st2" cx="1098.4" cy="1024.7" r="182.6"/><ellipse transform="rotate(-45.001 1096.66 1024.642)" class="st2" cx="1096.7" cy="1024.6" rx="183.8" ry="183.8"/><circle class="st2" cx="1094.9" cy="1024.5" r="184.9"/><ellipse transform="rotate(-45.001 1093.148 1024.495)" class="st2" cx="1093.2" cy="1024.5" rx="186" ry="186"/><circle class="st2" cx="1091.4" cy="1024.4" r="187.2"/><circle class="st2" cx="1089.6" cy="1024.3" r="188.3"/><circle class="st2" cx="1087.9" cy="1024.2" r="189.5"/><ellipse transform="rotate(-45.001 1086.124 1024.2)" class="st2" cx="1086.1" cy="1024.2" rx="190.6" ry="190.6"/><ellipse transform="rotate(-45.001 1084.353 1024.14)" class="st2" cx="1084.4" cy="1024.1" rx="191.8" ry="191.8"/><ellipse transform="rotate(-45.001 1082.582 1024.022)" class="st2" cx="1082.6" cy="1024" rx="192.9" ry="192.9"/><ellipse transform="rotate(-45.001 1080.81 1023.963)" class="st2" cx="1080.8" cy="1023.9" rx="194.1" ry="194.1"/><ellipse transform="rotate(-45.001 1079.07 1023.875)" class="st2" cx="1079.1" cy="1023.9" rx="195.2" ry="195.2"/><ellipse transform="rotate(-45.001 1077.298 1023.816)" class="st2" cx="1077.3" cy="1023.8" rx="196.4" ry="196.4"/><ellipse transform="rotate(-45.001 1075.557 1023.727)" class="st2" cx="1075.6" cy="1023.7" rx="197.5" ry="197.5"/><ellipse transform="rotate(-45.001 1073.786 1023.668)" class="st2" cx="1073.8" cy="1023.7" rx="198.6" ry="198.6"/><ellipse transform="rotate(-45.001 1072.015 1023.61)" class="st2" cx="1072" cy="1023.6" rx="199.8" ry="199.8"/><ellipse transform="rotate(-45.001 1070.274 1023.52)" class="st2" cx="1070.3" cy="1023.5" rx="200.9" ry="200.9"/><ellipse transform="rotate(-45.001 1068.503 1023.462)" class="st2" cx="1068.5" cy="1023.4" rx="202.1" ry="202.1"/><ellipse transform="rotate(-45.001 1066.761 1023.373)" class="st2" cx="1066.8" cy="1023.4" rx="203.2" ry="203.2"/><ellipse transform="rotate(-45.001 1064.96 1023.284)" class="st2" cx="1065" cy="1023.3" rx="204.4" ry="204.4"/><ellipse transform="rotate(-45.001 1063.22 1023.196)" class="st2" cx="1063.2" cy="1023.2" rx="205.5" ry="205.5"/><circle class="st2" cx="1061.5" cy="1023.1" r="206.6"/><ellipse transform="rotate(-45.001 1059.677 1023.078)" class="st2" cx="1059.7" cy="1023.1" rx="207.8" ry="207.8"/><circle class="st2" cx="1057.9" cy="1023" r="208.9"/><ellipse transform="rotate(-45.001 1056.165 1022.93)" class="st2" cx="1056.2" cy="1022.9" rx="210.1" ry="210.1"/><circle class="st2" cx="1054.4" cy="1022.8" r="211.2"/><circle class="st2" cx="1052.7" cy="1022.8" r="212.3"/><circle class="st2" cx="1050.9" cy="1022.7" r="213.5"/><ellipse transform="rotate(-45.001 1049.11 1022.605)" class="st2" cx="1049.1" cy="1022.6" rx="214.6" ry="214.6"/><circle class="st2" cx="1047.4" cy="1022.5" r="215.8"/><ellipse transform="rotate(-45.001 1045.598 1022.458)" class="st2" cx="1045.6" cy="1022.4" rx="216.9" ry="216.9"/><ellipse transform="rotate(-45.001 1043.827 1022.399)" class="st2" cx="1043.8" cy="1022.4" rx="218.1" ry="218.1"/><ellipse transform="rotate(-45.001 1042.086 1022.31)" class="st2" cx="1042.1" cy="1022.3" rx="219.2" ry="219.2"/><ellipse transform="rotate(-45.001 1040.315 1022.251)" class="st2" cx="1040.3" cy="1022.2" rx="220.4" ry="220.4"/><ellipse transform="rotate(-45.001 1038.574 1022.162)" class="st2" cx="1038.6" cy="1022.1" rx="221.5" ry="221.5"/><ellipse transform="rotate(-45.001 1036.803 1022.103)" class="st2" cx="1036.8" cy="1022.1" rx="222.6" ry="222.7"/><ellipse transform="rotate(-45.001 1035.061 1022.015)" class="st2" cx="1035.1" cy="1022" rx="223.8" ry="223.8"/><ellipse transform="rotate(-45.001 1033.29 1021.956)" class="st2" cx="1033.3" cy="1021.9" rx="224.9" ry="224.9"/><ellipse transform="rotate(-45.001 1031.49 1021.867)" class="st2" cx="1031.5" cy="1021.9" rx="226.1" ry="226.1"/><ellipse transform="rotate(-45.001 1029.748 1021.779)" class="st2" cx="1029.8" cy="1021.8" rx="227.2" ry="227.2"/><ellipse transform="rotate(-45.001 1027.977 1021.72)" class="st2" cx="1028" cy="1021.7" rx="228.4" ry="228.4"/><ellipse transform="rotate(-45.001 1026.236 1021.631)" class="st2" cx="1026.2" cy="1021.6" rx="229.5" ry="229.5"/><ellipse transform="rotate(-45.001 1024.465 1021.572)" class="st2" cx="1024.5" cy="1021.6" rx="230.7" ry="230.7"/><ellipse transform="rotate(-45.001 1022.723 1021.483)" class="st2" cx="1022.7" cy="1021.5" rx="231.8" ry="231.8"/><ellipse transform="rotate(-45.001 1020.953 1021.424)" class="st2" cx="1021" cy="1021.4" rx="233" ry="233"/><circle class="st2" cx="1019.2" cy="1021.3" r="234.1"/><ellipse transform="rotate(-45.001 1017.44 1021.277)" class="st2" cx="1017.4" cy="1021.3" rx="235.3" ry="235.3"/><ellipse transform="rotate(-45.001 1015.67 1021.218)" class="st2" cx="1015.7" cy="1021.2" rx="236.4" ry="236.4"/><circle class="st2" cx="1013.9" cy="1021.1" r="237.5"/><circle class="st2" cx="1012.1" cy="1021" r="238.7"/><circle class="st2" cx="1010.4" cy="1020.9" r="239.8"/><ellipse transform="rotate(-45.001 1008.615 1020.893)" class="st2" cx="1008.6" cy="1020.9" rx="241" ry="241"/><circle class="st2" cx="1006.9" cy="1020.8" r="242.1"/><ellipse transform="rotate(-45.001 1005.103 1020.745)" class="st2" cx="1005.1" cy="1020.7" rx="243.3" ry="243.3"/><circle class="st2" cx="1003.3" cy="1020.7" r="244.4"/><ellipse transform="rotate(-45.001 1001.59 1020.598)" class="st2" cx="1001.6" cy="1020.6" rx="245.5" ry="245.5"/><circle class="st2" cx="999.8" cy="1020.5" r="246.7"/><circle class="st2" cx="998.1" cy="1020.4" r="247.8"/><circle class="st2" cx="996.3" cy="1020.3" r="249"/><ellipse transform="rotate(-45.001 994.536 1020.273)" class="st2" cx="994.5" cy="1020.3" rx="250.1" ry="250.1"/><circle class="st2" cx="992.8" cy="1020.2" r="251.3"/><circle class="st2" cx="991" cy="1020.1" r="252.4"/><ellipse transform="rotate(-45.001 989.252 1020.066)" class="st2" cx="989.3" cy="1020" rx="253.5" ry="253.5"/><ellipse transform="rotate(-45.001 987.481 1020.007)" class="st2" cx="987.5" cy="1020" rx="254.7" ry="254.7"/><ellipse transform="rotate(-45.001 985.74 1019.919)" class="st2" cx="985.7" cy="1019.9" rx="255.8" ry="255.8"/><circle class="st2" cx="984" cy="1019.8" r="257"/><ellipse transform="rotate(-45.001 982.228 1019.771)" class="st2" cx="982.2" cy="1019.8" rx="258.1" ry="258.1"/><circle class="st2" cx="980.4" cy="1019.7" r="259.3"/><ellipse transform="rotate(-45.001 978.686 1019.594)" class="st2" cx="978.7" cy="1019.6" rx="260.4" ry="260.4"/><ellipse transform="rotate(-45.001 976.915 1019.535)" class="st2" cx="976.9" cy="1019.5" rx="261.6" ry="261.6"/><ellipse transform="rotate(-45.001 975.144 1019.476)" class="st2" cx="975.2" cy="1019.5" rx="262.7" ry="262.7"/><ellipse transform="rotate(-45.001 973.402 1019.387)" class="st2" cx="973.4" cy="1019.4" rx="263.8" ry="263.8"/><ellipse transform="rotate(-45.001 971.631 1019.328)" class="st2" cx="971.6" cy="1019.3" rx="265" ry="265"/><ellipse transform="rotate(-45.001 969.89 1019.24)" class="st2" cx="969.9" cy="1019.2" rx="266.1" ry="266.1"/><ellipse transform="rotate(-45.001 968.119 1019.18)" class="st2" cx="968.1" cy="1019.2" rx="267.3" ry="267.3"/><ellipse transform="rotate(-45.001 966.378 1019.092)" class="st2" cx="966.4" cy="1019.1" rx="268.4" ry="268.4"/><circle class="st2" cx="964.6" cy="1019" r="269.6"/><ellipse transform="rotate(-45.001 962.806 1018.944)" class="st2" cx="962.8" cy="1018.9" rx="270.7" ry="270.7"/><ellipse transform="rotate(-45.001 961.065 1018.856)" class="st2" cx="961.1" cy="1018.8" rx="271.9" ry="271.9"/><ellipse transform="rotate(-45.001 959.294 1018.797)" class="st2" cx="959.3" cy="1018.8" rx="273" ry="273"/><circle class="st2" cx="957.6" cy="1018.7" r="274.2"/><ellipse transform="rotate(-45.001 955.781 1018.65)" class="st2" cx="955.8" cy="1018.6" rx="275.3" ry="275.3"/><circle class="st2" cx="954" cy="1018.5" r="276.5"/><circle class="st2" cx="952.3" cy="1018.5" r="277.6"/><circle class="st2" cx="950.5" cy="1018.4" r="278.8"/><circle class="st2" cx="948.8" cy="1018.3" r="279.9"/><circle class="st2" cx="947" cy="1018.2" r="281"/><circle class="st2" cx="945.2" cy="1018.2" r="282.2"/><circle class="st2" cx="943.5" cy="1018.1" r="283.3"/><circle class="st2" cx="941.7" cy="1018" r="284.5"/><circle class="st2" cx="939.9" cy="1018" r="285.6"/><circle class="st2" cx="938.2" cy="1017.9" r="286.8"/><ellipse transform="rotate(-45.001 936.419 1017.822)" class="st2" cx="936.4" cy="1017.8" rx="287.9" ry="287.9"/><circle class="st2" cx="934.7" cy="1017.7" r="289.1"/><ellipse transform="rotate(-45.001 932.906 1017.675)" class="st2" cx="932.9" cy="1017.7" rx="290.2" ry="290.2"/><circle class="st2" cx="931.1" cy="1017.6" r="291.4"/><circle class="st2" cx="929.4" cy="1017.5" r="292.5"/><circle class="st2" cx="927.6" cy="1017.4" r="293.7"/><circle class="st2" cx="925.9" cy="1017.3" r="294.8"/><ellipse transform="rotate(-45.001 924.081 1017.29)" class="st2" cx="924.1" cy="1017.3" rx="295.9" ry="295.9"/><circle class="st2" cx="922.3" cy="1017.2" r="297.1"/><ellipse transform="rotate(-45.001 920.569 1017.143)" class="st2" cx="920.6" cy="1017.1" rx="298.2" ry="298.2"/><circle class="st2" cx="918.8" cy="1017.1" r="299.4"/><ellipse transform="rotate(-45.001 917.057 1016.996)" class="st2" cx="917.1" cy="1017" rx="300.5" ry="300.5"/><circle class="st2" cx="915.3" cy="1016.9" r="301.7"/><ellipse transform="rotate(-45.001 913.515 1016.819)" class="st2" cx="913.5" cy="1016.8" rx="302.8" ry="302.8"/><ellipse transform="rotate(-45.001 911.744 1016.76)" class="st2" cx="911.8" cy="1016.7" rx="304" ry="304"/><circle class="st2" cx="910" cy="1016.7" r="305.1"/><ellipse transform="rotate(-45.001 908.231 1016.612)" class="st2" cx="908.2" cy="1016.6" rx="306.2" ry="306.2"/><ellipse transform="rotate(-45.001 906.46 1016.553)" class="st2" cx="906.5" cy="1016.5" rx="307.4" ry="307.4"/><ellipse transform="rotate(-45.001 904.719 1016.464)" class="st2" cx="904.7" cy="1016.4" rx="308.5" ry="308.5"/><ellipse transform="rotate(-45.001 902.948 1016.405)" class="st2" cx="903" cy="1016.4" rx="309.7" ry="309.7"/><ellipse transform="rotate(-45.001 901.206 1016.317)" class="st2" cx="901.2" cy="1016.3" rx="310.8" ry="310.8"/><ellipse transform="rotate(-45.001 899.435 1016.258)" class="st2" cx="899.4" cy="1016.2" rx="312" ry="312"/><circle class="st2" cx="897.7" cy="1016.2" r="313.1"/><ellipse transform="rotate(-45.001 895.894 1016.08)" class="st2" cx="895.9" cy="1016.1" rx="314.3" ry="314.3"/><ellipse transform="rotate(-45.001 894.123 1016.021)" class="st2" cx="894.1" cy="1016" rx="315.4" ry="315.4"/><circle class="st2" cx="892.4" cy="1015.9" r="316.5"/><circle class="st2" cx="890.6" cy="1015.9" r="317.7"/><circle class="st2" cx="888.9" cy="1015.8" r="318.8"/><ellipse transform="rotate(-45.001 887.098 1015.726)" class="st2" cx="887.1" cy="1015.7" rx="320" ry="320"/><circle class="st2" cx="885.4" cy="1015.6" r="321.1"/><ellipse transform="rotate(-45.001 883.585 1015.579)" class="st2" cx="883.6" cy="1015.6" rx="322.3" ry="322.3"/><circle class="st2" cx="881.8" cy="1015.5" r="323.4"/><ellipse transform="rotate(-45.001 880.073 1015.43)" class="st2" cx="880.1" cy="1015.4" rx="324.6" ry="324.6"/><circle class="st2" cx="878.3" cy="1015.3" r="325.7"/><circle class="st2" cx="876.5" cy="1015.2" r="326.8"/><ellipse transform="rotate(-45.001 874.76 1015.195)" class="st2" cx="874.8" cy="1015.2" rx="328" ry="328"/><circle class="st2" cx="873" cy="1015.1" r="329.1"/><ellipse transform="rotate(-45.001 871.248 1015.047)" class="st2" cx="871.3" cy="1015" rx="330.3" ry="330.3"/><circle class="st2" cx="869.5" cy="1014.9" r="331.4"/><circle class="st2" cx="867.7" cy="1014.9" r="332.6"/><circle class="st2" cx="866" cy="1014.8" r="333.7"/><circle class="st2" cx="864.2" cy="1014.7" r="334.9"/><circle class="st2" cx="862.4" cy="1014.6" r="336"/><circle class="st2" cx="860.7" cy="1014.6" r="337.2"/><circle class="st2" cx="858.9" cy="1014.5" r="338.3"/><ellipse transform="rotate(-45.001 857.169 1014.427)" class="st2" cx="857.2" cy="1014.4" rx="339.4" ry="339.4"/><circle class="st2" cx="855.4" cy="1014.4" r="340.6"/><circle class="st2" cx="853.6" cy="1014.3" r="341.7"/><circle class="st2" cx="851.9" cy="1014.2" r="342.9"/><ellipse transform="rotate(-45.001 850.114 1014.161)" class="st2" cx="850.1" cy="1014.1" rx="344" ry="344"/><circle class="st2" cx="848.4" cy="1014.1" r="345.2"/><ellipse transform="rotate(-45.001 846.602 1014.014)" class="st2" cx="846.6" cy="1014" rx="346.3" ry="346.3"/><circle class="st2" cx="844.8" cy="1013.9" r="347.5"/><circle class="st2" cx="843.1" cy="1013.8" r="348.6"/><ellipse transform="rotate(-45.001 841.289 1013.778)" class="st2" cx="841.3" cy="1013.8" rx="349.8" ry="349.8"/><circle class="st2" cx="839.6" cy="1013.7" r="350.9"/><ellipse transform="rotate(-45.001 837.777 1013.63)" class="st2" cx="837.8" cy="1013.6" rx="352" ry="352"/><circle class="st2" cx="836" cy="1013.5" r="353.2"/><ellipse transform="rotate(-45.001 834.264 1013.482)" class="st2" cx="834.3" cy="1013.5" rx="354.3" ry="354.3"/><ellipse transform="rotate(-45.001 832.523 1013.394)" class="st2" cx="832.5" cy="1013.4" rx="355.5" ry="355.5"/><circle class="st2" cx="830.8" cy="1013.3" r="356.6"/><ellipse transform="rotate(-45.001 829.01 1013.246)" class="st2" cx="829" cy="1013.2" rx="357.8" ry="357.8"/><ellipse transform="rotate(-45.001 827.21 1013.158)" class="st2" cx="827.2" cy="1013.1" rx="358.9" ry="358.9"/><ellipse transform="rotate(-45.001 825.439 1013.099)" class="st2" cx="825.4" cy="1013.1" rx="360.1" ry="360.1"/><ellipse transform="rotate(-45.001 823.697 1013.01)" class="st2" cx="823.7" cy="1013" rx="361.2" ry="361.2"/><ellipse transform="rotate(-45.001 821.927 1012.95)" class="st2" cx="821.9" cy="1012.9" rx="362.4" ry="362.4"/><ellipse transform="rotate(-45.001 820.185 1012.862)" class="st2" cx="820.2" cy="1012.8" rx="363.5" ry="363.5"/><ellipse transform="rotate(-45.001 818.414 1012.803)" class="st2" cx="818.4" cy="1012.8" rx="364.7" ry="364.7"/><ellipse transform="rotate(-45.001 816.673 1012.715)" class="st2" cx="816.7" cy="1012.7" rx="365.8" ry="365.8"/><ellipse transform="rotate(-45.001 814.902 1012.656)" class="st2" cx="814.9" cy="1012.6" rx="367" ry="367"/><ellipse transform="rotate(-45.001 813.13 1012.597)" class="st2" cx="813.1" cy="1012.6" rx="368.1" ry="368.1"/><circle class="st2" cx="811.4" cy="1012.5" r="369.2"/><ellipse transform="rotate(-45.001 809.589 1012.42)" class="st2" cx="809.6" cy="1012.4" rx="370.4" ry="370.4"/><ellipse transform="rotate(-45.001 807.847 1012.331)" class="st2" cx="807.9" cy="1012.3" rx="371.5" ry="371.5"/><ellipse transform="rotate(-45.001 806.077 1012.272)" class="st2" cx="806.1" cy="1012.3" rx="372.7" ry="372.7"/><ellipse transform="rotate(-45.001 804.335 1012.183)" class="st2" cx="804.3" cy="1012.2" rx="373.8" ry="373.8"/><circle class="st2" cx="802.6" cy="1012.1" r="375"/><ellipse transform="rotate(-45.001 800.823 1012.036)" class="st2" cx="800.8" cy="1012" rx="376.1" ry="376.1"/><circle class="st2" cx="799.1" cy="1012" r="377.3"/><ellipse transform="rotate(-45.001 797.28 1011.918)" class="st2" cx="797.3" cy="1011.9" rx="378.4" ry="378.4"/><ellipse transform="rotate(-45.001 795.54 1011.829)" class="st2" cx="795.5" cy="1011.8" rx="379.6" ry="379.6"/><ellipse transform="rotate(-45.001 793.739 1011.74)" class="st2" cx="793.7" cy="1011.7" rx="380.7" ry="380.7"/><ellipse transform="rotate(-45.001 791.997 1011.652)" class="st2" cx="792" cy="1011.6" rx="381.9" ry="381.9"/><circle class="st2" cx="790.2" cy="1011.6" r="383"/><circle class="st2" cx="788.5" cy="1011.5" r="384.1"/><circle class="st2" cx="786.7" cy="1011.4" r="385.3"/><ellipse transform="rotate(-45.001 784.943 1011.386)" class="st2" cx="785" cy="1011.4" rx="386.4" ry="386.4"/><circle class="st2" cx="783.2" cy="1011.3" r="387.6"/><circle class="st2" cx="781.4" cy="1011.2" r="388.7"/><circle class="st2" cx="779.7" cy="1011.1" r="389.9"/><circle class="st2" cx="777.9" cy="1011.1" r="391"/><circle class="st2" cx="776.2" cy="1011" r="392.2"/><circle class="st2" cx="774.4" cy="1010.9" r="393.3"/><circle class="st2" cx="772.6" cy="1010.8" r="394.5"/><ellipse transform="rotate(-45.001 770.864 1010.766)" class="st2" cx="770.9" cy="1010.8" rx="395.6" ry="395.6"/><circle class="st2" cx="769.1" cy="1010.7" r="396.8"/><ellipse transform="rotate(-45.001 767.352 1010.618)" class="st2" cx="767.4" cy="1010.6" rx="397.9" ry="397.9"/><circle class="st2" cx="765.6" cy="1010.5" r="399.1"/><circle class="st2" cx="763.8" cy="1010.5" r="400.2"/><circle class="st2" cx="762.1" cy="1010.4" r="401.3"/><circle class="st2" cx="760.3" cy="1010.3" r="402.5"/><circle class="st2" cx="758.5" cy="1010.2" r="403.6"/><circle class="st2" cx="756.8" cy="1010.2" r="404.8"/><circle class="st2" cx="755" cy="1010.1" r="405.9"/><circle class="st2" cx="753.3" cy="1010" r="407.1"/><circle class="st2" cx="751.5" cy="1009.9" r="408.2"/><circle class="st2" cx="749.7" cy="1009.9" r="409.4"/><circle class="st2" cx="748" cy="1009.8" r="410.5"/><ellipse transform="rotate(-45.001 746.218 1009.733)" class="st2" cx="746.2" cy="1009.7" rx="411.7" ry="411.7"/><circle class="st2" cx="744.5" cy="1009.7" r="412.8"/><ellipse transform="rotate(-45.001 742.676 1009.556)" class="st2" cx="742.7" cy="1009.5" rx="414" ry="414"/><circle class="st2" cx="740.9" cy="1009.5" r="415.1"/><circle class="st2" cx="739.2" cy="1009.4" r="416.2"/><ellipse transform="rotate(-45.001 737.393 1009.349)" class="st2" cx="737.4" cy="1009.3" rx="417.4" ry="417.4"/><circle class="st2" cx="735.7" cy="1009.2" r="418.5"/><circle class="st2" cx="733.9" cy="1009.2" r="419.7"/><circle class="st2" cx="732.1" cy="1009.1" r="420.8"/><circle class="st2" cx="730.4" cy="1009" r="422"/><circle class="st2" cx="728.6" cy="1009" r="423.1"/><circle class="st2" cx="726.9" cy="1008.9" r="424.3"/><circle class="st2" cx="725.1" cy="1008.8" r="425.4"/><circle class="st2" cx="723.3" cy="1008.7" r="426.6"/><circle class="st2" cx="721.6" cy="1008.7" r="427.7"/><ellipse transform="rotate(-45.001 719.801 1008.581)" class="st2" cx="719.8" cy="1008.6" rx="428.9" ry="428.9"/><circle class="st2" cx="718" cy="1008.5" r="430"/><circle class="st2" cx="716.3" cy="1008.5" r="431.1"/><ellipse transform="rotate(-45.001 714.518 1008.375)" class="st2" cx="714.5" cy="1008.4" rx="432.3" ry="432.3"/><ellipse transform="rotate(-45.001 712.747 1008.316)" class="st2" cx="712.8" cy="1008.3" rx="433.4" ry="433.4"/><circle class="st2" cx="711" cy="1008.2" r="434.6"/><circle class="st2" cx="709.2" cy="1008.1" r="435.7"/><circle class="st2" cx="707.5" cy="1008" r="436.9"/><circle class="st2" cx="705.7" cy="1008" r="438"/><circle class="st2" cx="703.9" cy="1007.9" r="439.2"/><ellipse transform="rotate(-45.001 702.18 1007.843)" class="st2" cx="702.2" cy="1007.8" rx="440.3" ry="440.3"/><ellipse transform="rotate(-45.001 700.41 1007.784)" class="st2" cx="700.4" cy="1007.8" rx="441.5" ry="441.5"/><circle class="st2" cx="698.7" cy="1007.7" r="442.6"/><circle class="st2" cx="696.9" cy="1007.6" r="443.8"/><ellipse transform="rotate(-45.001 695.156 1007.548)" class="st2" cx="695.2" cy="1007.5" rx="444.9" ry="444.9"/><circle class="st2" cx="693.4" cy="1007.5" r="446.1"/><circle class="st2" cx="691.6" cy="1007.4" r="447.2"/><ellipse transform="rotate(-45.001 689.843 1007.312)" class="st2" cx="689.9" cy="1007.3" rx="448.3" ry="448.3"/><circle class="st2" cx="688.1" cy="1007.2" r="449.5"/><circle class="st2" cx="686.3" cy="1007.2" r="450.6"/><circle class="st2" cx="684.6" cy="1007.1" r="451.8"/><circle class="st2" cx="682.8" cy="1007" r="452.9"/><circle class="st2" cx="681.1" cy="1006.9" r="454.1"/><circle class="st2" cx="679.3" cy="1006.9" r="455.2"/><circle class="st2" cx="677.5" cy="1006.8" r="456.4"/><ellipse transform="rotate(-45.001 675.764 1006.75)" class="st2" cx="675.8" cy="1006.7" rx="457.5" ry="457.5"/><circle class="st2" cx="674" cy="1006.6" r="458.7"/><circle class="st2" cx="672.2" cy="1006.6" r="459.8"/><circle class="st2" cx="670.5" cy="1006.5" r="461"/><circle class="st2" cx="668.7" cy="1006.4" r="462.1"/><circle class="st2" cx="667" cy="1006.3" r="463.2"/><circle class="st2" cx="665.2" cy="1006.3" r="464.4"/><circle class="st2" cx="663.4" cy="1006.2" r="465.5"/><circle class="st2" cx="661.7" cy="1006.1" r="466.7"/><circle class="st2" cx="659.9" cy="1006.1" r="467.8"/><circle class="st2" cx="658.2" cy="1005.9" r="469"/><circle class="st2" cx="656.4" cy="1005.9" r="470.1"/><circle class="st2" cx="654.6" cy="1005.8" r="471.3"/><circle class="st2" cx="652.9" cy="1005.7" r="472.4"/><circle class="st2" cx="651.1" cy="1005.6" r="473.6"/><circle class="st2" cx="649.4" cy="1005.6" r="474.7"/><circle class="st2" cx="647.6" cy="1005.5" r="475.9"/><circle class="st2" cx="645.8" cy="1005.4" r="477"/><circle class="st2" cx="644.1" cy="1005.4" r="478.2"/><circle class="st2" cx="642.3" cy="1005.3" r="479.3"/><circle class="st2" cx="640.5" cy="1005.2" r="480.4"/><circle class="st2" cx="638.8" cy="1005.1" r="481.6"/><circle class="st2" cx="637" cy="1005.1" r="482.7"/><circle class="st2" cx="635.2" cy="1005" r="483.9"/><circle class="st2" cx="633.5" cy="1004.9" r="485"/><circle class="st2" cx="631.7" cy="1004.8" r="486.2"/><circle class="st2" cx="630" cy="1004.8" r="487.3"/><circle class="st2" cx="628.2" cy="1004.7" r="488.5"/><circle class="st2" cx="626.5" cy="1004.6" r="489.6"/><circle class="st2" cx="624.7" cy="1004.5" r="490.8"/><circle class="st2" cx="622.9" cy="1004.5" r="491.9"/><circle class="st2" cx="621.2" cy="1004.4" r="493.1"/><circle class="st2" cx="619.4" cy="1004.3" r="494.2"/><circle class="st2" cx="617.7" cy="1004.2" r="495.3"/><ellipse transform="rotate(-45.001 615.876 1004.182)" class="st2" cx="615.9" cy="1004.2" rx="496.5" ry="496.5"/><circle class="st2" cx="614.1" cy="1004.1" r="497.6"/><ellipse transform="rotate(-45.001 612.363 1004.035)" class="st2" cx="612.4" cy="1004" rx="498.8" ry="498.8"/><circle class="st2" cx="610.6" cy="1003.9" r="499.9"/><ellipse transform="rotate(-45.001 608.851 1003.887)" class="st2" cx="608.9" cy="1003.9" rx="501.1" ry="501.1"/><circle class="st2" cx="607.1" cy="1003.8" r="502.2"/><circle class="st2" cx="605.3" cy="1003.7" r="503.4"/><circle class="st2" cx="603.5" cy="1003.6" r="504.5"/><circle class="st2" cx="601.8" cy="1003.6" r="505.7"/><circle class="st2" cx="600" cy="1003.5" r="506.8"/><circle class="st2" cx="598.3" cy="1003.4" r="508"/><circle class="st2" cx="596.5" cy="1003.3" r="509.1"/><circle class="st2" cx="594.8" cy="1003.3" r="510.2"/><circle class="st2" cx="593" cy="1003.2" r="511.4"/><ellipse transform="rotate(-45.001 591.23 1003.149)" class="st2" cx="591.2" cy="1003.1" rx="512.5" ry="512.5"/><circle class="st2" cx="589.5" cy="1003" r="513.7"/><circle class="st2" cx="587.7" cy="1003" r="514.8"/><ellipse transform="rotate(-45.001 585.947 1002.883)" class="st2" cx="586" cy="1002.9" rx="516" ry="516"/><ellipse transform="rotate(-45.001 584.176 1002.824)" class="st2" cx="584.2" cy="1002.8" rx="517.1" ry="517.1"/><ellipse transform="rotate(-45.001 582.434 1002.736)" class="st2" cx="582.4" cy="1002.7" rx="518.3" ry="518.3"/><circle class="st2" cx="580.7" cy="1002.7" r="519.4"/><ellipse transform="rotate(-45.001 578.892 1002.618)" class="st2" cx="578.9" cy="1002.6" rx="520.6" ry="520.6"/><circle class="st2" cx="577.2" cy="1002.5" r="521.7"/><circle class="st2" cx="575.4" cy="1002.5" r="522.9"/><circle class="st2" cx="573.6" cy="1002.3" r="524"/><circle class="st2" cx="571.8" cy="1002.3" r="525.2"/><circle class="st2" cx="570.1" cy="1002.2" r="526.3"/><circle class="st2" cx="568.3" cy="1002.1" r="527.4"/><circle class="st2" cx="566.6" cy="1002.1" r="528.6"/><circle class="st2" cx="564.8" cy="1002" r="529.7"/><circle class="st2" cx="563.1" cy="1001.9" r="530.9"/><ellipse transform="rotate(-45.001 561.3 1001.85)" class="st2" cx="561.3" cy="1001.8" rx="532" ry="532"/><circle class="st2" cx="559.5" cy="1001.8" r="533.2"/><ellipse transform="rotate(-45.001 557.789 1001.702)" class="st2" cx="557.8" cy="1001.7" rx="534.3" ry="534.3"/><ellipse transform="rotate(-45.001 555.988 1001.614)" class="st2" cx="556" cy="1001.6" rx="535.5" ry="535.5"/><ellipse transform="rotate(-45.001 554.217 1001.555)" class="st2" cx="554.2" cy="1001.5" rx="536.6" ry="536.6"/><ellipse transform="rotate(-45.001 552.476 1001.466)" class="st2" cx="552.5" cy="1001.5" rx="537.8" ry="537.8"/><ellipse transform="rotate(-45.001 550.705 1001.407)" class="st2" cx="550.7" cy="1001.4" rx="538.9" ry="538.9"/><circle class="st2" cx="549" cy="1001.3" r="540.1"/><circle class="st2" cx="547.2" cy="1001.2" r="541.2"/><circle class="st2" cx="545.5" cy="1001.2" r="542.3"/><circle class="st2" cx="543.7" cy="1001.1" r="543.5"/><circle class="st2" cx="541.9" cy="1001" r="544.6"/><circle class="st2" cx="540.2" cy="1001" r="545.8"/><circle class="st2" cx="538.4" cy="1000.9" r="546.9"/><circle class="st2" cx="536.6" cy="1000.8" r="548.1"/><circle class="st2" cx="534.9" cy="1000.7" r="549.2"/><circle class="st2" cx="533.1" cy="1000.6" r="550.4"/><ellipse transform="rotate(-45.001 531.342 1000.58)" class="st2" cx="531.4" cy="1000.6" rx="551.5" ry="551.5"/><circle class="st2" cx="529.6" cy="1000.5" r="552.7"/><ellipse transform="rotate(-45.001 527.83 1000.433)" class="st2" cx="527.8" cy="1000.4" rx="553.8" ry="553.8"/><circle class="st2" cx="526.1" cy="1000.4" r="555"/></g><circle class="st2" cx="-316.2" cy="790.6" r="17.8"/><circle class="st2" cx="-313.9" cy="790.6" r="19.3"/><circle class="st2" cx="-311.7" cy="790.6" r="20.7"/><circle class="st2" cx="-309.4" cy="790.6" r="22.2"/><circle class="st2" cx="-307.1" cy="790.6" r="23.6"/><circle class="st2" cx="-304.9" cy="790.6" r="25.1"/><circle class="st2" cx="-302.6" cy="790.6" r="26.6"/><circle class="st2" cx="-300.4" cy="790.6" r="28"/><circle class="st2" cx="-298.1" cy="790.6" r="29.5"/><circle class="st2" cx="-295.8" cy="790.6" r="31"/><circle class="st2" cx="-293.6" cy="790.6" r="32.4"/><circle class="st2" cx="-291.3" cy="790.6" r="33.9"/><circle class="st2" cx="-289.1" cy="790.6" r="35.3"/><circle class="st2" cx="-286.8" cy="790.6" r="36.8"/><circle class="st2" cx="-284.5" cy="790.6" r="38.3"/><circle class="st2" cx="-282.3" cy="790.6" r="39.7"/><circle class="st2" cx="-280" cy="790.6" r="41.2"/><circle class="st2" cx="-277.8" cy="790.6" r="42.7"/><circle class="st2" cx="-275.5" cy="790.6" r="44.1"/><circle class="st2" cx="-273.2" cy="790.6" r="45.6"/><circle class="st2" cx="-271" cy="790.6" r="47"/><circle class="st2" cx="-268.7" cy="790.6" r="48.5"/><circle class="st2" cx="-266.5" cy="790.6" r="50"/><circle class="st2" cx="-264.2" cy="790.6" r="51.4"/><circle class="st2" cx="-261.9" cy="790.6" r="52.9"/><circle class="st2" cx="-259.7" cy="790.6" r="54.4"/><circle class="st2" cx="-257.4" cy="790.6" r="55.8"/><circle class="st2" cx="-255.2" cy="790.6" r="57.3"/><circle class="st2" cx="-252.9" cy="790.6" r="58.7"/><circle class="st2" cx="-250.6" cy="790.6" r="60.2"/><circle class="st2" cx="-248.4" cy="790.6" r="61.7"/><circle class="st2" cx="-246.1" cy="790.6" r="63.1"/><circle class="st2" cx="-243.9" cy="790.6" r="64.6"/><circle class="st2" cx="-241.6" cy="790.6" r="66.1"/><circle class="st2" cx="-239.3" cy="790.6" r="67.5"/><circle class="st2" cx="-237.1" cy="790.6" r="69"/><circle class="st2" cx="-234.8" cy="790.6" r="70.4"/><circle class="st2" cx="-232.6" cy="790.6" r="71.9"/><circle class="st2" cx="-230.3" cy="790.6" r="73.4"/><circle class="st2" cx="-228" cy="790.6" r="74.8"/><circle class="st2" cx="-225.8" cy="790.6" r="76.3"/><circle class="st2" cx="-223.5" cy="790.6" r="77.8"/><circle class="st2" cx="-221.3" cy="790.6" r="79.2"/><circle class="st2" cx="-219" cy="790.6" r="80.7"/><circle class="st2" cx="-216.7" cy="790.6" r="82.2"/><circle class="st2" cx="-214.5" cy="790.6" r="83.6"/><circle class="st2" cx="-212.2" cy="790.6" r="85.1"/><circle class="st2" cx="-210" cy="790.6" r="86.5"/><circle class="st2" cx="-207.7" cy="790.6" r="88"/><circle class="st2" cx="-205.4" cy="790.6" r="89.5"/><circle class="st2" cx="-203.2" cy="790.6" r="90.9"/><circle class="st2" cx="-200.9" cy="790.6" r="92.4"/><circle class="st2" cx="-198.7" cy="790.6" r="93.9"/><circle class="st2" cx="-196.4" cy="790.6" r="95.3"/><circle class="st2" cx="-194.1" cy="790.6" r="96.8"/><circle class="st2" cx="-191.9" cy="790.6" r="98.2"/><circle class="st2" cx="-189.6" cy="790.6" r="99.7"/><circle class="st2" cx="-187.4" cy="790.6" r="101.2"/><circle class="st2" cx="-185.1" cy="790.6" r="102.6"/><circle class="st2" cx="-182.8" cy="790.6" r="104.1"/><circle class="st2" cx="-180.6" cy="790.6" r="105.6"/><circle class="st2" cx="-178.3" cy="790.6" r="107"/><circle class="st2" cx="-176.1" cy="790.6" r="108.5"/><circle class="st2" cx="-173.8" cy="790.6" r="109.9"/><circle class="st2" cx="-171.5" cy="790.6" r="111.4"/><circle class="st2" cx="-169.3" cy="790.6" r="112.9"/><circle class="st2" cx="-167" cy="790.6" r="114.3"/><circle class="st2" cx="-164.8" cy="790.6" r="115.8"/><circle class="st2" cx="-162.5" cy="790.6" r="117.3"/><circle class="st2" cx="-160.2" cy="790.6" r="118.7"/><circle class="st2" cx="-158" cy="790.6" r="120.2"/><circle class="st2" cx="-155.7" cy="790.6" r="121.6"/><circle class="st2" cx="-153.5" cy="790.6" r="123.1"/><circle class="st2" cx="-151.2" cy="790.6" r="124.6"/><circle class="st2" cx="-148.9" cy="790.6" r="126"/><circle class="st2" cx="-146.7" cy="790.6" r="127.5"/><circle class="st2" cx="-144.4" cy="790.6" r="129"/><circle class="st2" cx="-142.2" cy="790.6" r="130.4"/><circle class="st2" cx="-139.9" cy="790.6" r="131.9"/><circle class="st2" cx="-137.6" cy="790.6" r="133.3"/><circle class="st2" cx="-135.4" cy="790.6" r="134.8"/><circle class="st2" cx="-133.1" cy="790.6" r="136.3"/><circle class="st2" cx="-130.9" cy="790.6" r="137.7"/><circle class="st2" cx="-128.6" cy="790.6" r="139.2"/><circle class="st2" cx="-126.3" cy="790.6" r="140.7"/><circle class="st2" cx="-124.1" cy="790.6" r="142.1"/><circle class="st2" cx="-121.8" cy="790.6" r="143.6"/><circle class="st2" cx="-119.6" cy="790.6" r="145"/><circle class="st2" cx="-117.3" cy="790.6" r="146.5"/><circle class="st2" cx="-115" cy="790.6" r="148"/><circle class="st2" cx="-112.8" cy="790.6" r="149.4"/><circle class="st2" cx="-110.5" cy="790.6" r="150.9"/><circle class="st2" cx="-108.3" cy="790.6" r="152.4"/><circle class="st2" cx="-106" cy="790.6" r="153.8"/><circle class="st2" cx="-103.7" cy="790.6" r="155.3"/><circle class="st2" cx="-101.5" cy="790.6" r="156.7"/><circle class="st2" cx="-99.2" cy="790.6" r="158.2"/><circle class="st2" cx="-97" cy="790.6" r="159.7"/><circle class="st2" cx="-94.7" cy="790.6" r="161.1"/><circle class="st2" cx="-92.4" cy="790.6" r="162.6"/><circle class="st2" cx="-90.2" cy="790.6" r="164.1"/><circle class="st2" cx="-87.9" cy="790.6" r="165.5"/><circle class="st2" cx="-85.7" cy="790.6" r="167"/><circle class="st2" cx="-83.4" cy="790.6" r="168.4"/><circle class="st2" cx="-81.1" cy="790.6" r="169.9"/><circle class="st2" cx="-78.9" cy="790.6" r="171.4"/><circle class="st2" cx="-76.6" cy="790.6" r="172.8"/><circle class="st2" cx="-74.4" cy="790.6" r="174.3"/><circle class="st2" cx="-72.1" cy="790.6" r="175.8"/><circle class="st2" cx="-69.9" cy="790.6" r="177.2"/><circle class="st2" cx="-67.6" cy="790.6" r="178.7"/><circle class="st2" cx="-65.3" cy="790.6" r="180.1"/><circle class="st2" cx="-63.1" cy="790.6" r="181.6"/><circle class="st2" cx="-60.8" cy="790.6" r="183.1"/><circle class="st2" cx="-58.6" cy="790.6" r="184.5"/><circle class="st2" cx="-56.3" cy="790.6" r="186"/><circle class="st2" cx="-54" cy="790.6" r="187.5"/><circle class="st2" cx="-51.8" cy="790.6" r="188.9"/><circle class="st2" cx="-49.5" cy="790.6" r="190.4"/><circle class="st2" cx="-47.3" cy="790.6" r="191.8"/><circle class="st2" cx="-45" cy="790.6" r="193.3"/><circle class="st2" cx="-42.7" cy="790.6" r="194.8"/><circle class="st2" cx="-40.5" cy="790.6" r="196.2"/><circle class="st2" cx="-38.2" cy="790.6" r="197.7"/><circle class="st2" cx="-36" cy="790.6" r="199.2"/><circle class="st2" cx="-33.7" cy="790.6" r="200.6"/><circle class="st2" cx="-31.4" cy="790.6" r="202.1"/><circle class="st2" cx="-29.2" cy="790.6" r="203.5"/><circle class="st2" cx="-26.9" cy="790.6" r="205"/><circle class="st2" cx="-24.7" cy="790.6" r="206.5"/><circle class="st2" cx="-22.4" cy="790.6" r="207.9"/><circle class="st2" cx="-20.1" cy="790.6" r="209.4"/><circle class="st2" cx="-17.9" cy="790.6" r="210.9"/><circle class="st2" cx="-15.6" cy="790.6" r="212.3"/><circle class="st2" cx="-13.4" cy="790.6" r="213.8"/><circle class="st2" cx="-11.1" cy="790.6" r="215.2"/><circle class="st2" cx="-8.8" cy="790.6" r="216.7"/><circle class="st2" cx="-6.6" cy="790.6" r="218.2"/><circle class="st2" cx="-4.3" cy="790.6" r="219.6"/><circle class="st2" cx="-2.1" cy="790.6" r="221.1"/><circle class="st2" cx=".2" cy="790.6" r="222.6"/><circle class="st2" cx="2.5" cy="790.6" r="224"/><circle class="st2" cx="4.7" cy="790.6" r="225.5"/><circle class="st2" cx="7" cy="790.6" r="226.9"/><circle class="st2" cx="9.2" cy="790.6" r="228.4"/><circle class="st2" cx="11.5" cy="790.6" r="229.9"/><circle class="st2" cx="13.8" cy="790.6" r="231.3"/><circle class="st2" cx="16" cy="790.6" r="232.8"/><circle class="st2" cx="18.3" cy="790.6" r="234.3"/><circle class="st2" cx="20.5" cy="790.6" r="235.7"/><circle class="st2" cx="22.8" cy="790.6" r="237.2"/><circle class="st2" cx="25.1" cy="790.6" r="238.6"/><circle class="st2" cx="27.3" cy="790.6" r="240.1"/><circle class="st2" cx="29.6" cy="790.6" r="241.6"/><circle class="st2" cx="31.8" cy="790.6" r="243"/><circle class="st2" cx="34.1" cy="790.6" r="244.5"/><circle class="st2" cx="36.4" cy="790.6" r="246"/><circle class="st2" cx="38.6" cy="790.6" r="247.4"/><circle class="st2" cx="40.9" cy="790.6" r="248.9"/><circle class="st2" cx="43.1" cy="790.6" r="250.3"/><circle class="st2" cx="45.4" cy="790.6" r="251.8"/><circle class="st2" cx="47.7" cy="790.6" r="253.3"/><circle class="st2" cx="49.9" cy="790.6" r="254.7"/><circle class="st2" cx="52.2" cy="790.6" r="256.2"/><circle class="st2" cx="54.4" cy="790.6" r="257.7"/><circle class="st2" cx="56.7" cy="790.6" r="259.1"/><circle class="st2" cx="59" cy="790.6" r="260.6"/><circle class="st2" cx="61.2" cy="790.6" r="262"/><circle class="st2" cx="63.5" cy="790.6" r="263.5"/><circle class="st2" cx="65.7" cy="790.6" r="265"/><circle class="st2" cx="68" cy="790.6" r="266.4"/><circle class="st2" cx="70.3" cy="790.6" r="267.9"/><circle class="st2" cx="72.5" cy="790.6" r="269.4"/><circle class="st2" cx="74.8" cy="790.6" r="270.8"/><circle class="st2" cx="77" cy="790.6" r="272.3"/><circle class="st2" cx="79.3" cy="790.6" r="273.7"/><circle class="st2" cx="81.6" cy="790.6" r="275.2"/><circle class="st2" cx="83.8" cy="790.6" r="276.7"/><circle class="st2" cx="86.1" cy="790.6" r="278.1"/><circle class="st2" cx="88.3" cy="790.6" r="279.6"/><circle class="st2" cx="90.6" cy="790.6" r="281.1"/><circle class="st2" cx="92.9" cy="790.6" r="282.5"/><circle class="st2" cx="95.1" cy="790.6" r="284"/><circle class="st2" cx="97.4" cy="790.6" r="285.4"/><circle class="st2" cx="99.6" cy="790.6" r="286.9"/><circle class="st2" cx="101.9" cy="790.6" r="288.4"/><circle class="st2" cx="104.2" cy="790.6" r="289.8"/><circle class="st2" cx="106.4" cy="790.6" r="291.3"/><circle class="st2" cx="108.7" cy="790.6" r="292.8"/><circle class="st2" cx="110.9" cy="790.6" r="294.2"/></svg>